<svg version="1" xmlns="http://www.w3.org/2000/svg" width="1306.667" height="1306.667" viewBox="0 0 980.000000 980.000000"><path d="M303.5 1.4c-2.2.7-8.7 3.6-14.4 6.5-10 5.1-75.7 36.2-125.1 59.3-40.9 19.2-82.1 38.8-93.5 44.7-10.2 5.2-11.6 5.6-19.5 6.1l-8.5.5-.3 30.2L42 179h15.4c13.9 0 15.5.2 16 1.7.5 1.8 10.5 55.5 33.5 180.3 61.6 334.3 75.2 407.7 75.6 408.7.3 1-8.3 1.3-41 1.3H100v43h176v-43h-82.9l-.6-3.3c-.3-1.7-8.8-90-19-196.2-10.2-106.2-22.8-237-28-290.8-5.2-53.8-9.5-98.7-9.5-99.8 0-1.9 1.8-1.9 75.5-1.9H287v-61l-71.2-.1c-39.2 0-73-.3-75.1-.7l-3.8-.7 29.8-18.4c34.5-21.3 124.6-76.5 131.4-80.4l4.6-2.7.6 58.7c.4 32.2.7 235.6.7 452V919h16v-22.9l16.3-15.2c8.9-8.4 20.2-18.6 25-22.6l8.9-7.4 3.6 3.2c2 1.7 13 11.5 24.4 21.8l20.7 18.6v12.2l.1 12.3h16V465.5c0-267.6.4-453.5.9-453.5 2.6 0 291.9 81.2 364.1 102.2l11.5 3.3-180.7.3-180.8.2v61h377v127h-6.9c-10.9 0-15.1 2.3-15.1 8.2 0 3 9.3 15.5 31 41.7l17.5 21.2.6 12.2c.8 14.9 2.7 20.4 10.3 30.2 11.1 14.2 15.6 20.8 16.2 24.2.9 4.9-1.9 11.4-7.1 16.2-3.9 3.6-5.1 4.1-9.1 4.1-4.2 0-5.1-.5-8.9-4.3-3-3-4.8-6.1-6.4-11-1.3-3.8-3.1-7.1-4.1-7.7-1-.6-5.9-1-10.9-1-10.5 0-10.1-.7-7.6 11.2 4.1 19.2 14.5 30.1 31.5 32.9 19.4 3.1 37.1-6.6 42.1-23.3 3.2-10.5 2.5-23.2-1.9-31.9-1.7-3.5-6.6-10.5-10.8-15.4-10.4-12.4-11.5-14.8-12.1-26.4l-.5-9.6 25.1-30.4c13.8-16.8 25.1-31.1 25.1-31.8 0-2.7-3.1-7.4-5.6-8.3-1.4-.6-6.4-1-11.1-1h-8.6l.6-8.3c.4-4.5.7-32.8.7-63V180h6.3c3.5 0 13.2-.3 21.5-.7l15.2-.6V118h-19.7c-18.2 0-20.2-.2-26.7-2.4-14.8-5.1-109.4-28.9-327.4-82.6L435.9 0l-64.2.1c-49.1 0-65.1.3-68.2 1.3zM419 24.8v10.8l-20.2 18.2c-11.2 9.9-22.4 19.7-25 21.8l-4.8 3.6-3.7-3.2c-2.1-1.8-13.1-11.7-24.5-21.9l-20.7-18.6-.1-10.8V14h99v10.8zM225.5 49.9c-.6.5-19 12-41 25.6-22 13.6-46.1 28.6-53.5 33.4l-13.5 8.6-19 .2-19 .3 3.6-2c6.5-3.5 141.4-66.7 142.9-66.9.2-.1 0 .3-.5.8zm115.8 25.9c8.1 7.5 14.7 14.1 14.7 14.7 0 .9-22.2 23.3-32.2 32.5l-3.8 3.4V56.8l3.3 2.8c1.7 1.5 9.8 8.8 18 16.2zM419 91.6c0 21-.4 33.4-1 33.2-1.8-.6-36.1-33-35.8-33.8.5-1.4 34.9-33 35.9-33 .5 0 .9 13.1.9 33.6zm297.7-12c-.3.3-1.2.4-1.9.1-.8-.3-.5-.6.6-.6 1.1-.1 1.7.2 1.3.5zm42.1 10c52.5 12.6 111.5 27.4 112.2 28.1.3.2-6.7.3-15.5 0-14.5-.3-16.6-.6-22.1-3-7.4-3.2-38.5-12.6-82.3-24.8-29.4-8.2-35-9.9-32.7-9.9.4 0 18.5 4.3 40.4 9.6zm-384.6 17c8.7 7.3 40.9 37.7 40.6 38.5-.3.9-32.7 30.8-40 37l-4.6 3.9-7.4-5.8c-7.1-5.7-38-33.9-38.6-35.2-.4-1 43.8-42 45.3-42 .2 0 2.3 1.6 4.7 3.6zm-35.8 73.7c9.4 8.9 16.6 16.6 16.6 17.6s-.9 3-2 4.4c-2.4 3-31.5 29.7-32.4 29.7-.3 0-.6-15.3-.6-34.1 0-20.9.4-33.9.9-33.7.6.1 8.4 7.4 17.5 16.1zm80.2 51.5c-.3.2-8.8-7.2-19-16.6l-18.4-17.1 18.6-17.1 18.7-17.2.3 33.7c.1 18.6 0 34-.2 34.3zm-292.9-51.4c.9.9 44.4 455.4 44.2 461.4-.2 3.9-3.9-15.1-23.5-119.8-25.1-134.1-51.1-276.6-61.9-338.7l-.6-3.2 6.8-.3c7.1-.3 34.6.2 35 .6zM891 242.5V306h-52V179h52v63.5zm-496.7-10.6c11.4 10.6 20.7 19.5 20.7 19.8 0 1.2-43.8 41.3-45.1 41.3-1.4 0-20.2-16.6-39.3-34.9l-6.9-6.6 6-5.5c3.3-3 13.5-12.6 22.8-21.3 16.7-15.6 16.8-15.7 18.9-13.9 1.2 1 11.4 10.5 22.9 21.1zm-57.6 53.3c6.9 6.2 14.2 13.3 16.4 15.9l3.8 4.6-6.7 6.4c-3.7 3.6-12 11.4-18.4 17.3L320 340.2V270.9l2.1 1.5c1.2.8 7.8 6.5 14.6 12.8zm82.1 37l-.3 17.3-18.2-16.9c-10.1-9.2-18.3-17.1-18.2-17.5 0-.3 8.2-8.2 18.2-17.5l18.2-16.8.3 17.1c.1 9.4.1 24.9 0 34.3zm-23.1 17.5l20.2 18.5-10.2 9.7c-15.8 15.1-28.9 27.1-32.5 29.8l-3.2 2.5-4.3-3.5c-8.2-6.7-41.2-37.1-41.2-37.9 0-.4 10.1-10.2 22.4-21.8l22.3-21 3.2 2.6c1.7 1.4 12.2 10.9 23.3 21.1zm23.1 73.4l-.3 32.2-6-5c-3.4-2.8-11.6-10.1-18.4-16.4l-12.4-11.3 17.9-17.2c12.7-12.2 18.1-16.8 18.7-15.9.4.8.6 15.9.5 33.6zm-91.1-29.2c2.6 2.2 10.4 9.3 17.2 15.8l12.5 11.9-6.5 6.5c-3.5 3.5-11.9 11.5-18.6 17.8L320 447.2l-.2-19.3c-.4-27.8-.2-44.4.5-46.3.9-2.4 2-2 7.4 2.3zm69.6 64.1l18.6 17-9.2 8.8c-20.5 19.7-35.3 33.2-36.3 33.2-1.3 0-29.9-25.7-39.2-35.2l-6.3-6.5 12.3-12c6.8-6.6 16.7-16.1 22.2-21.1l9.9-9.2 4.7 4c2.6 2.1 13 11.6 23.3 21zm-54.5 56.4l15.3 14.1-8.8 8.5C334 541.7 322 552.1 321 551.5c-1.1-.7-1.4-60.4-.4-64.2l.6-2.3 3.2 2.6c1.7 1.5 10 9 18.4 16.8zm76.2 14.1c0 18.4-.3 33.5-.8 33.5-1 0-35.2-32-35.2-32.9 0-1.3 34.2-34.1 35.4-34.1.4 0 .6 15.1.6 33.5zm-39.5 19.9c3.9 3.3 13.6 12.3 21.7 19.9l14.6 13.8-15.1 14.3c-16.4 15.5-25.9 24-29.4 26.3-2.2 1.4-2.9.9-18.5-13.5-9-8.3-19-17.7-22.3-21.1l-5.9-6.1 3.9-4.1c2.2-2.3 12.3-11.7 22.3-21.1 16-14.6 18.6-16.7 20-15.6 1 .7 4.9 3.9 8.7 7.2zm-37.2 72.4l16 14.7-5.9 5.4c-27.4 25.2-30.8 28-31.6 26.8-.9-1.4-1.1-61.8-.2-64.1.8-2 1.3-1.6 21.7 17.2zm76.7 14.7c0 18.4-.4 33.5-.8 33.5-1 0-33.3-30.4-34.5-32.5-1.1-2-1-2 20.2-21.9 7.4-6.9 13.8-12.6 14.3-12.6.4 0 .8 15.1.8 33.5zm-35.4 23.4c6.6 5.9 16.4 15.1 21.9 20.4l10 9.5-2.5 2.7c-2.5 2.7-38.9 35.8-42.2 38.3-1.5 1.2-3.9-.7-21-16.6-10.6-9.9-20.6-19.4-22.3-21.1l-2.9-3.1 6.9-7.1c13.7-13.8 37.1-33.9 39.5-33.9.4 0 6.1 4.9 12.6 10.9zm-212.9-.2c-.3 1-.5.4-.5-1.2 0-1.7.2-2.4.5-1.8.2.7.2 2.1 0 3zm164.5 62.5c7.8 7.3 16 15 18.2 17l4.1 3.6-5 5.2c-8.6 9-29.8 28-31.2 28-1 0-1.3-6.6-1.3-33.5 0-18.4.2-33.5.6-33.5.3 0 6.9 6 14.6 13.2zm83.6 22.3l-.3 32.8-9.5-8.5c-5.2-4.7-13.5-12.4-18.5-17.1l-9-8.5 10-9.4c17.9-16.9 25.9-23.8 26.7-23 .5.5.7 15.6.6 33.7zm-40.3 17.6c13.7 12.3 36.5 34 36.5 34.9 0 .8-42.2 39.9-44.7 41.3-1.8 1.1-46.5-39.7-45.7-41.7.8-2.2 43.9-41.6 45.4-41.6.3 0 4.1 3.2 8.5 7.1zm-38.1 71.8c9.1 8.5 16.5 16 16.3 16.5-.4 1.4-32.6 31.4-34.9 32.7-1.7.9-1.8-1-1.8-33.1 0-33.1.1-34.1 1.9-32.8 1 .7 9.3 8.3 18.5 16.7zm78.6 16.6c0 18.4-.3 33.5-.6 33.5-1 0-36.5-33.3-36.2-34.1.5-1.2 35-32.9 35.9-32.9.5 0 .9 15.1.9 33.5z"/><path d="M100 845v20h176v-40H100v20zM100 899v20h176v-40H100v20zM60.2 937.7l-8.3.4-1.9 4.3c-2.3 5.5-14 36.4-14 37.1 0 .7 480.9.6 498.9-.2l15.2-.6-.6-2.5c-.3-1.4-3.9-10.8-7.8-20.9l-7.2-18.3-233 .2c-128.1.1-236.7.4-241.3.5z"/></svg>