<svg width="55" height="55" viewBox="0 0 55 55" fill="none" xmlns="http://www.w3.org/2000/svg">
<path d="M51.4879 28.4026L51.4466 28.4232L44.4785 11.0803H47.658C48.2281 11.0803 48.6903 10.6181 48.6903 10.048C48.6903 9.47793 48.2281 9.01571 47.658 9.01571H28.2298V6.03232C28.2298 5.46222 27.7676 5 27.1975 5C26.6274 5 26.1652 5.46222 26.1652 6.03232V9.00539H6.74731C6.17721 9.00539 5.71499 9.46761 5.71499 10.0377C5.71499 10.6078 6.17721 11.07 6.74731 11.07H10.061L3.08259 28.4026C3.03097 28.5235 3.00297 28.6532 3 28.7846C3 33.5252 6.84305 37.3683 11.5837 37.3683C16.3244 37.3683 20.1674 33.5252 20.1674 28.7846C20.1644 28.6532 20.1364 28.5235 20.0848 28.4026L13.1167 11.0597H26.1652V42.9789C21.241 43.3505 17.3905 46.3443 17.3905 49.9677C17.3905 50.5378 17.8527 51 18.4228 51H35.9722C36.5423 51 37.0045 50.5378 37.0045 49.9677C37.0045 46.3443 33.1539 43.3505 28.2298 42.9789V11.0597H41.4125L34.4856 28.4026C34.434 28.5235 34.406 28.6532 34.4031 28.7846C34.4031 33.5252 38.2461 37.3683 42.9868 37.3683C47.7274 37.3683 51.5705 33.5252 51.5705 28.7846C51.5675 28.6532 51.5395 28.5235 51.4879 28.4026ZM11.5785 35.3191C8.38121 35.3147 5.65821 32.9938 5.14722 29.8375H17.9686C17.4602 32.9785 14.7603 35.2946 11.5785 35.3191ZM17.5969 27.7729H5.58079L11.5992 12.794L17.5969 27.7729ZM34.754 48.9354H19.6306C20.3945 46.7159 23.5431 45.0022 27.1872 45.0022C30.8312 45.0022 33.9901 46.7159 34.754 48.9354ZM42.9403 12.8043L48.9381 27.7729H36.9219L42.9403 12.8043ZM42.9403 35.3191V35.3294C39.7552 35.304 37.0542 32.9826 36.5503 29.8375H49.3716C48.8606 32.9938 46.1376 35.3147 42.9403 35.3191Z" fill="#17529F"/>
</svg>
