<svg width="55" height="55" viewBox="0 0 55 55" fill="none" xmlns="http://www.w3.org/2000/svg">
<path d="M43.2185 13.9009C42.8528 13.9009 42.483 13.7735 42.1863 13.5123C38.231 10.0439 33.1725 8.13413 27.9448 8.13413C23.0179 8.13413 18.1997 9.86209 14.3761 13.0025C13.7054 13.552 12.7171 13.4538 12.1697 12.7852C11.6222 12.1166 11.7183 11.1283 12.387 10.5788C16.7685 6.98077 22.295 5 27.9448 5C33.9331 5 39.725 7.18554 44.2527 11.1554C44.9026 11.7259 44.9673 12.7162 44.3969 13.3681C44.0877 13.7192 43.6531 13.9009 43.2185 13.9009Z" fill="#17529F"/>
<path d="M18.1483 13.3906H12.9247C12.0597 13.3906 11.3576 12.6886 11.3576 11.8236V6.60003C11.3576 5.735 12.0597 5.03296 12.9247 5.03296C13.7897 5.03296 14.4918 5.735 14.4918 6.60003V10.2565H18.1483C19.0133 10.2565 19.7153 10.9586 19.7153 11.8236C19.7153 12.6886 19.0133 13.3906 18.1483 13.3906Z" fill="#17529F"/>
<path d="M28.3238 50.9998C22.3334 50.9998 16.5415 48.8143 12.0158 44.8444C11.3639 44.2739 11.3012 43.2836 11.8716 42.6317C12.4421 41.9818 13.4324 41.9171 14.0843 42.4875C18.0375 45.9559 23.0939 47.8657 28.3238 47.8657C33.2506 47.8657 38.0688 46.1377 41.8925 42.9973C42.5611 42.4457 43.5473 42.5439 44.0989 43.2146C44.6484 43.8832 44.5502 44.8715 43.8816 45.421C39.5001 49.019 33.9736 50.9998 28.3238 50.9998Z" fill="#17529F"/>
<path d="M43.2214 51C42.3564 51 41.6543 50.298 41.6543 49.433V45.7765H37.9979C37.1328 45.7765 36.4308 45.0744 36.4308 44.2094C36.4308 43.3444 37.1328 42.6423 37.9979 42.6423H43.2214C44.0864 42.6423 44.7885 43.3444 44.7885 44.2094V49.433C44.7885 50.298 44.0864 51 43.2214 51Z" fill="#17529F"/>
<path d="M13.4471 28.0162C10.5679 28.0162 8.22359 25.6719 8.22359 22.7926C8.22359 19.9134 10.5679 17.5691 13.4471 17.5691C16.3264 17.5691 18.6707 19.9134 18.6707 22.7926C18.6707 25.6719 16.3264 28.0162 13.4471 28.0162ZM13.4471 20.7032C12.2959 20.7032 11.3577 21.6414 11.3577 22.7926C11.3577 23.9439 12.2959 24.8821 13.4471 24.8821C14.5984 24.8821 15.5366 23.9439 15.5366 22.7926C15.5366 21.6414 14.5984 20.7032 13.4471 20.7032Z" fill="#17529F"/>
<path d="M22.3271 38.4641C21.4621 38.4641 20.7601 37.7621 20.7601 36.8971V35.8524C20.7601 34.4127 19.5879 33.2406 18.1483 33.2406H8.74588C7.30627 33.2406 6.1341 34.4127 6.1341 35.8524V36.8971C6.1341 37.7621 5.43206 38.4641 4.56704 38.4641C3.70202 38.4641 2.99997 37.7621 2.99997 36.8971V35.8524C2.99997 32.6827 5.57623 30.1064 8.74588 30.1064H18.1483C21.3179 30.1064 23.8942 32.6827 23.8942 35.8524V36.8971C23.8942 37.7621 23.1921 38.4641 22.3271 38.4641Z" fill="#17529F"/>
<path d="M42.699 28.0162C39.8198 28.0162 37.4754 25.6719 37.4754 22.7926C37.4754 19.9134 39.8198 17.5691 42.699 17.5691C45.5782 17.5691 47.9226 19.9134 47.9226 22.7926C47.9226 25.6719 45.5782 28.0162 42.699 28.0162ZM42.699 20.7032C41.5477 20.7032 40.6096 21.6414 40.6096 22.7926C40.6096 23.9439 41.5477 24.8821 42.699 24.8821C43.8503 24.8821 44.7884 23.9439 44.7884 22.7926C44.7884 21.6414 43.8503 20.7032 42.699 20.7032Z" fill="#17529F"/>
<path d="M51.579 38.4641C50.714 38.4641 50.0119 37.7621 50.0119 36.8971V35.8524C50.0119 34.4127 48.8398 33.2406 47.4001 33.2406H37.9977C36.5581 33.2406 35.386 34.4127 35.386 35.8524V36.8971C35.386 37.7621 34.6839 38.4641 33.8189 38.4641C32.9539 38.4641 32.2518 37.7621 32.2518 36.8971V35.8524C32.2518 32.6827 34.8281 30.1064 37.9977 30.1064H47.4001C50.5698 30.1064 53.1461 32.6827 53.1461 35.8524V36.8971C53.1461 37.7621 52.444 38.4641 51.579 38.4641Z" fill="#17529F"/>
</svg>
