<svg width="55" height="55" viewBox="0 0 55 55" fill="none" xmlns="http://www.w3.org/2000/svg">
<path d="M53.6372 26.0008L44.6482 17.2157C44.4158 16.9887 44.1007 16.8611 43.7721 16.8611H37.3222V12.2425C37.3222 11.0269 36.2468 10 34.9738 10H3.29453C2.02934 10 1 11.0059 1 12.2425V37.929C1 39.1655 2.02934 40.1715 3.29453 40.1715H7.06401C7.63105 43.4745 10.5756 46 14.1138 46C17.6521 46 20.5966 43.4746 21.1637 40.1715H37.5692C38.1362 43.4745 41.0807 46 44.619 46C48.1579 46 51.103 43.4738 51.6692 40.1697C51.6813 40.1702 51.6932 40.1716 51.7055 40.1716C52.9708 40.1716 54 39.1656 54 37.9292V26.8569C54.0001 26.5359 53.8695 26.2279 53.6372 26.0008ZM43.2588 19.2829L50.0158 25.8865H37.3222V19.2829H43.2588ZM7.08287 37.7499H3.47801V12.4218L34.8442 12.4219V37.7499H21.1448C20.5348 34.4975 17.6153 32.0245 14.1138 32.0245C10.6125 32.0245 7.69289 34.4975 7.08287 37.7499ZM14.1138 43.5782C11.5377 43.5782 9.44182 41.5299 9.44182 39.0122C9.44182 36.4945 11.5377 34.4462 14.1138 34.4462C16.69 34.4462 18.7859 36.4945 18.7859 39.0122C18.786 41.5299 16.69 43.5782 14.1138 43.5782ZM44.619 43.5782C42.0428 43.5782 39.947 41.5299 39.947 39.0122C39.947 36.4945 42.0428 34.4462 44.619 34.4462C47.1952 34.4462 49.291 36.4945 49.291 39.0122C49.2911 41.5299 47.1952 43.5782 44.619 43.5782ZM44.619 32.0245C41.1176 32.0245 38.1981 34.4975 37.588 37.7499H37.3221V28.3083H51.522V37.194C50.701 34.2199 47.9181 32.0245 44.619 32.0245Z" fill="#3049A1"/>
</svg>
