<svg width="55" height="55" viewBox="0 0 55 55" fill="none" xmlns="http://www.w3.org/2000/svg">
<path d="M44.5539 5H16.1195C12.5831 5.00521 9.71747 7.87081 9.71226 11.4072V37.3773C6.19457 37.7614 3.65431 40.9245 4.03841 44.4422C4.39431 47.7018 7.15364 50.1666 10.4326 50.1539H33.5972C37.1336 50.1487 39.9992 47.2831 40.0044 43.7467V17.8145H44.5539C48.0926 17.8145 50.9611 14.9459 50.9611 11.4072C50.9611 7.86856 48.0925 5 44.5539 5ZM29.0572 48.2583H10.4326C7.93831 48.2583 5.91627 46.2362 5.91627 43.7419C5.91627 41.2476 7.93831 39.2256 10.4326 39.2256H29.0572C26.5687 41.7222 26.5687 45.7615 29.0572 48.2583ZM38.1183 11.4069V43.7467C38.1183 46.2383 36.0984 48.2583 33.6067 48.2583C31.115 48.2583 29.0951 46.2383 29.0951 43.7467C29.0951 41.255 31.115 39.2351 33.6067 39.2351C34.1301 39.2351 34.5545 38.8107 34.5545 38.2872C34.5545 37.7638 34.1301 37.3394 33.6067 37.3394H11.6458V11.4072C11.6509 8.93236 13.6447 6.92158 16.1195 6.89563H39.976C38.7842 8.09438 38.1162 9.71656 38.1183 11.4069ZM43.6061 15.9188H40.0139V14.3644H43.6061V15.9188ZM45.5017 15.824V15.8146V13.4166C45.5017 12.8932 45.0774 12.4688 44.5539 12.4688H40.0139V11.4072C40.0205 8.91554 42.0459 6.90108 44.5376 6.90771C47.0293 6.91435 49.0437 8.93971 49.0371 11.4314C49.0314 13.5424 47.5626 15.3672 45.5017 15.824Z" fill="#17529F"/>
<path d="M31.6542 14.4023H17.7877C17.2642 14.4023 16.8398 14.8267 16.8398 15.3502C16.8398 15.8736 17.2642 16.298 17.7877 16.298H31.6542C32.1776 16.298 32.602 15.8736 32.602 15.3502C32.602 14.8267 32.1776 14.4023 31.6542 14.4023Z" fill="#17529F"/>
<path d="M31.6542 21.1697H17.7877C17.2642 21.1697 16.8398 21.5941 16.8398 22.1175C16.8398 22.6409 17.2642 23.0653 17.7877 23.0653H31.6542C32.1776 23.0653 32.602 22.6409 32.602 22.1175C32.602 21.5941 32.1776 21.1697 31.6542 21.1697Z" fill="#17529F"/>
<path d="M31.6542 27.937H17.7877C17.2642 27.937 16.8398 28.3614 16.8398 28.8848C16.8398 29.4083 17.2642 29.8326 17.7877 29.8326H31.6542C32.1776 29.8326 32.602 29.4083 32.602 28.8848C32.602 28.3614 32.1776 27.937 31.6542 27.937Z" fill="#17529F"/>
</svg>
