<svg width="55" height="55" viewBox="0 0 55 55" fill="none" xmlns="http://www.w3.org/2000/svg">
<path d="M50 36.1309C50 29.4259 45.4822 23.5678 39.1114 21.8025C38.7109 12.4697 30.9942 5 21.5645 5C11.8792 5 4 12.8792 4 22.5645C4 25.7209 4.84018 28.7942 6.43561 31.4923L4.06458 40.064L12.6366 37.6933C15.1168 39.1599 17.9146 39.9861 20.8022 40.1107C22.5671 46.4818 28.4256 51 35.1309 51C37.8072 51 40.4099 50.2872 42.6967 48.9329L49.9351 50.9351L47.9329 43.6967C49.2872 41.4099 50 38.8072 50 36.1309ZM13.0619 34.779L7.93031 36.1986L9.34992 31.067L9.02634 30.5609C7.50145 28.1751 6.69531 25.41 6.69531 22.5645C6.69531 14.3655 13.3655 7.69531 21.5645 7.69531C29.7634 7.69531 36.4336 14.3655 36.4336 22.5645C36.4336 30.7634 29.7634 37.4336 21.5645 37.4336C18.7189 37.4336 15.9541 36.6275 13.568 35.1026L13.0619 34.779ZM46.0697 47.0697L42.2619 46.0161L41.7533 46.3471C39.782 47.6277 37.4917 48.3047 35.1309 48.3047C29.861 48.3047 25.2302 44.8973 23.5894 40.0113C31.6592 39.081 38.081 32.6592 39.0117 24.5891C43.8973 26.2302 47.3047 30.861 47.3047 36.1309C47.3047 38.4917 46.6277 40.782 45.3471 42.7533L45.0161 43.2619L46.0697 47.0697Z" fill="#17529F"/>
<path d="M20 29H23V32H20V29Z" fill="#17529F"/>
<path d="M24 19.1656C24 19.899 23.6531 20.576 23.0234 21.072L19.5 23.8485V27H22.5V24.9859L25.0488 22.9775C26.2887 22.0006 27 20.6113 27 19.1656C27 16.3171 24.3086 14 21 14C17.6914 14 15 16.3171 15 19.1656H18C18 17.7413 19.3457 16.5828 21 16.5828C22.6543 16.5828 24 17.7413 24 19.1656Z" fill="#17529F"/>
</svg>
