<svg width="55" height="55" viewBox="0 0 55 55" fill="none" xmlns="http://www.w3.org/2000/svg">
<g clip-path="url(#clip0)">
<path d="M21.6201 13.2473H13.2273C12.4506 13.2473 11.821 13.8768 11.821 14.6536C11.821 15.4303 12.4506 16.0598 13.2273 16.0598H21.6201C22.3965 16.0598 23.0264 15.4303 23.0264 14.6536C23.0264 13.8768 22.3965 13.2473 21.6201 13.2473Z" fill="#3049A1"/>
<path d="M21.6201 18.8726H13.2273C12.4506 18.8726 11.821 19.5021 11.821 20.2788C11.821 21.0555 12.4506 21.6851 13.2273 21.6851H21.6201C22.3965 21.6851 23.0264 21.0555 23.0264 20.2788C23.0264 19.5021 22.3965 18.8726 21.6201 18.8726Z" fill="#3049A1"/>
<path d="M21.6201 24.498H13.2273C12.4506 24.498 11.821 25.1276 11.821 25.9043C11.821 26.681 12.4506 27.3105 13.2273 27.3105H21.6201C22.3965 27.3105 23.0264 26.681 23.0264 25.9043C23.0264 25.1276 22.3965 24.498 21.6201 24.498Z" fill="#3049A1"/>
<path d="M21.6201 30.1233H13.2273C12.4506 30.1233 11.821 30.7528 11.821 31.5295C11.821 32.3063 12.4506 32.9358 13.2273 32.9358H21.6201C22.3965 32.9358 23.0264 32.3063 23.0264 31.5295C23.0264 30.7528 22.3965 30.1233 21.6201 30.1233Z" fill="#3049A1"/>
<path d="M21.6201 35.8428H13.2273C12.4506 35.8428 11.821 36.4727 11.821 37.249C11.821 38.0258 12.4506 38.6553 13.2273 38.6553H21.6201C22.3965 38.6553 23.0264 38.0258 23.0264 37.249C23.0264 36.4727 22.3965 35.8428 21.6201 35.8428Z" fill="#3049A1"/>
<path d="M26.3428 16.0598H34.7356C35.5123 16.0598 36.1418 15.4303 36.1418 14.6536C36.1418 13.8768 35.5123 13.2473 34.7356 13.2473H26.3428C25.5664 13.2473 24.9365 13.8768 24.9365 14.6536C24.9365 15.4303 25.5664 16.0598 26.3428 16.0598Z" fill="#3049A1"/>
<path d="M26.3428 21.6851H34.7356C35.5123 21.6851 36.1418 21.0555 36.1418 20.2788C36.1418 19.5021 35.5123 18.8726 34.7356 18.8726H26.3428C25.5664 18.8726 24.9365 19.5021 24.9365 20.2788C24.9365 21.0555 25.5664 21.6851 26.3428 21.6851Z" fill="#3049A1"/>
<path d="M31.7913 25.9043C31.7913 25.1276 31.1617 24.498 30.385 24.498H26.3428C25.5664 24.498 24.9365 25.1276 24.9365 25.9043C24.9365 26.681 25.5664 27.3105 26.3428 27.3105H30.385C31.1617 27.3105 31.7913 26.681 31.7913 25.9043Z" fill="#3049A1"/>
<path d="M45.1129 36.4364C44.5072 35.9504 43.6224 36.0474 43.1361 36.6532L39.5143 41.1685L37.272 39.544C36.6432 39.0881 35.7636 39.2287 35.308 39.8575C34.8524 40.4867 34.993 41.3659 35.6218 41.8215L38.9481 44.2315C39.1971 44.4117 39.4857 44.4992 39.7725 44.4992C40.1852 44.4992 40.5931 44.318 40.87 43.9726L45.3301 38.4132C45.816 37.8075 45.719 36.9223 45.1129 36.4364Z" fill="#3049A1"/>
<path d="M48.6674 32.1195C46.8356 30.2555 44.4819 29.0807 41.9316 28.7346V9.66345C41.9316 6.54077 39.3909 4 36.2682 4H11.6951C8.57202 4 6.03125 6.54077 6.03125 9.66345V42.239C6.03125 45.3621 8.57202 47.9028 11.6947 47.9028H31.4587C33.6827 50.5154 36.8805 52 40.3401 52C46.7799 52 52.0189 46.7573 52.0189 40.3131C52.0189 37.2281 50.8287 34.3182 48.6674 32.1195ZM8.84375 42.239V9.66345C8.84375 8.09167 10.1229 6.8125 11.6951 6.8125H36.2682C37.8403 6.8125 39.1191 8.09167 39.1191 9.66345V28.6899C33.251 29.3026 28.6613 34.2812 28.6613 40.3131C28.6613 41.9849 29.0099 43.6013 29.6786 45.09H11.6951C10.1229 45.09 8.84375 43.8112 8.84375 42.239ZM40.3401 49.1875C37.5316 49.1875 34.9498 47.8981 33.2561 45.6503C32.0901 44.1023 31.4734 42.257 31.4734 40.3131C31.4734 35.4198 35.4512 31.4387 40.3401 31.4387C40.3862 31.4387 40.4327 31.4395 40.4789 31.4402L40.5005 31.4406C42.8344 31.4819 45.0225 32.4231 46.6616 34.0908C48.3026 35.7604 49.2064 37.9705 49.2064 40.3131C49.2064 45.2064 45.229 49.1875 40.3401 49.1875Z" fill="#3049A1"/>
</g>
<defs>
<clipPath id="clip0">
<rect width="48" height="48" fill="white" transform="translate(5 4)"/>
</clipPath>
</defs>
</svg>
