<svg width="430" height="490" viewBox="0 0 430 490" fill="none" xmlns="http://www.w3.org/2000/svg">
<path d="M30.3002 371.331V379.931H71.8343H113.368V371.331V362.732H71.8343H30.3002V371.331Z" fill="#EEEEEE"/>
<path d="M30.3002 394.867V403.466H71.8343H113.368V394.867V386.267H71.8343H30.3002V394.867Z" fill="#EEEEEE"/>
<path d="M7.42917 412.429C6.74603 413.335 0 429.716 0 430.261C0 430.441 54.7273 430.621 121.67 430.621C188.614 430.621 243.341 430.349 243.246 429.896C243.246 429.536 241.586 425.37 239.631 420.664L235.916 412.065L121.965 411.792C55.8042 411.704 7.7233 411.972 7.42917 412.429Z" fill="#17529F"/>
<path d="M124.607 1.56283C123.041 2.46801 97.5375 13.6906 67.9252 26.5477C38.4125 39.3126 13.492 50.3549 12.6097 50.9877C11.8269 51.7127 9.28883 52.2532 7.04015 52.2532H2.93655V65.3784V78.5036H10.1665H17.496L18.4733 83.2096C19.0616 85.8329 30.4947 143.404 43.982 211.113C57.4693 278.822 68.708 335.304 69.0021 336.661L69.5903 339.197H49.9453H30.3002V348.249V357.3H71.8343H113.368V348.249V339.197H93.5288H73.7888L60.6953 213.556C53.5602 144.49 47.4025 85.8329 47.1131 83.2096L46.6244 78.5036H82.4894H118.259V65.3784V52.2532L82.1004 52.073L45.8417 51.8006L85.9098 28.8986C107.898 16.4061 126.173 6.08875 126.467 6.08875C126.761 6.08875 127.055 95.5219 127.055 204.777V403.465H130.475H133.896V398.574V393.776L145.623 383.546C152.075 378.023 157.739 373.589 158.228 373.77C158.717 373.862 164.191 378.295 170.344 383.546L181.583 393.051L181.683 398.209L181.782 403.46H185.203H188.623V204.232V4.91116L191.849 5.54393C196.147 6.35684 368.835 51.4359 369.324 51.8885C369.518 52.0686 330.721 52.2488 283.129 52.2488H196.437V65.374V78.4992H285.857H375.277V106.56V134.621H371.074C366.676 134.621 364.527 135.798 364.527 138.241C364.527 139.054 369.808 145.575 376.255 152.724L387.982 165.757V171.008C387.982 177.797 389.448 180.965 395.701 187.482C401.564 193.818 402.152 197.078 398.144 201.512C393.551 206.583 387.294 204.5 384.951 197.078C383.779 193.458 383.679 193.458 378.892 193.458H374.006L374.689 197.171C376.449 207.308 382.801 212.739 392.864 212.739C402.731 212.739 409.477 207.216 410.26 198.436C410.848 191.92 409.382 188.299 403.225 181.782C398.338 176.532 397.85 175.719 397.555 171.013L397.261 165.854L409.183 152.456C415.829 145.035 421.204 138.878 421.204 138.606C421.204 138.334 420.716 137.341 420.227 136.343C419.444 134.985 418.078 134.625 414.364 134.625H409.477L409.672 106.744L409.966 78.9561L420.033 78.6837L430 78.4113V65.3784V52.2532H419.833C413.187 52.2532 409.472 51.8929 409.278 51.2557C409.083 50.7109 359.437 38.9435 299.041 25.2778L189.097 0.205095L158.313 0.0249019C129.787 -0.0673742 127.344 0.0248952 124.607 1.56283ZM181.777 10.7949V15.5932L170.15 25.3701C163.698 30.8012 158.128 35.147 157.64 35.0547C157.251 34.9624 151.681 30.5288 145.424 25.1899L133.991 15.5932V10.7949L133.891 6.08875H157.834H181.777V10.7949ZM90.4024 21.8372C89.3256 22.47 77.8924 29.0787 64.9934 36.4125C52.0943 43.7462 40.8557 50.3505 39.9733 51.0756C38.8015 51.9808 35.9646 52.2532 28.8343 52.073L19.2561 51.8006L54.8269 36.2323C88.9365 21.3846 94.6057 19.0294 90.4024 21.8372ZM151.971 39.5806C152.36 40.1255 145.424 46.6419 137.117 53.611L133.891 56.2343V40.1211V24.0079L142.687 31.4296C147.573 35.5073 151.676 39.2159 151.971 39.5806ZM181.583 47.635L181.289 55.7817L172.104 47.9953L163.015 40.1211L172.104 32.2469L181.289 24.3726L181.583 31.9744C181.678 36.14 181.678 43.1091 181.583 47.635ZM356.809 42.2961C378.992 47.3669 397.366 51.6204 397.66 51.8006C397.854 52.073 394.239 52.2532 389.453 52.2532C383.684 52.2532 380.263 51.8929 379.286 51.0756C378.409 50.3505 363.844 46.2772 346.937 41.8436C319.378 34.7822 314.003 33.2443 315.858 33.2443C316.152 33.2443 334.626 37.3176 356.809 42.2961ZM169.462 54.336L180.112 63.6603L169.656 72.6199C163.892 77.5984 158.807 81.8519 158.223 81.9441C157.735 82.1243 152.459 78.051 146.496 72.9846L135.551 63.5724L146.202 54.3404C152.066 49.2696 157.341 45.1084 157.83 45.0161C158.423 45.0117 163.598 49.1729 169.462 54.336ZM146.79 82.032C153.337 87.8234 153.826 86.4657 141.51 96.7874L133.886 103.124V87.0105V70.8974L137.601 73.9732C139.56 75.6957 143.759 79.3165 146.79 82.032ZM181.777 87.1907V103.124L172.394 95.1572L162.915 87.1028L172.1 79.2286C177.18 74.8828 181.384 71.2621 181.578 71.2621C181.678 71.2621 181.777 78.4113 181.777 87.1907ZM43.6879 89.8184C48.3797 132.634 64.5047 289.776 64.3102 290.409C64.1157 290.862 54.5375 243.7 42.9099 185.588C31.2775 127.384 21.9934 79.4966 22.1879 79.1363C22.482 78.7716 27.0742 78.5914 32.5489 78.6837L42.5161 78.9561L43.6879 89.8184ZM405.573 106.564V134.625H392.868H380.164V106.564V78.5036H392.868H405.573V106.564ZM173.86 105.114L180.112 110.638L169.462 119.87C163.598 124.94 158.418 129.194 158.029 129.194C157.54 129.194 152.36 125.028 146.401 119.87L135.651 110.638L146.695 100.953L157.834 91.3563L162.721 95.5219C165.358 97.7849 170.439 102.126 173.86 105.114ZM145.713 127.836C149.523 131.097 152.36 134.08 152.066 134.533C151.771 134.985 147.568 138.698 142.682 142.772L133.886 150.193V134.172V118.239L136.429 120.05C137.8 121.047 142.003 124.576 145.713 127.836ZM181.777 134.26V150.101L172.394 142.135L163.11 134.168L172.199 126.294C177.185 121.948 181.384 118.327 181.583 118.327C181.678 118.332 181.777 125.481 181.777 134.26ZM172.493 150.738L180.312 157.439L169.562 166.851C163.698 172.01 158.517 176.176 158.128 176.263C157.834 176.263 152.654 172.098 146.596 166.939L135.651 157.707L146.695 148.023L157.739 138.43L161.259 141.238C163.11 142.679 168.195 147.025 172.493 150.738ZM144.641 173.908C148.65 177.257 152.07 180.425 152.265 180.789C152.364 181.15 148.356 184.955 143.175 189.296L133.891 197.263V181.242C133.891 162.778 132.62 163.679 144.641 173.908ZM181.388 195.997C181.094 196.178 176.891 193.009 172.005 188.848L163.11 181.246L172.199 173.28L181.289 165.313L181.583 180.429C181.678 188.756 181.583 195.725 181.388 195.997ZM171.905 197.175L180.312 204.416L169.562 213.829C163.698 218.987 158.617 223.241 158.323 223.333C157.445 223.333 136.334 205.322 136.334 204.597C136.334 204.144 141.121 199.71 147.084 194.64L157.735 185.495L160.666 187.758C162.332 189.028 167.313 193.282 171.905 197.175ZM144.247 220.437L152.943 227.951L144.148 235.553C139.361 239.719 135.058 243.155 134.669 243.247C134.18 243.247 133.886 236.278 133.886 227.767C133.886 219.255 134.275 212.471 134.764 212.651C135.162 212.743 139.461 216.272 144.247 220.437ZM181.583 235.733L181.289 243.515L172.493 236.001C167.707 231.836 163.698 228.215 163.698 227.855C163.698 227.582 167.707 223.961 172.493 219.888L181.289 212.374L181.583 220.068C181.678 224.418 181.678 231.387 181.583 235.733ZM171.516 243.7L180.312 251.394L171.516 259.088C166.729 263.341 161.549 267.599 160.178 268.504L157.735 270.315L146.985 261.263C141.121 256.192 136.334 251.851 136.334 251.394C136.334 250.941 141.121 246.595 146.985 241.529L157.735 232.477L160.178 234.288C161.549 235.193 166.729 239.446 171.516 243.7ZM144.152 267.235L152.848 274.836L144.736 281.898C140.239 285.791 135.941 289.319 135.257 289.68C134.086 290.312 133.891 287.689 133.891 274.924C133.891 266.505 134.185 259.536 134.674 259.536C135.063 259.633 139.266 263.069 144.152 267.235ZM181.583 282.715L181.289 290.589L172.493 282.987C167.707 278.822 163.698 275.113 163.698 274.841C163.698 274.48 167.707 270.86 172.493 266.694L181.289 259.088L181.583 267.054C181.678 271.4 181.678 278.457 181.583 282.715ZM170.539 289.864L180.312 298.376L171.905 305.617C167.313 309.51 162.232 313.764 160.666 315.029L157.735 317.292L147.084 308.24C141.121 303.17 136.334 298.736 136.334 298.283C136.334 297.923 141.121 293.485 146.985 288.506C155.391 281.357 157.929 279.727 159.201 280.36C160.083 280.905 165.164 285.066 170.539 289.864ZM152.459 321.818C152.459 322.271 138.094 334.763 135.651 336.301C133.991 337.479 133.891 336.846 133.891 321.546V305.525L143.175 313.491C148.256 317.833 152.459 321.546 152.459 321.818ZM181.777 322.091V337.571L178.651 335.128C176.891 333.77 172.693 330.149 169.272 327.161L163.015 321.73L171.711 314.216C176.402 310.051 180.606 306.702 181.094 306.614C181.483 306.61 181.777 313.579 181.777 322.091ZM169.562 335.936L180.312 345.348L172.982 351.592C168.973 355.033 163.892 359.379 161.743 361.097L157.834 364.357L146.89 355.218C140.931 350.147 135.945 345.713 135.945 345.441C135.846 344.716 157.151 326.524 158.128 326.524C158.517 326.616 163.598 330.778 169.562 335.936ZM152.459 368.615C152.459 369.068 140.732 379.297 137.117 382.193L133.891 384.636V368.615V352.594L143.175 360.469C148.256 364.814 152.459 368.523 152.459 368.615ZM181.583 376.217L181.289 384.456L172.199 376.582L163.015 368.795L172.199 360.921L181.289 353.047L181.583 360.561C181.678 364.722 181.678 371.783 181.583 376.217Z" fill="#EEEEEE"/>
<path d="M24.0855 447.562V466.378H27.1255V477.066H22.4535V470.41H8.14951V477.066H3.4775V466.378H5.2375C6.04817 464.778 6.80551 463.071 7.50951 461.258C8.21351 459.423 8.84284 457.386 9.39751 455.146C9.97351 452.906 10.4322 450.378 10.7735 447.562H24.0855ZM19.2535 451.594H14.6135C14.4215 453.066 14.1122 454.666 13.6855 456.394C13.2802 458.101 12.7895 459.818 12.2135 461.546C11.6375 463.253 11.0082 464.863 10.3255 466.378H19.2535V451.594ZM46.123 461.642C46.123 464.543 45.355 466.783 43.819 468.362C42.3043 469.941 40.235 470.73 37.611 470.73C35.9897 470.73 34.539 470.378 33.259 469.674C32.0003 468.97 31.0083 467.946 30.283 466.602C29.5577 465.237 29.195 463.583 29.195 461.642C29.195 458.741 29.9523 456.511 31.467 454.954C32.9817 453.397 35.0617 452.618 37.707 452.618C39.3497 452.618 40.8003 452.97 42.059 453.674C43.3177 454.378 44.3097 455.402 45.035 456.746C45.7603 458.069 46.123 459.701 46.123 461.642ZM34.059 461.642C34.059 463.37 34.3363 464.682 34.891 465.578C35.467 466.453 36.395 466.89 37.675 466.89C38.9337 466.89 39.8403 466.453 40.395 465.578C40.971 464.682 41.259 463.37 41.259 461.642C41.259 459.914 40.971 458.623 40.395 457.77C39.8403 456.895 38.923 456.458 37.643 456.458C36.3843 456.458 35.467 456.895 34.891 457.77C34.3363 458.623 34.059 459.914 34.059 461.642ZM65.9355 452.938V470.41H61.1675V456.522H54.8315V470.41H50.0635V452.938H65.9355ZM68.4425 452.938H73.6585L76.9545 462.762C77.1252 463.231 77.2532 463.722 77.3385 464.234C77.4238 464.725 77.4878 465.247 77.5305 465.802H77.6265C77.6905 465.247 77.7758 464.725 77.8825 464.234C78.0105 463.722 78.1492 463.231 78.2985 462.762L81.5305 452.938H86.6505L79.2585 472.65C78.5972 474.463 77.6265 475.818 76.3465 476.714C75.0878 477.631 73.6265 478.09 71.9625 478.09C71.4292 478.09 70.9598 478.058 70.5545 477.994C70.1705 477.951 69.8292 477.898 69.5305 477.834V474.058C69.7652 474.101 70.0425 474.143 70.3625 474.186C70.7038 474.229 71.0558 474.25 71.4185 474.25C72.4212 474.25 73.2105 473.941 73.7865 473.322C74.3838 472.725 74.8212 471.999 75.0985 471.146L75.3865 470.282L68.4425 452.938ZM96.2613 470.73C93.6586 470.73 91.6426 470.015 90.2133 468.586C88.8053 467.135 88.1013 464.863 88.1013 461.77C88.1013 459.637 88.4639 457.898 89.1893 456.554C89.9146 455.21 90.9173 454.218 92.1973 453.578C93.4986 452.938 94.9919 452.618 96.6773 452.618C97.8719 452.618 98.9066 452.735 99.7813 452.97C100.677 453.205 101.456 453.482 102.117 453.802L100.709 457.482C99.9626 457.183 99.2586 456.938 98.5973 456.746C97.9573 456.554 97.3173 456.458 96.6773 456.458C94.2026 456.458 92.9653 458.218 92.9653 461.738C92.9653 463.487 93.2853 464.778 93.9253 465.61C94.5866 466.442 95.5039 466.858 96.6773 466.858C97.6799 466.858 98.5653 466.73 99.3333 466.474C100.101 466.197 100.848 465.823 101.573 465.354V469.418C100.848 469.887 100.08 470.218 99.2693 470.41C98.4799 470.623 97.4773 470.73 96.2613 470.73ZM117.051 452.938H122.299L115.387 461.322L122.907 470.41H117.499L110.363 461.546V470.41H105.595V452.938H110.363V461.418L117.051 452.938ZM144.394 451.274C142.538 451.274 141.119 451.967 140.138 453.354C139.156 454.741 138.666 456.639 138.666 459.05C138.666 461.482 139.114 463.37 140.01 464.714C140.927 466.037 142.388 466.698 144.394 466.698C145.332 466.698 146.26 466.591 147.178 466.378C148.116 466.165 149.13 465.866 150.218 465.482V469.546C149.215 469.951 148.223 470.25 147.242 470.442C146.26 470.634 145.162 470.73 143.946 470.73C141.599 470.73 139.658 470.25 138.122 469.29C136.607 468.309 135.487 466.943 134.762 465.194C134.036 463.423 133.674 461.365 133.674 459.018C133.674 456.714 134.09 454.677 134.922 452.906C135.754 451.135 136.959 449.749 138.538 448.746C140.138 447.743 142.09 447.242 144.394 447.242C145.524 447.242 146.655 447.391 147.786 447.69C148.938 447.967 150.036 448.351 151.082 448.842L149.514 452.778C148.66 452.373 147.796 452.021 146.922 451.722C146.068 451.423 145.226 451.274 144.394 451.274ZM162.369 447.562C165.313 447.562 167.457 448.202 168.801 449.482C170.166 450.741 170.849 452.479 170.849 454.698C170.849 456.021 170.571 457.269 170.017 458.442C169.462 459.594 168.534 460.522 167.233 461.226C165.953 461.93 164.203 462.282 161.985 462.282H159.905V470.41H155.073V447.562H162.369ZM162.113 451.53H159.905V458.314H161.505C162.87 458.314 163.947 458.047 164.737 457.514C165.547 456.959 165.953 456.074 165.953 454.858C165.953 452.639 164.673 451.53 162.113 451.53ZM195.902 458.954C195.902 461.322 195.508 463.391 194.718 465.162C193.95 466.911 192.766 468.277 191.166 469.258C189.566 470.239 187.518 470.73 185.022 470.73C182.548 470.73 180.5 470.239 178.878 469.258C177.278 468.277 176.084 466.901 175.294 465.13C174.526 463.359 174.142 461.29 174.142 458.922C174.142 456.554 174.526 454.495 175.294 452.746C176.084 450.997 177.278 449.642 178.878 448.682C180.5 447.701 182.558 447.21 185.054 447.21C187.529 447.21 189.566 447.701 191.166 448.682C192.766 449.642 193.95 451.007 194.718 452.778C195.508 454.527 195.902 456.586 195.902 458.954ZM179.23 458.954C179.23 461.343 179.689 463.231 180.606 464.618C181.524 465.983 182.996 466.666 185.022 466.666C187.092 466.666 188.574 465.983 189.47 464.618C190.366 463.231 190.814 461.343 190.814 458.954C190.814 456.543 190.366 454.655 189.47 453.29C188.574 451.925 187.102 451.242 185.054 451.242C183.006 451.242 181.524 451.925 180.606 453.29C179.689 454.655 179.23 456.543 179.23 458.954Z" fill="#EEEEEE"/>
<path d="M223.802 470.41H208.208V467.316L215.568 459.473C216.578 458.368 217.323 457.405 217.802 456.582C218.291 455.759 218.536 454.978 218.536 454.238C218.536 453.228 218.281 452.436 217.771 451.863C217.26 451.28 216.531 450.988 215.583 450.988C214.562 450.988 213.755 451.342 213.161 452.051C212.578 452.749 212.286 453.671 212.286 454.816H207.755C207.755 453.431 208.083 452.165 208.739 451.02C209.406 449.874 210.344 448.978 211.552 448.332C212.76 447.676 214.13 447.348 215.661 447.348C218.005 447.348 219.823 447.91 221.114 449.035C222.416 450.16 223.068 451.749 223.068 453.801C223.068 454.926 222.776 456.072 222.193 457.238C221.609 458.405 220.609 459.764 219.193 461.316L214.021 466.77H223.802V470.41ZM239.943 461.848H242.521V465.488H239.943V470.41H235.427V465.488H226.099L225.896 462.645L235.38 447.66H239.943V461.848ZM230.396 461.848H235.427V453.816L235.13 454.332L230.396 461.848Z" fill="#17529F"/>
</svg>
