<svg width="393" height="198" viewBox="0 0 393 198" fill="none" xmlns="http://www.w3.org/2000/svg">
    <path d="M189.389 17.67H135.281V80.3621H189.389V67.7753H209.389V75.521C209.389 84.477 207.916 90.7704 204.968 93.9171C202.021 97.3059 196.336 99.0003 188.125 99.0003H136.544C128.123 99.0003 122.649 97.3059 119.701 94.1592C116.754 90.7704 115.28 84.7191 115.28 75.521V23.4793C115.28 14.5233 116.754 8.47191 119.701 5.08314C122.649 1.69438 128.333 0 136.544 0H188.125C196.547 0 202.231 1.69438 205.179 5.08314C208.126 8.47191 209.6 25.8998 209.6 25.8998H189.599V17.67H189.389Z" fill="#CB2027"/>
    <path d="M13.6313 163.962V166.838H9.01761V161.565H4.40395V182.419H9.01761V176.427H13.6313V180.262C13.6313 181.461 13.4216 182.419 13.0021 183.378C12.5827 184.337 12.1633 185.056 11.5341 185.775C10.905 186.494 10.2759 186.974 9.43703 187.453C8.59818 187.933 7.75934 187.933 6.71078 187.933C5.66222 187.933 4.82337 187.693 3.98452 187.453C3.14568 186.974 2.51654 186.494 1.88741 185.775C1.25827 185.056 0.838847 184.337 0.419424 183.378C0.209712 182.419 0 181.221 0 180.022V163.962C0 162.763 0.209712 161.804 0.419424 160.845C0.838847 159.887 1.25827 158.928 1.88741 158.448C2.51654 157.729 3.14568 157.25 3.98452 156.77C4.82337 156.291 5.66222 156.051 6.71078 156.051C7.75934 156.051 8.59818 156.291 9.43703 156.77C10.2759 157.25 10.905 157.729 11.5341 158.448C12.1633 159.168 12.5827 159.887 13.0021 160.845C13.4216 161.804 13.6313 163.003 13.6313 163.962Z" fill="#CB2027"/>
    <path d="M36.2802 198C35.651 198 35.0219 197.76 34.6025 197.521C33.9733 197.281 33.5539 196.802 33.1345 196.322C32.7151 195.843 32.2956 195.363 32.0859 194.644C31.8762 193.925 31.6665 193.446 31.6665 192.726V156.53H38.587C39.4258 156.53 40.4744 156.77 41.3132 157.01C42.1521 157.489 42.7812 157.969 43.4104 158.688C44.0395 159.407 44.4589 160.126 44.8783 161.085C45.2978 162.044 45.5075 163.002 45.5075 164.201V179.782C45.5075 180.981 45.2978 181.94 44.8783 182.898C44.4589 183.857 44.0395 184.576 43.4104 185.295C42.7812 186.015 42.1521 186.494 41.3132 186.973C40.4744 187.453 39.6356 187.693 38.587 187.693H36.2802V198ZM36.2802 182.419H40.8938V161.564H36.2802V182.419Z" fill="#CB2027"/>
    <path d="M76.9641 180.022C76.9641 181.221 76.7544 182.18 76.335 183.138C75.9156 184.097 75.4962 184.816 74.867 185.536C74.2379 186.255 73.6088 186.734 72.7699 187.214C71.9311 187.693 71.0922 187.693 70.0437 187.693C68.9951 187.693 68.1562 187.453 67.3174 187.214C66.4786 186.734 65.8494 186.255 65.2203 185.536C64.5912 184.816 64.1717 184.097 63.7523 183.138C63.3329 182.18 63.3329 181.221 63.3329 180.022V163.962C63.3329 162.763 63.5426 161.804 63.7523 160.845C64.1717 159.887 64.5912 158.928 65.2203 158.209C65.8494 157.489 66.4786 157.01 67.3174 156.531C68.1562 156.051 68.9951 155.812 70.0437 155.812C71.0922 155.812 71.9311 156.051 72.7699 156.531C73.6088 157.01 74.2379 157.489 74.867 158.209C75.4962 158.928 75.9156 159.887 76.335 160.845C76.7544 161.804 76.9641 162.763 76.9641 163.962V180.022ZM67.7368 161.804V182.659H72.3505V161.804H67.7368Z" fill="#CB2027"/>
    <path d="M94.7898 163.962C94.7898 162.763 94.9995 161.804 95.4189 160.845C95.8384 159.887 96.2578 158.928 96.8869 158.448C97.516 157.729 98.1452 157.25 98.984 156.77C99.8229 156.291 100.662 156.051 101.71 156.051C102.759 156.051 103.598 156.291 104.437 156.77C105.275 157.25 105.905 157.729 106.534 158.448C107.163 159.168 107.582 159.887 108.002 160.845C108.421 161.804 108.421 162.763 108.421 163.962V180.022C108.421 181.221 108.211 182.18 108.002 183.139C107.582 184.097 107.163 184.817 106.534 185.536C105.905 186.255 105.275 186.734 104.437 187.214C103.598 187.693 102.759 187.693 101.71 187.693C100.662 187.693 99.8229 187.453 98.984 187.214C98.1452 186.734 97.516 186.255 96.8869 185.536C96.2578 184.817 95.8384 184.097 95.4189 183.139C94.9995 182.18 94.7898 181.221 94.7898 180.022V176.187H99.4035V182.18H104.017V173.55H99.4035V168.756H104.017V161.325H99.4035V166.599H94.7898V163.962Z" fill="white"/>
    <path d="M139.878 156.53V166.119C139.878 167.317 139.878 168.276 139.668 169.235C139.458 170.194 139.249 170.913 139.039 171.632C138.62 172.351 138.2 172.831 137.571 173.31C136.942 173.789 136.313 173.789 135.264 173.789C136.103 173.789 136.942 174.029 137.571 174.509C138.2 174.988 138.62 175.467 139.039 176.186C139.458 176.906 139.668 177.625 139.668 178.584C139.878 179.542 139.878 180.501 139.878 181.7V187.693H135.474V181.7C135.474 180.262 135.264 179.063 134.845 178.104C134.425 177.145 133.796 176.666 133.377 176.666H131.07V187.932H126.456V156.77H131.07V171.392H133.377C134.006 171.392 134.425 170.913 134.845 169.954C135.264 168.995 135.474 167.797 135.474 166.358V156.77H139.878V156.53Z" fill="white"/>
    <path d="M171.544 163.961V166.838H166.931V161.564H162.317V182.419H166.931V176.426H171.544V180.262C171.544 181.46 171.335 182.419 170.915 183.378C170.496 184.337 170.076 185.056 169.447 185.775C168.818 186.494 168.189 186.973 167.35 187.453C166.511 187.932 165.672 187.932 164.624 187.932C163.575 187.932 162.736 187.693 161.897 187.453C161.059 186.973 160.429 186.494 159.8 185.775C159.171 185.056 158.752 184.337 158.332 183.378C157.913 182.419 157.913 181.46 157.913 180.262V164.201C157.913 163.002 158.123 162.044 158.332 161.085C158.752 160.126 159.171 159.167 159.8 158.688C160.429 157.968 161.059 157.489 161.897 157.01C162.736 156.53 163.575 156.291 164.624 156.291C165.672 156.291 166.511 156.53 167.35 157.01C168.189 157.489 168.818 157.968 169.447 158.688C170.076 159.407 170.496 160.126 170.915 161.085C171.335 161.804 171.544 163.002 171.544 163.961Z" fill="white"/>
    <path d="M196.29 156.53C197.129 156.53 198.178 156.77 198.807 157.01C199.646 157.489 200.275 157.969 200.904 158.688C201.533 159.407 201.953 160.126 202.372 161.085C202.791 162.044 203.001 163.002 203.001 164.201V187.693H198.597V161.804H193.984V187.693H189.37V156.53H196.29Z" fill="white"/>
    <path d="M227.747 156.051C228.796 156.051 229.635 156.291 230.473 156.77C231.312 157.25 231.941 157.729 232.571 158.448C233.2 159.168 233.619 159.887 234.039 160.845C234.458 161.804 234.668 162.763 234.668 163.962V171.872H225.65V182.18H230.264V177.385H234.877V180.262C234.877 181.461 234.668 182.419 234.248 183.378C233.829 184.337 233.409 185.056 232.78 185.775C232.151 186.494 231.522 186.974 230.683 187.453C229.844 187.933 229.005 187.933 227.957 187.933C226.908 187.933 226.069 187.693 225.231 187.453C224.392 186.974 223.763 186.494 223.134 185.775C222.504 185.056 222.085 184.337 221.666 183.378C221.246 182.419 221.246 181.461 221.246 180.262V164.201C221.246 163.003 221.456 162.044 221.666 161.085C222.085 160.126 222.504 159.168 223.134 158.448C223.763 157.729 224.392 157.25 225.231 156.77C226.069 156.291 226.908 156.051 227.747 156.051ZM225.65 161.804V167.078H230.264V161.804H225.65Z" fill="white"/>
    <path d="M257.316 198C256.687 198 256.058 197.76 255.639 197.521C255.01 197.281 254.59 196.802 254.171 196.322C253.751 195.843 253.332 195.363 253.122 194.644C252.912 193.925 252.703 193.446 252.703 192.726V156.53H259.623C260.462 156.53 261.511 156.77 262.35 157.01C263.188 157.489 263.818 157.969 264.447 158.688C265.076 159.407 265.495 160.126 265.915 161.085C266.334 162.044 266.544 163.002 266.544 164.201V179.782C266.544 180.981 266.334 181.94 265.915 182.898C265.495 183.857 265.076 184.576 264.447 185.295C263.818 186.015 263.188 186.494 262.35 186.973C261.511 187.453 260.672 187.693 259.623 187.693H257.316V198ZM257.316 182.419H261.93V161.564H257.316V182.419Z" fill="white"/>
    <path d="M288.983 187.693V161.564H284.369V156.53H298.21V161.804H293.597V187.693H288.983V187.693Z" fill="white"/>
    <path d="M329.877 187.693H322.956C322.117 187.693 321.069 187.453 320.23 186.973C319.391 186.494 318.762 186.015 318.133 185.295C317.504 184.576 317.084 183.857 316.665 182.898C316.245 181.94 316.036 180.981 316.036 180.022V156.53H320.649V182.419H325.263V156.53H329.667V187.693H329.877Z" fill="white"/>
    <path d="M352.316 161.804V166.838H347.912V164.201C347.912 163.003 348.122 162.044 348.331 161.085C348.751 160.126 349.17 159.168 349.799 158.448C350.429 157.729 351.058 157.25 351.896 156.77C352.735 156.291 353.574 156.051 354.623 156.051C355.671 156.051 356.51 156.291 357.349 156.77C358.188 157.25 358.817 157.729 359.446 158.448C360.075 159.168 360.495 160.126 360.914 161.085C361.333 162.044 361.543 163.003 361.543 164.201V167.078C361.333 168.276 361.124 169.475 360.495 170.674C359.865 171.632 359.236 172.352 358.397 172.352C359.236 173.071 360.075 173.79 360.495 174.509C361.124 175.228 361.333 176.187 361.333 177.625V180.502C361.333 181.7 361.124 182.659 360.704 183.618C360.285 184.577 359.865 185.296 359.236 186.015C358.607 186.734 357.978 187.214 357.139 187.693C356.3 188.172 355.462 188.172 354.413 188.172C353.364 188.172 352.526 187.933 351.687 187.693C350.848 187.214 350.219 186.734 349.59 186.015C348.961 185.296 348.541 184.577 348.122 183.618C347.702 182.659 347.702 181.7 347.702 180.502V176.666H352.106V182.899H356.72V177.385C356.72 176.666 356.51 175.947 356.091 175.468C355.671 174.988 355.042 174.749 354.413 174.749H352.106V169.475H354.832C355.252 169.475 355.671 168.996 356.091 168.516C356.51 168.037 356.72 167.318 356.72 166.599V161.804H352.316Z" fill="white"/>
    <path d="M386.08 187.693C385.031 187.693 384.192 187.453 383.353 186.973C382.514 186.494 381.885 186.015 381.256 185.295C380.627 184.576 380.208 183.857 379.788 182.898C379.369 181.94 379.369 180.981 379.369 179.782V173.789C379.369 172.591 379.578 171.632 379.788 170.673C380.208 169.714 380.627 168.995 381.256 168.276C381.885 167.557 382.514 167.077 383.353 166.598C384.192 166.119 385.031 165.879 386.08 165.879H388.386V161.564H379.369V156.291H386.08C387.128 156.291 387.967 156.53 388.806 156.77C389.645 157.249 390.274 157.729 390.903 158.448C391.532 159.167 391.951 159.886 392.371 160.845C392.79 161.804 393 162.763 393 163.961V187.213H386.08V187.693ZM388.386 182.419V171.153H383.773V182.419H388.386Z" fill="white"/>
    <path d="M245.782 41.2302C242.846 37.8743 237.184 36.1963 229.005 36.1963H177.626C169.237 36.1963 163.575 37.8743 160.639 41.2302C157.703 44.5861 156.235 61.8453 156.235 61.8453H176.158V53.9348H230.054V76.4676H215.794V94.4458H230.054V116.02H176.368V106.911H156.445V111.226C156.445 120.095 157.913 126.327 160.849 129.444C163.785 132.799 169.447 134.477 177.626 134.477H229.005C237.394 134.477 242.846 132.799 245.782 129.683C248.718 126.327 250.186 120.335 250.186 111.226V59.4482C250.186 50.5789 248.718 44.3464 245.782 41.2302Z" fill="white"/>
</svg>
