<svg width="90" height="40" viewBox="0 0 90 40" fill="none" xmlns="http://www.w3.org/2000/svg">
<path d="M43.3715 3.56968H30.9804V16.2347H43.3715V13.6919H47.9518V15.2567C47.9518 17.066 47.6143 18.3374 46.9393 18.9731C46.2643 19.6577 44.9625 20 43.0822 20H31.2697C29.3411 20 28.0875 19.6577 27.4125 19.022C26.7375 18.3374 26.4 17.1149 26.4 15.2567V4.74328C26.4 2.93399 26.7375 1.71149 27.4125 1.02689C28.0875 0.342298 29.3893 0 31.2697 0H43.0822C45.0107 0 46.3125 0.342298 46.9875 1.02689C47.6625 1.71149 48 5.23227 48 5.23227H43.4197V3.56968H43.3715Z" fill="#CB2027"/>
<path d="M3.12166 33.1235V33.7046H2.0651V32.6392H1.00854V36.8523H2.0651V35.6416H3.12166V36.4164C3.12166 36.6586 3.07364 36.8523 2.97759 37.046C2.88154 37.2397 2.78549 37.385 2.64141 37.5302C2.49733 37.6755 2.35326 37.7724 2.16115 37.8692C1.96905 37.9661 1.77695 37.9661 1.53682 37.9661C1.29669 37.9661 1.10459 37.9176 0.912487 37.8692C0.720384 37.7724 0.576307 37.6755 0.432231 37.5302C0.288154 37.385 0.192102 37.2397 0.0960512 37.046C0.0480256 36.8523 0 36.6101 0 36.368V33.1235C0 32.8813 0.0480256 32.6876 0.0960512 32.4939C0.192102 32.3002 0.288154 32.1065 0.432231 32.0097C0.576307 31.8644 0.720384 31.7675 0.912487 31.6707C1.10459 31.5738 1.29669 31.5254 1.53682 31.5254C1.77695 31.5254 1.96905 31.5738 2.16115 31.6707C2.35326 31.7675 2.49733 31.8644 2.64141 32.0097C2.78549 32.1549 2.88154 32.3002 2.97759 32.4939C3.07364 32.6876 3.12166 32.9298 3.12166 33.1235Z" fill="#CB2027"/>
<path d="M8.30839 40.0003C8.16432 40.0003 8.02024 39.9519 7.92419 39.9034C7.78011 39.855 7.68406 39.7582 7.58801 39.6613C7.49196 39.5644 7.39591 39.4676 7.34788 39.3223C7.29986 39.177 7.25183 39.0802 7.25183 38.9349V31.6226H8.83668C9.02878 31.6226 9.26891 31.671 9.46101 31.7194C9.65311 31.8163 9.79719 31.9131 9.94127 32.0584C10.0853 32.2037 10.1814 32.3489 10.2774 32.5427C10.3735 32.7364 10.4215 32.9301 10.4215 33.1722V36.3199C10.4215 36.562 10.3735 36.7557 10.2774 36.9494C10.1814 37.1431 10.0853 37.2884 9.94127 37.4337C9.79719 37.579 9.65311 37.6758 9.46101 37.7727C9.26891 37.8695 9.0768 37.918 8.83668 37.918H8.30839V40.0003ZM8.30839 36.8526H9.36496V32.6395H8.30839V36.8526Z" fill="#CB2027"/>
<path d="M17.6254 36.3681C17.6254 36.6102 17.5774 36.8039 17.4814 36.9976C17.3853 37.1913 17.2893 37.3366 17.1452 37.4819C17.0011 37.6272 16.857 37.724 16.6649 37.8209C16.4728 37.9177 16.2807 37.9177 16.0406 37.9177C15.8005 37.9177 15.6084 37.8693 15.4163 37.8209C15.2242 37.724 15.0801 37.6272 14.936 37.4819C14.7919 37.3366 14.6959 37.1913 14.5998 36.9976C14.5038 36.8039 14.5038 36.6102 14.5038 36.3681V33.1235C14.5038 32.8814 14.5518 32.6877 14.5998 32.494C14.6959 32.3003 14.7919 32.1066 14.936 31.9613C15.0801 31.816 15.2242 31.7192 15.4163 31.6223C15.6084 31.5255 15.8005 31.4771 16.0406 31.4771C16.2807 31.4771 16.4728 31.5255 16.6649 31.6223C16.857 31.7192 17.0011 31.816 17.1452 31.9613C17.2893 32.1066 17.3853 32.3003 17.4814 32.494C17.5774 32.6877 17.6254 32.8814 17.6254 33.1235V36.3681ZM15.5123 32.6877V36.9008H16.5689V32.6877H15.5123Z" fill="#CB2027"/>
<path d="M21.7075 33.1235C21.7075 32.8813 21.7555 32.6876 21.8516 32.4939C21.9476 32.3002 22.0437 32.1065 22.1878 32.0097C22.3319 31.8644 22.4759 31.7675 22.668 31.6707C22.8601 31.5738 23.0522 31.5254 23.2924 31.5254C23.5325 31.5254 23.7246 31.5738 23.9167 31.6707C24.1088 31.7675 24.2529 31.8644 24.397 32.0097C24.541 32.1549 24.6371 32.3002 24.7331 32.4939C24.8292 32.6876 24.8292 32.8813 24.8292 33.1235V36.368C24.8292 36.6101 24.7812 36.8038 24.7331 36.9976C24.6371 37.1913 24.541 37.3365 24.397 37.4818C24.2529 37.6271 24.1088 37.7239 23.9167 37.8208C23.7246 37.9176 23.5325 37.9177 23.2924 37.9177C23.0522 37.9177 22.8601 37.8692 22.668 37.8208C22.4759 37.7239 22.3319 37.6271 22.1878 37.4818C22.0437 37.3365 21.9476 37.1913 21.8516 36.9976C21.7555 36.8038 21.7075 36.6101 21.7075 36.368V35.5932H22.7641V36.8038H23.8206V35.0605H22.7641V34.092H23.8206V32.5908H22.7641V33.6561H21.7075V33.1235Z" fill="#414042"/>
<path d="M32.0331 31.6226V33.5596C32.0331 33.8017 32.0331 33.9954 31.9851 34.1891C31.9371 34.3828 31.889 34.5281 31.841 34.6734C31.745 34.8187 31.6489 34.9155 31.5048 35.0124C31.3608 35.1092 31.2167 35.1092 30.9765 35.1092C31.1686 35.1092 31.3608 35.1577 31.5048 35.2545C31.6489 35.3514 31.745 35.4482 31.841 35.5935C31.9371 35.7388 31.9851 35.8841 31.9851 36.0778C32.0331 36.2715 32.0331 36.4652 32.0331 36.7073V37.918H31.0246V36.7073C31.0246 36.4167 30.9765 36.1746 30.8805 35.9809C30.7844 35.7872 30.6404 35.6904 30.5443 35.6904H30.016V37.9664H28.9595V31.671H30.016V34.625H30.5443C30.6884 34.625 30.7844 34.5281 30.8805 34.3344C30.9765 34.1407 31.0246 33.8986 31.0246 33.608V31.671H32.0331V31.6226Z" fill="#414042"/>
<path d="M39.285 33.1234V33.7045H38.2284V32.6391H37.1719V36.8522H38.2284V35.6415H39.285V36.4163C39.285 36.6585 39.237 36.8522 39.1409 37.0459C39.0449 37.2396 38.9488 37.3849 38.8047 37.5301C38.6607 37.6754 38.5166 37.7723 38.3245 37.8691C38.1324 37.966 37.9403 37.966 37.7002 37.966C37.46 37.966 37.2679 37.9176 37.0758 37.8691C36.8837 37.7723 36.7396 37.6754 36.5956 37.5301C36.4515 37.3849 36.3554 37.2396 36.2594 37.0459C36.1633 36.8522 36.1633 36.6585 36.1633 36.4163V33.1718C36.1633 32.9297 36.2114 32.736 36.2594 32.5423C36.3554 32.3485 36.4515 32.1548 36.5956 32.058C36.7396 31.9127 36.8837 31.8159 37.0758 31.719C37.2679 31.6222 37.46 31.5737 37.7002 31.5737C37.9403 31.5737 38.1324 31.6222 38.3245 31.719C38.5166 31.8159 38.6607 31.9127 38.8047 32.058C38.9488 32.2033 39.0449 32.3485 39.1409 32.5423C39.237 32.6875 39.285 32.9297 39.285 33.1234Z" fill="#414042"/>
<path d="M44.952 31.6226C45.1441 31.6226 45.3843 31.671 45.5283 31.7194C45.7204 31.8163 45.8645 31.9131 46.0086 32.0584C46.1527 32.2037 46.2487 32.3489 46.3448 32.5427C46.4408 32.7364 46.4889 32.9301 46.4889 33.1722V37.918H45.4803V32.6879H44.4237V37.918H43.3672V31.6226H44.952Z" fill="#414042"/>
<path d="M52.1558 31.5254C52.3959 31.5254 52.588 31.5738 52.7801 31.6707C52.9722 31.7675 53.1163 31.8644 53.2604 32.0097C53.4045 32.1549 53.5005 32.3002 53.5966 32.4939C53.6926 32.6876 53.7406 32.8813 53.7406 33.1235V34.7215H51.6755V36.8038H52.7321V35.8353H53.7887V36.4164C53.7887 36.6586 53.7406 36.8523 53.6446 37.046C53.5485 37.2397 53.4525 37.385 53.3084 37.5302C53.1643 37.6755 53.0202 37.7724 52.8281 37.8692C52.636 37.9661 52.4439 37.9661 52.2038 37.9661C51.9637 37.9661 51.7716 37.9176 51.5795 37.8692C51.3874 37.7724 51.2433 37.6755 51.0992 37.5302C50.9551 37.385 50.8591 37.2397 50.763 37.046C50.667 36.8523 50.667 36.6586 50.667 36.4164V33.1719C50.667 32.9298 50.715 32.736 50.763 32.5423C50.8591 32.3486 50.9551 32.1549 51.0992 32.0097C51.2433 31.8644 51.3874 31.7675 51.5795 31.6707C51.7716 31.5738 51.9637 31.5254 52.1558 31.5254ZM51.6755 32.6876V33.753H52.7321V32.6876H51.6755Z" fill="#414042"/>
<path d="M58.9274 40.0003C58.7833 40.0003 58.6393 39.9519 58.5432 39.9034C58.3991 39.855 58.3031 39.7582 58.207 39.6613C58.111 39.5644 58.0149 39.4676 57.9669 39.3223C57.9189 39.177 57.8708 39.0802 57.8708 38.9349V31.6226H59.4557C59.6478 31.6226 59.8879 31.671 60.08 31.7194C60.2721 31.8163 60.4162 31.9131 60.5603 32.0584C60.7044 32.2037 60.8004 32.3489 60.8965 32.5427C60.9925 32.7364 61.0405 32.9301 61.0405 33.1722V36.3199C61.0405 36.562 60.9925 36.7557 60.8965 36.9494C60.8004 37.1431 60.7044 37.2884 60.5603 37.4337C60.4162 37.579 60.2721 37.6758 60.08 37.7727C59.8879 37.8695 59.6958 37.918 59.4557 37.918H58.9274V40.0003ZM58.9274 36.8526H59.984V32.6395H58.9274V36.8526Z" fill="#414042"/>
<path d="M66.1794 37.918V32.6395H65.1228V31.6226H68.2925V32.6879H67.2359V37.918H66.1794Z" fill="#414042"/>
<path d="M75.5443 37.918H73.9595C73.7674 37.918 73.5273 37.8695 73.3351 37.7727C73.143 37.6758 72.999 37.579 72.8549 37.4337C72.7108 37.2884 72.6148 37.1431 72.5187 36.9494C72.4227 36.7557 72.3746 36.562 72.3746 36.3683V31.6226H73.4312V36.8526H74.4878V31.6226H75.4963V37.918H75.5443Z" fill="#414042"/>
<path d="M80.683 32.6876V33.7046H79.6745V33.1719C79.6745 32.9298 79.7225 32.736 79.7705 32.5423C79.8666 32.3486 79.9626 32.1549 80.1067 32.0097C80.2508 31.8644 80.3949 31.7675 80.587 31.6707C80.7791 31.5738 80.9712 31.5254 81.2113 31.5254C81.4514 31.5254 81.6435 31.5738 81.8356 31.6707C82.0277 31.7675 82.1718 31.8644 82.3159 32.0097C82.46 32.1549 82.556 32.3486 82.6521 32.5423C82.7481 32.736 82.7961 32.9298 82.7961 33.1719V33.753C82.7481 33.9951 82.7001 34.2373 82.556 34.4794C82.4119 34.6731 82.2679 34.8184 82.0758 34.8184C82.2679 34.9636 82.46 35.1089 82.556 35.2542C82.7001 35.3995 82.7481 35.5932 82.7481 35.8837V36.4649C82.7481 36.707 82.7001 36.9007 82.604 37.0944C82.508 37.2881 82.4119 37.4334 82.2679 37.5787C82.1238 37.7239 81.9797 37.8208 81.7876 37.9176C81.5955 38.0145 81.4034 38.0145 81.1633 38.0145C80.9232 38.0145 80.731 37.9661 80.5389 37.9176C80.3468 37.8208 80.2028 37.7239 80.0587 37.5787C79.9146 37.4334 79.8186 37.2881 79.7225 37.0944C79.6265 36.9007 79.6265 36.707 79.6265 36.4649V35.69H80.635V36.9491H81.6916V35.8353C81.6916 35.69 81.6435 35.5448 81.5475 35.4479C81.4514 35.3511 81.3074 35.3026 81.1633 35.3026H80.635V34.2373H81.2593C81.3554 34.2373 81.4514 34.1404 81.5475 34.0436C81.6435 33.9467 81.6916 33.8014 81.6916 33.6561V32.6876H80.683Z" fill="#414042"/>
<path d="M88.4151 37.9176C88.175 37.9176 87.9829 37.8691 87.7908 37.7723C87.5987 37.6754 87.4546 37.5786 87.3105 37.4333C87.1665 37.288 87.0704 37.1427 86.9744 36.949C86.8783 36.7553 86.8783 36.5616 86.8783 36.3195V35.1088C86.8783 34.8667 86.9263 34.673 86.9744 34.4793C87.0704 34.2856 87.1665 34.1403 87.3105 33.995C87.4546 33.8498 87.5987 33.7529 87.7908 33.6561C87.9829 33.5592 88.175 33.5108 88.4151 33.5108H88.9434V32.6391H86.8783V31.5737H88.4151C88.6553 31.5737 88.8474 31.6222 89.0395 31.6706C89.2316 31.7674 89.3756 31.8643 89.5197 32.0096C89.6638 32.1548 89.7598 32.3001 89.8559 32.4938C89.9519 32.6875 90 32.8812 90 33.1234V37.8207H88.4151V37.9176ZM88.9434 36.8522V34.5762H87.8868V36.8522H88.9434Z" fill="#414042"/>
<path d="M56.286 8.32945C55.6136 7.65148 54.3169 7.3125 52.4439 7.3125H40.6777C38.7566 7.3125 37.4599 7.65148 36.7876 8.32945C36.1152 9.00742 35.7791 12.4941 35.7791 12.4941H40.3415V10.896H52.6841V15.4481H49.4183V19.0801H52.6841V23.4384H40.3895V21.5982H35.8271V22.4699C35.8271 24.2617 36.1633 25.5207 36.8356 26.1503C37.508 26.8282 38.8047 27.1672 40.6777 27.1672H52.4439C54.365 27.1672 55.6136 26.8282 56.286 26.1987C56.9583 25.5207 57.2945 24.3101 57.2945 22.4699V12.0098C57.2945 10.2181 56.9583 8.95899 56.286 8.32945Z" fill="#414042"/>
</svg>
