<svg width="77" height="46" viewBox="0 0 77 46" fill="none" xmlns="http://www.w3.org/2000/svg">
<path d="M2.31729 29.237V29.9141H5.49374H8.67019V29.237V28.5599H5.49374H2.31729V29.237Z" fill="#414042"/>
<path d="M2.31729 31.0895V31.7666H5.49374H8.67019V31.0895V30.4124H5.49374H2.31729V31.0895Z" fill="#414042"/>
<path d="M0.568169 32.4709C0.515923 32.5422 0 33.832 0 33.8749C0 33.8891 4.18544 33.9033 9.30512 33.9033C14.4248 33.9033 18.6102 33.8819 18.603 33.8462C18.603 33.8179 18.476 33.4899 18.3265 33.1193L18.0424 32.4422L9.32762 32.4208C4.2678 32.4138 0.590663 32.4349 0.568169 32.4709Z" fill="#17529F"/>
<path d="M9.5297 0.123265C9.40997 0.194538 7.45948 1.07819 5.19479 2.09054C2.93771 3.09564 1.03184 3.9651 0.964359 4.01492C0.904495 4.07201 0.710389 4.11456 0.538414 4.11456H0.224579V5.14802V6.18149H0.777509H1.33806L1.4128 6.55204C1.45779 6.75859 2.33217 11.2917 3.36366 16.623C4.39514 21.9543 5.25465 26.4016 5.27715 26.5085L5.32213 26.7082H3.81972H2.3173V27.4209V28.1336H5.49375H8.67019V27.4209V26.7082H7.1529H5.64323L4.64186 16.8154C4.09618 11.3772 3.62525 6.75859 3.60312 6.55204L3.56574 6.18149H6.30863H9.04426V5.14802V4.11456L6.27888 4.10038L3.50588 4.07893L6.57022 2.27565C8.25187 1.29201 9.64943 0.47963 9.67193 0.47963C9.69442 0.47963 9.71692 7.52149 9.71692 16.1241V31.7686H9.97851H10.2401V31.3835V31.0057L11.137 30.2002C11.6304 29.7653 12.0636 29.4162 12.101 29.4304C12.1383 29.4376 12.557 29.7867 13.0276 30.2002L13.8871 30.9486L13.8947 31.3548L13.9024 31.7682H14.1639H14.4255V16.0812V0.386908L14.6722 0.436732C15.001 0.500739 28.2078 4.05021 28.2452 4.08585C28.26 4.10003 25.2929 4.11422 21.6532 4.11422H15.0231V5.14768V6.18114H21.8618H28.7005V8.39061V10.6001H28.379C28.0427 10.6001 27.8784 10.6928 27.8784 10.8852C27.8784 10.9492 28.2822 11.4626 28.7752 12.0255L29.6721 13.0517V13.4652C29.6721 13.9997 29.7842 14.2492 30.2624 14.7623C30.7109 15.2612 30.7559 15.5179 30.4493 15.867C30.0981 16.2663 29.6195 16.1023 29.4403 15.5179C29.3507 15.2328 29.343 15.2328 28.977 15.2328H28.6033L28.6555 15.5252C28.7901 16.3234 29.2759 16.751 30.0455 16.751C30.8001 16.751 31.316 16.3161 31.3759 15.6248C31.4209 15.1117 31.3088 14.8266 30.8378 14.3135C30.4641 13.9001 30.4268 13.8361 30.4043 13.4655L30.3818 13.0593L31.2935 12.0044C31.8018 11.4201 32.2129 10.9353 32.2129 10.9139C32.2129 10.8924 32.1755 10.8142 32.1382 10.7357C32.0783 10.6288 31.9738 10.6004 31.6897 10.6004H31.316L31.3309 8.40514L31.3534 6.21712L32.1233 6.19567L32.8856 6.17422V5.14802V4.11456H32.1081C31.5998 4.11456 31.3157 4.08619 31.3008 4.03603C31.2859 3.99312 27.4891 3.06657 22.8701 1.99055L14.4618 0.0163581L12.1075 0.00216989C9.9259 -0.00509583 9.73905 0.00216936 9.5297 0.123265ZM13.902 0.850183V1.228L13.0127 1.99782C12.5193 2.42546 12.0934 2.76764 12.056 2.76037C12.0262 2.75311 11.6003 2.40401 11.1217 1.98364L10.2474 1.228V0.850183L10.2397 0.47963H12.0709H13.902V0.850183ZM6.9138 1.71965C6.83145 1.76947 5.95706 2.28983 4.97057 2.86728C3.98407 3.44474 3.12456 3.96475 3.05708 4.02184C2.96746 4.09311 2.7505 4.11457 2.20519 4.10038L1.47266 4.07893L4.19305 2.8531C6.8017 1.68401 7.23526 1.49856 6.9138 1.71965ZM11.6224 3.11674C11.6522 3.15964 11.1217 3.67274 10.4864 4.22147L10.2397 4.42803V3.1593V1.89057L10.9124 2.47494C11.2861 2.79601 11.5999 3.08802 11.6224 3.11674ZM13.8871 3.75093L13.8646 4.39239L13.1622 3.7793L12.4671 3.1593L13.1622 2.53929L13.8646 1.91928L13.8871 2.51784C13.8944 2.84583 13.8944 3.39457 13.8871 3.75093ZM27.2881 3.33056C28.9846 3.72983 30.3898 4.06474 30.4123 4.07893C30.4271 4.10038 30.1507 4.11456 29.7846 4.11456C29.3434 4.11456 29.0818 4.08619 29.0071 4.02184C28.94 3.96475 27.8261 3.64402 26.533 3.29492C24.4255 2.73892 24.0144 2.61783 24.1562 2.61783C24.1787 2.61783 25.5915 2.93856 27.2881 3.33056ZM12.9601 4.27856L13.7746 5.01274L12.975 5.71821C12.5342 6.11021 12.1452 6.44513 12.1006 6.45239C12.0632 6.46658 11.6598 6.14585 11.2037 5.74693L10.3667 5.00582L11.1812 4.27891C11.6297 3.87964 12.0331 3.55199 12.0705 3.54472C12.1159 3.54438 12.5117 3.87203 12.9601 4.27856ZM11.2262 6.45931C11.7269 6.91532 11.7643 6.80841 10.8224 7.62114L10.2394 8.12005V6.85132V5.58258L10.5235 5.82477C10.6733 5.9604 10.9944 6.24549 11.2262 6.45931ZM13.902 6.8655V8.12005L13.1843 7.49277L12.4594 6.85858L13.1618 6.23857C13.5504 5.89639 13.8719 5.6113 13.8868 5.6113C13.8944 5.6113 13.902 6.17422 13.902 6.8655ZM3.34116 7.0724C3.69999 10.4437 4.9332 22.8169 4.91832 22.8667C4.90345 22.9023 4.17092 19.1888 3.28166 14.6132C2.39204 10.0302 1.68201 6.25968 1.69688 6.23131C1.71938 6.20259 2.07058 6.18841 2.48927 6.19567L3.25155 6.21712L3.34116 7.0724ZM31.0174 8.39096V10.6004H30.0458H29.0742V8.39096V6.18149H30.0458H31.0174V8.39096ZM13.2965 8.27678L13.7746 8.71168L12.9601 9.4386C12.5117 9.83787 12.1155 10.1728 12.0857 10.1728C12.0484 10.1728 11.6522 9.84479 11.1965 9.4386L10.3743 8.71168L11.219 7.94913L12.0709 7.1935L12.4446 7.52149C12.6463 7.69967 13.0349 8.04151 13.2965 8.27678ZM11.1439 10.0659C11.4352 10.3226 11.6522 10.5575 11.6297 10.5932C11.6072 10.6288 11.2857 10.9212 10.912 11.2419L10.2394 11.8263V10.5648V9.31024L10.4338 9.45279C10.5387 9.53133 10.8601 9.80915 11.1439 10.0659ZM13.902 10.5717V11.819L13.1843 11.1917L12.4743 10.5644L13.1695 9.94443C13.5508 9.60225 13.8719 9.31716 13.8871 9.31716C13.8944 9.31751 13.902 9.88043 13.902 10.5717ZM13.192 11.8692L13.7899 12.3968L12.9677 13.1379C12.5193 13.5441 12.1231 13.8721 12.0934 13.879C12.0709 13.879 11.6747 13.551 11.2114 13.1448L10.3743 12.4179L11.219 11.6553L12.0636 10.9L12.3328 11.1211C12.4743 11.2346 12.8633 11.5768 13.192 11.8692ZM11.0619 13.6935C11.3685 13.9572 11.63 14.2066 11.6449 14.2354C11.6525 14.2637 11.346 14.5634 10.9498 14.9052L10.2397 15.5325V14.271C10.2397 12.8172 10.1425 12.8881 11.0619 13.6935ZM13.8722 15.4328C13.8497 15.447 13.5283 15.1975 13.1546 14.8699L12.4743 14.2713L13.1695 13.6441L13.8646 13.0168L13.8871 14.207C13.8944 14.8626 13.8871 15.4114 13.8722 15.4328ZM13.147 15.5255L13.7899 16.0957L12.9677 16.8368C12.5193 17.243 12.1307 17.5779 12.1082 17.5852C12.0411 17.5852 10.4266 16.167 10.4266 16.1099C10.4266 16.0743 10.7927 15.7252 11.2487 15.3259L12.0632 14.6059L12.2875 14.7841C12.4148 14.8841 12.7958 15.219 13.147 15.5255ZM11.0318 17.3572L11.6968 17.9488L11.0241 18.5474C10.6581 18.8754 10.329 19.1459 10.2992 19.1532C10.2619 19.1532 10.2394 18.6045 10.2394 17.9343C10.2394 17.2641 10.2691 16.7299 10.3065 16.7441C10.337 16.7514 10.6657 17.0292 11.0318 17.3572ZM13.8871 18.5616L13.8646 19.1743L13.192 18.5827C12.8259 18.2547 12.5193 17.9696 12.5193 17.9412C12.5193 17.9198 12.8259 17.6347 13.192 17.3139L13.8646 16.7223L13.8871 17.3281C13.8944 17.6707 13.8944 18.2194 13.8871 18.5616ZM13.1172 19.1888L13.7899 19.7947L13.1172 20.4005C12.7511 20.7354 12.3549 21.0707 12.2501 21.1419L12.0632 21.2845L11.2411 20.5717C10.7927 20.1725 10.4266 19.8306 10.4266 19.7947C10.4266 19.759 10.7927 19.4168 11.2411 19.0179L12.0632 18.3052L12.2501 18.4477C12.3549 18.519 12.7511 18.8539 13.1172 19.1888ZM11.0245 21.0419L11.6895 21.6405L11.0691 22.1965C10.7252 22.503 10.3965 22.7809 10.3442 22.8092C10.2546 22.8591 10.2397 22.6525 10.2397 21.6474C10.2397 20.9845 10.2622 20.4358 10.2996 20.4358C10.3293 20.4434 10.6508 20.7139 11.0245 21.0419ZM13.8871 22.2609L13.8646 22.8809L13.192 22.2823C12.8259 21.9543 12.5193 21.6623 12.5193 21.6408C12.5193 21.6125 12.8259 21.3274 13.192 20.9994L13.8646 20.4005L13.8871 21.0278C13.8944 21.3699 13.8944 21.9256 13.8871 22.2609ZM13.0425 22.8238L13.7899 23.4939L13.147 24.0641C12.7958 24.3707 12.4072 24.7056 12.2875 24.8052L12.0632 24.9834L11.2487 24.2707C10.7927 23.8714 10.4266 23.5223 10.4266 23.4867C10.4266 23.4583 10.7927 23.1089 11.2411 22.7169C11.884 22.1539 12.0781 22.0256 12.1754 22.0754C12.2428 22.1183 12.6314 22.446 13.0425 22.8238ZM11.6598 25.3398C11.6598 25.3754 10.5612 26.3591 10.3743 26.4802C10.2474 26.5729 10.2397 26.5231 10.2397 25.3183V24.0569L10.9498 24.6841C11.3383 25.026 11.6598 25.3183 11.6598 25.3398ZM13.902 25.3612V26.5801L13.6629 26.3878C13.5283 26.2809 13.2072 25.9958 12.9456 25.7605L12.4671 25.3329L13.1321 24.7412C13.4909 24.4132 13.8124 24.1496 13.8497 24.1427C13.8795 24.1423 13.902 24.6911 13.902 25.3612ZM12.9677 26.4514L13.7899 27.1925L13.2293 27.6842C12.9228 27.9551 12.5342 28.2973 12.3698 28.4326L12.0709 28.6893L11.2338 27.9696C10.7782 27.5704 10.3968 27.2213 10.3968 27.1998C10.3892 27.1427 12.0186 25.7103 12.0934 25.7103C12.1231 25.7176 12.5117 26.0452 12.9677 26.4514ZM11.6598 29.0245C11.6598 29.0602 10.7629 29.8656 10.4864 30.0936L10.2397 30.286V29.0245V27.7631L10.9498 28.3831C11.3383 28.7253 11.6598 29.0173 11.6598 29.0245ZM13.8871 29.6231L13.8646 30.2718L13.1695 29.6518L12.4671 29.0387L13.1695 28.4187L13.8646 27.7987L13.8871 28.3903C13.8944 28.718 13.8944 29.274 13.8871 29.6231Z" fill="#414042"/>
<path d="M6.49 36.0866V41.9666H7.44V45.3066H5.98V43.2266H1.51V45.3066H0.05V41.9666H0.6C0.853333 41.4666 1.09 40.9332 1.31 40.3666C1.53 39.7932 1.72667 39.1566 1.9 38.4566C2.08 37.7566 2.22333 36.9666 2.33 36.0866H6.49ZM4.98 37.3466H3.53C3.47 37.8066 3.37333 38.3066 3.24 38.8466C3.11333 39.3799 2.96 39.9166 2.78 40.4566C2.6 40.9899 2.40333 41.4932 2.19 41.9666H4.98V37.3466ZM13.3767 40.4866C13.3767 41.3932 13.1367 42.0932 12.6567 42.5866C12.1834 43.0799 11.5367 43.3266 10.7167 43.3266C10.2101 43.3266 9.75672 43.2166 9.35672 42.9966C8.96339 42.7766 8.65339 42.4566 8.42672 42.0366C8.20005 41.6099 8.08672 41.0932 8.08672 40.4866C8.08672 39.5799 8.32339 38.8832 8.79672 38.3966C9.27005 37.9099 9.92005 37.6666 10.7467 37.6666C11.2601 37.6666 11.7134 37.7766 12.1067 37.9966C12.5001 38.2166 12.8101 38.5366 13.0367 38.9566C13.2634 39.3699 13.3767 39.8799 13.3767 40.4866ZM9.60672 40.4866C9.60672 41.0266 9.69339 41.4366 9.86672 41.7166C10.0467 41.9899 10.3367 42.1266 10.7367 42.1266C11.1301 42.1266 11.4134 41.9899 11.5867 41.7166C11.7667 41.4366 11.8567 41.0266 11.8567 40.4866C11.8567 39.9466 11.7667 39.5432 11.5867 39.2766C11.4134 39.0032 11.1267 38.8666 10.7267 38.8666C10.3334 38.8666 10.0467 39.0032 9.86672 39.2766C9.69339 39.5432 9.60672 39.9466 9.60672 40.4866ZM19.5681 37.7666V43.2266H18.0781V38.8866H16.0981V43.2266H14.6081V37.7666H19.5681ZM20.3516 37.7666H21.9816L23.0116 40.8366C23.0649 40.9832 23.1049 41.1366 23.1316 41.2966C23.1582 41.4499 23.1782 41.6132 23.1916 41.7866H23.2216C23.2416 41.6132 23.2682 41.4499 23.3016 41.2966C23.3416 41.1366 23.3849 40.9832 23.4316 40.8366L24.4416 37.7666H26.0416L23.7316 43.9266C23.5249 44.4932 23.2216 44.9166 22.8216 45.1966C22.4282 45.4832 21.9716 45.6266 21.4516 45.6266C21.2849 45.6266 21.1382 45.6166 21.0116 45.5966C20.8916 45.5832 20.7849 45.5666 20.6916 45.5466V44.3666C20.7649 44.3799 20.8516 44.3932 20.9516 44.4066C21.0582 44.4199 21.1682 44.4266 21.2816 44.4266C21.5949 44.4266 21.8416 44.3299 22.0216 44.1366C22.2082 43.9499 22.3449 43.7232 22.4316 43.4566L22.5216 43.1866L20.3516 37.7666ZM29.0449 43.3266C28.2316 43.3266 27.6016 43.1032 27.1549 42.6566C26.7149 42.2032 26.4949 41.4932 26.4949 40.5266C26.4949 39.8599 26.6083 39.3166 26.8349 38.8966C27.0616 38.4766 27.3749 38.1666 27.7749 37.9666C28.1816 37.7666 28.6483 37.6666 29.1749 37.6666C29.5483 37.6666 29.8716 37.7032 30.1449 37.7766C30.4249 37.8499 30.6683 37.9366 30.8749 38.0366L30.4349 39.1866C30.2016 39.0932 29.9816 39.0166 29.7749 38.9566C29.5749 38.8966 29.3749 38.8666 29.1749 38.8666C28.4016 38.8666 28.0149 39.4166 28.0149 40.5166C28.0149 41.0632 28.1149 41.4666 28.3149 41.7266C28.5216 41.9866 28.8083 42.1166 29.1749 42.1166C29.4883 42.1166 29.7649 42.0766 30.0049 41.9966C30.2449 41.9099 30.4783 41.7932 30.7049 41.6466V42.9166C30.4783 43.0632 30.2383 43.1666 29.9849 43.2266C29.7383 43.2932 29.4249 43.3266 29.0449 43.3266ZM35.5416 37.7666H37.1816L35.0216 40.3866L37.3716 43.2266H35.6816L33.4516 40.4566V43.2266H31.9616V37.7666H33.4516V40.4166L35.5416 37.7666ZM44.0863 37.2466C43.5063 37.2466 43.0629 37.4632 42.7563 37.8966C42.4496 38.3299 42.2963 38.9232 42.2963 39.6766C42.2963 40.4366 42.4363 41.0266 42.7163 41.4466C43.0029 41.8599 43.4596 42.0666 44.0863 42.0666C44.3796 42.0666 44.6696 42.0332 44.9563 41.9666C45.2496 41.8999 45.5663 41.8066 45.9063 41.6866V42.9566C45.5929 43.0832 45.2829 43.1766 44.9763 43.2366C44.6696 43.2966 44.3263 43.3266 43.9463 43.3266C43.2129 43.3266 42.6063 43.1766 42.1263 42.8766C41.6529 42.5699 41.3029 42.1432 41.0763 41.5966C40.8496 41.0432 40.7363 40.3999 40.7363 39.6666C40.7363 38.9466 40.8663 38.3099 41.1263 37.7566C41.3863 37.2032 41.7629 36.7699 42.2563 36.4566C42.7563 36.1432 43.3663 35.9866 44.0863 35.9866C44.4396 35.9866 44.7929 36.0332 45.1463 36.1266C45.5063 36.2132 45.8496 36.3332 46.1763 36.4866L45.6863 37.7166C45.4196 37.5899 45.1496 37.4799 44.8763 37.3866C44.6096 37.2932 44.3463 37.2466 44.0863 37.2466ZM49.7034 36.0866C50.6234 36.0866 51.2934 36.2866 51.7134 36.6866C52.1401 37.0799 52.3534 37.6232 52.3534 38.3166C52.3534 38.7299 52.2668 39.1199 52.0934 39.4866C51.9201 39.8466 51.6301 40.1366 51.2234 40.3566C50.8234 40.5766 50.2768 40.6866 49.5834 40.6866H48.9334V43.2266H47.4234V36.0866H49.7034ZM49.6234 37.3266H48.9334V39.4466H49.4334C49.8601 39.4466 50.1968 39.3632 50.4434 39.1966C50.6968 39.0232 50.8234 38.7466 50.8234 38.3666C50.8234 37.6732 50.4234 37.3266 49.6234 37.3266ZM60.1827 39.6466C60.1827 40.3866 60.0594 41.0332 59.8127 41.5866C59.5727 42.1332 59.2027 42.5599 58.7027 42.8666C58.2027 43.1732 57.5627 43.3266 56.7827 43.3266C56.0094 43.3266 55.3694 43.1732 54.8627 42.8666C54.3627 42.5599 53.9894 42.1299 53.7427 41.5766C53.5027 41.0232 53.3827 40.3766 53.3827 39.6366C53.3827 38.8966 53.5027 38.2532 53.7427 37.7066C53.9894 37.1599 54.3627 36.7366 54.8627 36.4366C55.3694 36.1299 56.0127 35.9766 56.7927 35.9766C57.5661 35.9766 58.2027 36.1299 58.7027 36.4366C59.2027 36.7366 59.5727 37.1632 59.8127 37.7166C60.0594 38.2632 60.1827 38.9066 60.1827 39.6466ZM54.9727 39.6466C54.9727 40.3932 55.1161 40.9832 55.4027 41.4166C55.6894 41.8432 56.1494 42.0566 56.7827 42.0566C57.4294 42.0566 57.8927 41.8432 58.1727 41.4166C58.4527 40.9832 58.5927 40.3932 58.5927 39.6466C58.5927 38.8932 58.4527 38.3032 58.1727 37.8766C57.8927 37.4499 57.4327 37.2366 56.7927 37.2366C56.1527 37.2366 55.6894 37.4499 55.4027 37.8766C55.1161 38.3032 54.9727 38.8932 54.9727 39.6466Z" fill="#414042"/>
<path d="M68.9014 43.2266H64.0283V42.2598L66.3281 39.8086C66.6439 39.4635 66.8766 39.1624 67.0264 38.9053C67.1794 38.6481 67.2559 38.404 67.2559 38.1729C67.2559 37.8571 67.1761 37.6097 67.0166 37.4307C66.8571 37.2484 66.6292 37.1572 66.333 37.1572C66.014 37.1572 65.7617 37.2679 65.5762 37.4893C65.3939 37.7074 65.3027 37.9954 65.3027 38.3535H63.8867C63.8867 37.9206 63.9893 37.5251 64.1943 37.167C64.4027 36.8089 64.6956 36.529 65.0732 36.3271C65.4508 36.1221 65.8789 36.0195 66.3574 36.0195C67.0898 36.0195 67.6579 36.1953 68.0615 36.5469C68.4684 36.8984 68.6719 37.3949 68.6719 38.0361C68.6719 38.3877 68.5807 38.7458 68.3984 39.1104C68.2161 39.4749 67.9036 39.8997 67.4609 40.3848L65.8447 42.0889H68.9014V43.2266ZM73.9453 40.5508H74.751V41.6885H73.9453V43.2266H72.5342V41.6885H69.6191L69.5557 40.7998L72.5195 36.1172H73.9453V40.5508ZM70.9619 40.5508H72.5342V38.041L72.4414 38.2021L70.9619 40.5508Z" fill="#17529F"/>
</svg>
