<svg width="22" height="14" viewBox="0 0 22 14" fill="none" xmlns="http://www.w3.org/2000/svg">
<path d="M21.0869 0H15.6395H5.44745H0.878621C0.351448 0 0 0.358974 0 0.897436V13.1026C0 13.641 0.351448 14 0.878621 14H21.0869C21.6141 14 21.9655 13.641 21.9655 13.1026V0.897436C22.1413 0.358974 21.6141 0 21.0869 0ZM21.2626 1.79487L16.6938 6.46154L21.2626 13.1026H20.384L15.8152 7.35898L11.0706 11.1282L6.5018 7.35898L1.93297 12.9231H0.878621L5.44745 6.28205L0.878621 1.79487V0.897436L10.8949 9.33333L21.0869 0.897436V1.79487H21.2626Z" fill="#17529F"/>
</svg>
