<svg width="30" height="40" viewBox="0 0 30 40" fill="none" xmlns="http://www.w3.org/2000/svg">
<path d="M17.1141 16.9805C16.8322 16.7373 16.5101 16.5752 16.1476 16.4536C15.7852 16.3726 15.3825 16.332 14.8993 16.332H13.047C12.7248 16.332 12.5235 16.4131 12.3624 16.5347C12.2416 16.6562 12.1611 16.8994 12.1611 17.2236V22.4516C12.1611 22.6947 12.1611 22.8569 12.2416 23.019C12.2819 23.1811 12.3624 23.2621 12.4832 23.3432C12.604 23.4242 12.8054 23.4648 13.0872 23.4648H14.9396C15.2617 23.4648 15.5436 23.4242 15.8255 23.3837C16.0671 23.3432 16.3087 23.2621 16.5503 23.1811C16.7919 23.0595 16.9933 22.9379 17.1544 22.7758C17.396 22.5326 17.5973 22.2895 17.7584 22.0058C17.9195 21.7221 18.0403 21.3979 18.1208 21.0331C18.2013 20.6684 18.2416 20.3037 18.2416 19.8579C18.2416 18.6015 17.8792 17.6289 17.1141 16.9805ZM16.0671 22.0058C15.9463 22.0868 15.8255 22.1679 15.7047 22.2084C15.5436 22.249 15.4228 22.2895 15.302 22.2895C15.1812 22.2895 14.9799 22.2895 14.7383 22.2895H13.651V17.4263H14.6174C15.0604 17.4263 15.4228 17.4668 15.745 17.5884C16.0671 17.6694 16.3087 17.9126 16.5101 18.2773C16.7114 18.6421 16.8322 19.1689 16.8322 19.8579C16.7919 20.9116 16.5503 21.6005 16.0671 22.0058Z" fill="#666666"/>
<path d="M29.9195 7.98379L29.8792 7.94326V7.90274L22.2282 0.202634L22.1879 0.162107C22.1879 0.162107 22.1477 0.162107 22.1477 0.121581C22.1477 0.121581 22.1074 0.121581 22.1074 0.0810537C21.9866 0 21.8658 0 21.7047 0H2.73825C2.01342 0 1.32886 0.283688 0.845637 0.77001L0.805369 0.810537C0.322148 1.29686 0 2.02634 0 2.75583V37.2442C0 38.0142 0.322148 38.7031 0.805369 39.1895C1.28859 39.6758 2.01342 40 2.73825 40H27.2617C28.0268 40 28.7114 39.6758 29.1946 39.1895C29.6779 38.7031 30 37.9737 30 37.2442V8.38906C30 8.22695 29.9597 8.10537 29.9195 7.98379ZM22.4698 2.91793L27.0201 7.49747H23.6779C23.3557 7.49747 23.0336 7.37589 22.8322 7.13273C22.6309 6.93009 22.4698 6.60588 22.4698 6.28166V2.91793ZM28.2685 37.2442C28.2685 37.5279 28.1477 37.771 27.9463 37.9737C27.745 38.1763 27.5034 38.2979 27.2215 38.2979H2.73825C2.45638 38.2979 2.21477 38.1763 2.01342 38.0142C1.81208 37.8116 1.73154 37.5684 1.73154 37.2847V2.7153C1.73154 2.43161 1.85235 2.18845 2.05369 1.98582L2.09396 1.94529C2.2953 1.78318 2.53691 1.6616 2.77852 1.6616H20.8188V6.24113C20.8188 7.05167 21.1409 7.78116 21.7047 8.34853C22.2282 8.87538 22.9933 9.1996 23.7987 9.1996H28.2685V37.2442Z" fill="#666666"/>
<path d="M10.3087 16.8999C10.1074 16.6973 9.86579 16.5757 9.54364 16.4946C9.26177 16.4136 8.81881 16.373 8.29532 16.373H6.44297C6.12083 16.373 5.87922 16.4541 5.75841 16.5757C5.59734 16.6973 5.55707 16.9404 5.55707 17.2646V22.7763C5.55707 23.06 5.6376 23.2626 5.75841 23.4247C5.87922 23.5868 6.08056 23.6274 6.2819 23.6274C6.48324 23.6274 6.64432 23.5463 6.80539 23.3842C6.9262 23.2221 7.00673 23.0194 7.00673 22.7358V20.7094H8.33559C9.2215 20.7094 9.86579 20.5068 10.3087 20.142C10.7517 19.7773 10.9933 19.2099 10.9933 18.4804C10.9933 18.1562 10.953 17.832 10.8322 17.5483C10.6712 17.3052 10.5101 17.062 10.3087 16.8999ZM9.3423 19.1694C9.2215 19.3315 9.06042 19.4531 8.81881 19.5341C8.5772 19.6152 8.29532 19.6557 7.97317 19.6557H7.00673V17.4673H7.97317C8.61747 17.4673 9.02015 17.5889 9.26176 17.7915C9.46311 17.9941 9.54364 18.2373 9.54364 18.5615C9.50338 18.8047 9.46311 19.0073 9.3423 19.1694Z" fill="#666666"/>
<path d="M20.3758 16.292C20.1342 16.3325 19.9732 16.373 19.8523 16.4541C19.7315 16.4946 19.6107 16.6162 19.5705 16.7378C19.4899 16.8594 19.4899 17.0215 19.4899 17.2646V22.7358C19.4899 23.0195 19.5705 23.2626 19.6913 23.3842C19.8121 23.5463 20.0134 23.5868 20.2148 23.5868C20.4161 23.5868 20.5772 23.5058 20.7383 23.3842C20.8591 23.2221 20.9396 23.0195 20.9396 22.7358V20.3852H23.3154C23.5168 20.3852 23.6778 20.3447 23.7987 20.2231C23.9195 20.142 23.9597 19.9799 23.9597 19.8178C23.9597 19.6557 23.9195 19.5341 23.7987 19.4126C23.6778 19.3315 23.5168 19.2505 23.3154 19.2505H20.9396V17.4267H23.7584C24 17.4267 24.1611 17.3862 24.2819 17.2646C24.4027 17.1431 24.443 17.0215 24.443 16.8594C24.443 16.6973 24.4027 16.5757 24.2819 16.4541C24.1611 16.3325 24 16.292 23.7584 16.292H20.3758Z" fill="#666666"/>
</svg>
