<svg width="19" height="22" viewBox="0 0 19 22" fill="none" xmlns="http://www.w3.org/2000/svg">
<path d="M18.8569 19.3932C19.3862 18.3167 18.3277 17.0609 17.6219 16.3433C17.0927 15.6257 16.0341 14.5492 15.3284 14.3698C14.7991 14.3698 14.2698 14.7286 13.7405 15.0874L17.9748 20.4696C18.5041 20.1108 18.6805 19.752 18.8569 19.3932ZM7.74188 4.50248C7.91831 3.60545 7.03617 2.52902 6.50688 1.81139C5.97759 1.09377 5.09545 -0.162071 3.86044 0.0173351C3.33115 0.0173351 2.97829 0.19674 2.449 0.555552L6.68331 5.93773C7.2126 5.39951 7.74188 5.0407 7.74188 4.50248ZM13.0348 15.4462C12.8583 15.4462 12.8583 15.6256 12.6819 15.6256C12.1526 15.8051 10.9176 15.8051 10.2119 15.2668C9.50618 14.7286 8.4476 13.4728 7.56546 12.3963C6.68331 11.3199 5.97759 10.0641 5.4483 9.16704C4.91901 8.27001 5.27187 7.19357 5.62473 6.83476C5.62473 6.65535 5.80116 6.65535 5.80116 6.47595L1.56685 0.914365L1.39042 1.09377C0.508275 1.81139 -0.5503 3.42604 0.331848 6.65535C1.03757 8.98763 2.449 11.6787 4.56615 14.3698C4.74258 14.5492 4.74258 14.5492 4.91901 14.7286C5.09544 14.908 5.09544 14.908 5.27187 15.0874C7.38903 17.7785 9.68261 19.752 11.6233 21.0078C14.4462 22.6225 16.3869 21.9049 17.2691 21.3666C17.4455 21.3666 17.4455 21.1872 17.6219 21.1872L13.0348 15.4462Z" fill="#17529F"/>
</svg>
