<svg width="25" height="26" viewBox="0 0 25 26" fill="none" xmlns="http://www.w3.org/2000/svg">
<path d="M12 1C7.55556 1 4 4.55556 4 9.17778C4 10.4222 4.17777 11.4889 4.71111 12.3778L12.1778 25L19.2889 12.3778C19.6444 11.3111 20 10.2444 20 9.17778C20 4.55556 16.4444 1 12 1ZM12 14.8667C8.8 14.8667 6.13333 12.2 6.13333 9C6.13333 5.8 8.8 3.13333 12 3.13333C15.2 3.13333 17.8667 5.8 17.8667 9C17.8667 12.2 15.2 14.8667 12 14.8667ZM15.3778 9C15.3778 10.7778 13.7778 12.3778 12 12.3778C10.0444 12.3778 8.62222 10.9556 8.62222 9C8.62222 7.22222 10.2222 5.62222 12 5.62222C13.9556 5.62222 15.3778 7.04444 15.3778 9Z" fill="#17529F"/>
</svg>
