<svg width="121" height="70" viewBox="0 0 121 70" fill="none" xmlns="http://www.w3.org/2000/svg">
<path d="M3.64148 44.8739V45.9131H8.63304H13.6246V44.8739V43.8347H8.63304H3.64148V44.8739Z" fill="#414042"/>
<path d="M3.64148 47.7176V48.7568H8.63304H13.6246V47.7176V46.6784H8.63304H3.64148V47.7176Z" fill="#414042"/>
<path d="M0.892836 49.8387C0.810737 49.948 0 51.9277 0 51.9936C0 52.0153 6.57712 52.0371 14.6223 52.0371C22.6676 52.0371 29.2447 52.0042 29.2333 51.9495C29.2333 51.9059 29.0337 51.4025 28.7988 50.8338L28.3524 49.7946L14.6577 49.7617C6.70654 49.751 0.928185 49.7834 0.892836 49.8387Z" fill="#17529F"/>
<path d="M14.9752 0.189042C14.7871 0.298433 11.722 1.65468 8.16323 3.20846C4.6164 4.75109 1.62146 6.08556 1.51542 6.16202C1.42134 6.24964 1.11632 6.31496 0.846075 6.31496H0.352905V7.90113V9.48731H1.2218H2.10266L2.22011 10.056C2.29081 10.3731 3.66484 17.3306 5.28574 25.5131C6.90665 33.6957 8.2573 40.5215 8.29265 40.6856L8.36335 40.992H6.00241H3.64146V42.0859V43.1798H8.63302H13.6246V42.0859V40.992H11.2403H8.86792L7.29434 25.8084C6.43685 17.4617 5.69681 10.3731 5.66203 10.056L5.60331 9.48731H9.91355H14.2124V7.90113V6.31496L9.8668 6.29319L5.50924 6.26026L10.3246 3.49256C12.9672 1.98285 15.1634 0.735997 15.1987 0.735997C15.2341 0.735997 15.2694 11.544 15.2694 24.7474V48.7588H15.6805H16.0916V48.1678V47.5879L17.501 46.3516C18.2763 45.6841 18.9571 45.1483 19.0158 45.1701C19.0745 45.1813 19.7325 45.7171 20.4719 46.3516L21.8226 47.5003L21.8346 48.1237L21.8466 48.7583H22.2576H22.6687V24.6815V0.593687L23.0564 0.670157C23.5729 0.768397 44.3265 6.21619 44.3853 6.27088C44.4086 6.29266 39.746 6.31443 34.0264 6.31443H23.6077V7.9006V9.48677H34.3542H45.1008V12.8779V16.269H44.5956C44.0671 16.269 43.8088 16.4114 43.8088 16.7066C43.8088 16.8048 44.4434 17.5929 45.2182 18.4569L46.6276 20.0319V20.6665C46.6276 21.4869 46.8038 21.8698 47.5552 22.6573C48.2599 23.423 48.3306 23.817 47.8489 24.3528C47.297 24.9656 46.5449 24.7139 46.2633 23.817C46.1225 23.3795 46.1105 23.3795 45.5352 23.3795H44.948L45.0301 23.8282C45.2416 25.0533 46.005 25.7096 47.2143 25.7096C48.4002 25.7096 49.2109 25.0421 49.305 23.9811C49.3757 23.1936 49.1995 22.756 48.4595 21.9685C47.8722 21.334 47.8135 21.2357 47.7782 20.667L47.7428 20.0436L49.1756 18.4245C49.9743 17.5276 50.6203 16.7836 50.6203 16.7507C50.6203 16.7178 50.5616 16.5977 50.5028 16.4772C50.4088 16.3131 50.2446 16.2696 49.7982 16.2696H49.2109L49.2343 12.9002L49.2696 9.542L50.4795 9.50908L51.6773 9.47616V7.90113V6.31496H50.4555C49.6568 6.31496 49.2103 6.27141 49.187 6.19442C49.1636 6.12857 43.1971 4.70648 35.9387 3.05499L22.7257 0.0249598L19.0261 0.00318349C15.5978 -0.00796806 15.3042 0.00318267 14.9752 0.189042ZM21.846 1.30473V1.88461L20.4486 3.06615C19.6732 3.7225 19.0038 4.24768 18.9451 4.23652C18.8984 4.22537 18.229 3.68957 17.477 3.04437L16.103 1.88461V1.30473L16.091 0.735997H18.9685H21.846V1.30473ZM10.8645 2.6392C10.7351 2.71567 9.36109 3.51433 7.81089 4.40061C6.26068 5.28689 4.91002 6.08502 4.80398 6.17264C4.66315 6.28203 4.32221 6.31496 3.46529 6.29319L2.31418 6.26026L6.58908 4.37884C10.6884 2.5845 11.3697 2.29987 10.8645 2.6392ZM18.2638 4.78348C18.3106 4.84933 17.477 5.63684 16.4787 6.47905L16.091 6.79607V4.8488V2.90153L17.148 3.79843C17.7353 4.29122 18.2285 4.7394 18.2638 4.78348ZM21.8226 5.75685L21.7873 6.74137L20.6835 5.80039L19.5911 4.8488L20.6835 3.8972L21.7873 2.9456L21.8226 3.86427C21.834 4.36769 21.834 5.20989 21.8226 5.75685ZM42.8812 5.11165C45.5472 5.72446 47.7554 6.23849 47.7907 6.26026C47.8141 6.29319 47.3796 6.31496 46.8044 6.31496C46.1111 6.31496 45.7 6.27141 45.5826 6.17264C45.4771 6.08502 43.7268 5.59276 41.6948 5.05696C38.3828 4.2036 37.7369 4.01774 37.9598 4.01774C37.9951 4.01774 40.2153 4.51 42.8812 5.11165ZM20.3659 6.56667L21.6459 7.6935L20.3893 8.77626C19.6966 9.37792 19.0854 9.89195 19.0152 9.9031C18.9565 9.92487 18.3225 9.43261 17.6059 8.82034L16.2906 7.68288L17.5705 6.5672C18.2752 5.95439 18.9092 5.45151 18.9679 5.44036C19.0392 5.43983 19.6612 5.94271 20.3659 6.56667ZM17.6412 9.91372C18.428 10.6136 18.4867 10.4495 17.0066 11.6969L16.0904 12.4626V10.5154V8.5681L16.5369 8.93982C16.7723 9.14798 17.2769 9.58555 17.6412 9.91372ZM21.846 10.5371V12.4626L20.7182 11.4999L19.5791 10.5265L20.6829 9.57493C21.2935 9.04974 21.7987 8.61218 21.822 8.61218C21.834 8.61218 21.846 9.47615 21.846 10.5371ZM5.25039 10.8547C5.81426 16.029 7.75216 35.0196 7.72878 35.096C7.70541 35.1507 6.5543 29.4512 5.15689 22.4284C3.75891 15.3944 2.64315 9.60732 2.66653 9.56378C2.70188 9.5197 3.25377 9.49793 3.91171 9.50908L5.10957 9.542L5.25039 10.8547ZM48.7417 12.8784V16.2696H47.2149H45.688V12.8784V9.48731H47.2149H48.7417V12.8784ZM20.8944 12.7032L21.6459 13.3707L20.3659 14.4864C19.6612 15.0992 19.0386 15.6132 18.9919 15.6132C18.9331 15.6132 18.3106 15.1098 17.5945 14.4864L16.3025 13.3707L17.6298 12.2003L18.9685 11.0406L19.5557 11.544C19.8727 11.8174 20.4834 12.3421 20.8944 12.7032ZM17.5118 15.4491C17.9696 15.8432 18.3106 16.2037 18.2752 16.2584C18.2399 16.3131 17.7347 16.7618 17.1475 17.2541L16.0904 18.151V16.2149V14.2894L16.396 14.5082C16.5608 14.6287 17.0659 15.0551 17.5118 15.4491ZM21.846 16.2255V18.1398L20.7182 17.1771L19.6025 16.2143L20.6949 15.2627C21.2941 14.7376 21.7987 14.3 21.8226 14.3C21.834 14.3005 21.846 15.1645 21.846 16.2255ZM20.7302 18.2168L21.6698 19.0267L20.3779 20.1641C19.6732 20.7875 19.0506 21.2909 19.0038 21.3016C18.9685 21.3016 18.3459 20.7982 17.6178 20.1747L16.3025 19.059L17.6298 17.8887L18.9571 16.7294L19.3801 17.0688C19.6025 17.2429 20.2137 17.7681 20.7302 18.2168ZM17.3829 21.0169C17.8647 21.4216 18.2758 21.8044 18.2991 21.8485C18.3111 21.8921 17.8294 22.3519 17.2068 22.8766L16.091 23.8393V21.9032C16.091 19.6719 15.9382 19.7807 17.3829 21.0169ZM21.7992 23.6864C21.7639 23.7082 21.2587 23.3253 20.6715 22.8224L19.6025 21.9038L20.6949 20.941L21.7873 19.9783L21.8226 21.805C21.834 22.8113 21.8226 23.6535 21.7992 23.6864ZM20.6595 23.8287L21.6698 24.7039L20.3779 25.8413C19.6732 26.4647 19.0626 26.9788 19.0272 26.9899C18.9217 26.9899 16.3846 24.8132 16.3846 24.7256C16.3846 24.6709 16.9599 24.1351 17.6766 23.5223L18.9565 22.4173L19.3089 22.6907C19.509 22.8442 20.1076 23.3582 20.6595 23.8287ZM17.3356 26.64L18.3807 27.548L17.3236 28.4667C16.7484 28.9701 16.2313 29.3854 16.1845 29.3965C16.1258 29.3965 16.0904 28.5543 16.0904 27.5257C16.0904 26.4971 16.1372 25.6772 16.1959 25.699C16.2438 25.7101 16.7603 26.1366 17.3356 26.64ZM21.8226 28.4885L21.7873 29.4289L20.7302 28.5209C20.1549 28.0175 19.6732 27.5799 19.6732 27.5363C19.6732 27.5034 20.1549 27.0659 20.7302 26.5736L21.7873 25.6655L21.8226 26.5954C21.834 27.1211 21.834 27.9633 21.8226 28.4885ZM20.6128 29.4512L21.6698 30.381L20.6128 31.3109C20.0375 31.8249 19.4149 32.3395 19.2501 32.4489L18.9565 32.6676L17.6646 31.5737C16.9599 30.9609 16.3846 30.4363 16.3846 30.381C16.3846 30.3264 16.9599 29.8012 17.6646 29.1889L18.9565 28.095L19.2501 28.3138C19.4149 28.4232 20.0375 28.9372 20.6128 29.4512ZM17.3242 32.2954L18.3693 33.2141L17.3943 34.0674C16.8538 34.5379 16.3373 34.9643 16.2552 35.0079C16.1144 35.0843 16.091 34.7673 16.091 33.2247C16.091 32.2072 16.1264 31.365 16.1851 31.365C16.2318 31.3767 16.737 31.792 17.3242 32.2954ZM21.8226 34.1662L21.7873 35.1178L20.7302 34.1991C20.1549 33.6957 19.6732 33.2475 19.6732 33.2146C19.6732 33.1711 20.1549 32.7335 20.7302 32.2301L21.7873 31.3109L21.8226 32.2736C21.834 32.7988 21.834 33.6516 21.8226 34.1662ZM20.4953 35.0302L21.6698 36.0588L20.6595 36.9339C20.1076 37.4044 19.497 37.9184 19.3089 38.0714L18.9565 38.3448L17.6766 37.2509C16.9599 36.6381 16.3846 36.1023 16.3846 36.0476C16.3846 36.0041 16.9599 35.4677 17.6646 34.8661C18.6749 34.0021 18.9799 33.8051 19.1327 33.8816C19.2387 33.9474 19.8494 34.4503 20.4953 35.0302ZM18.3225 38.8918C18.3225 38.9465 16.5961 40.4562 16.3025 40.6421C16.103 40.7844 16.091 40.7079 16.091 38.8589V36.9228L17.2068 37.8855C17.8174 38.4102 18.3225 38.8589 18.3225 38.8918ZM21.846 38.9247V40.7955L21.4703 40.5003C21.2587 40.3362 20.7542 39.8986 20.3431 39.5375L19.5911 38.8812L20.6361 37.9731C21.2 37.4697 21.7052 37.0651 21.7639 37.0544C21.8106 37.0539 21.846 37.8961 21.846 38.9247ZM20.3779 40.598L21.6698 41.7354L20.7889 42.49C20.3072 42.9058 19.6966 43.431 19.4383 43.6386L18.9685 44.0327L17.6532 42.9281C16.9371 42.3153 16.3379 41.7795 16.3379 41.7466C16.3259 41.659 18.8864 39.4605 19.0038 39.4605C19.0506 39.4717 19.6612 39.9746 20.3779 40.598ZM18.3225 44.5472C18.3225 44.6019 16.9131 45.8381 16.4787 46.1881L16.091 46.4833V44.5472V42.6111L17.2068 43.5627C17.8174 44.0879 18.3225 44.5361 18.3225 44.5472ZM21.8226 45.4659L21.7873 46.4616L20.6949 45.51L19.5911 44.569L20.6949 43.6174L21.7873 42.6658L21.8226 43.5739C21.834 44.0767 21.834 44.9301 21.8226 45.4659Z" fill="#414042"/>
<path d="M10.384 54.575V63.983H11.904V69.327H9.568V65.999H2.416V69.327H0.08V63.983H0.96C1.36533 63.183 1.744 62.3297 2.096 61.423C2.448 60.5057 2.76267 59.487 3.04 58.367C3.328 57.247 3.55733 55.983 3.728 54.575H10.384ZM7.968 56.591H5.648C5.552 57.327 5.39733 58.127 5.184 58.991C4.98133 59.8444 4.736 60.703 4.448 61.567C4.16 62.4204 3.84533 63.2257 3.504 63.983H7.968V56.591ZM21.4028 61.615C21.4028 63.0657 21.0188 64.1857 20.2508 64.975C19.4934 65.7644 18.4588 66.159 17.1468 66.159C16.3361 66.159 15.6108 65.983 14.9708 65.631C14.3414 65.279 13.8454 64.767 13.4828 64.095C13.1201 63.4124 12.9388 62.5857 12.9388 61.615C12.9388 60.1644 13.3174 59.0497 14.0748 58.271C14.8321 57.4924 15.8721 57.103 17.1948 57.103C18.0161 57.103 18.7414 57.279 19.3708 57.631C20.0001 57.983 20.4961 58.495 20.8588 59.167C21.2214 59.8284 21.4028 60.6444 21.4028 61.615ZM15.3708 61.615C15.3708 62.479 15.5094 63.135 15.7868 63.583C16.0748 64.0204 16.5388 64.239 17.1788 64.239C17.8081 64.239 18.2614 64.0204 18.5388 63.583C18.8268 63.135 18.9708 62.479 18.9708 61.615C18.9708 60.751 18.8268 60.1057 18.5388 59.679C18.2614 59.2417 17.8028 59.023 17.1628 59.023C16.5334 59.023 16.0748 59.2417 15.7868 59.679C15.5094 60.1057 15.3708 60.751 15.3708 61.615ZM31.309 57.263V65.999H28.925V59.055H25.757V65.999H23.373V57.263H31.309ZM32.5625 57.263H35.1705L36.8185 62.175C36.9038 62.4097 36.9678 62.655 37.0105 62.911C37.0532 63.1564 37.0852 63.4177 37.1065 63.695H37.1545C37.1865 63.4177 37.2292 63.1564 37.2825 62.911C37.3465 62.655 37.4158 62.4097 37.4905 62.175L39.1065 57.263H41.6665L37.9705 67.119C37.6398 68.0257 37.1545 68.703 36.5145 69.151C35.8852 69.6097 35.1545 69.839 34.3225 69.839C34.0558 69.839 33.8212 69.823 33.6185 69.791C33.4265 69.7697 33.2558 69.743 33.1065 69.711V67.823C33.2238 67.8444 33.3625 67.8657 33.5225 67.887C33.6932 67.9084 33.8692 67.919 34.0505 67.919C34.5518 67.919 34.9465 67.7644 35.2345 67.455C35.5332 67.1564 35.7518 66.7937 35.8905 66.367L36.0345 65.935L32.5625 57.263ZM46.4719 66.159C45.1705 66.159 44.1625 65.8017 43.4479 65.087C42.7439 64.3617 42.3919 63.2257 42.3919 61.679C42.3919 60.6124 42.5732 59.743 42.9359 59.071C43.2985 58.399 43.7999 57.903 44.4399 57.583C45.0905 57.263 45.8372 57.103 46.6799 57.103C47.2772 57.103 47.7945 57.1617 48.2319 57.279C48.6799 57.3964 49.0692 57.535 49.3999 57.695L48.6959 59.535C48.3225 59.3857 47.9705 59.263 47.6399 59.167C47.3199 59.071 46.9999 59.023 46.6799 59.023C45.4425 59.023 44.8239 59.903 44.8239 61.663C44.8239 62.5377 44.9839 63.183 45.3039 63.599C45.6345 64.015 46.0932 64.223 46.6799 64.223C47.1812 64.223 47.6239 64.159 48.0079 64.031C48.3919 63.8924 48.7652 63.7057 49.1279 63.471V65.503C48.7652 65.7377 48.3812 65.903 47.9759 65.999C47.5812 66.1057 47.0799 66.159 46.4719 66.159ZM56.8666 57.263H59.4906L56.0346 61.455L59.7946 65.999H57.0906L53.5226 61.567V65.999H51.1386V57.263H53.5226V61.503L56.8666 57.263ZM70.538 56.431C69.61 56.431 68.9007 56.7777 68.41 57.471C67.9193 58.1644 67.674 59.1137 67.674 60.319C67.674 61.535 67.898 62.479 68.346 63.151C68.8047 63.8124 69.5353 64.143 70.538 64.143C71.0073 64.143 71.4713 64.0897 71.93 63.983C72.3993 63.8764 72.906 63.727 73.45 63.535V65.567C72.9487 65.7697 72.4527 65.919 71.962 66.015C71.4713 66.111 70.922 66.159 70.314 66.159C69.1407 66.159 68.17 65.919 67.402 65.439C66.6447 64.9484 66.0847 64.2657 65.722 63.391C65.3593 62.5057 65.178 61.4764 65.178 60.303C65.178 59.151 65.386 58.1324 65.802 57.247C66.218 56.3617 66.8207 55.6684 67.61 55.167C68.41 54.6657 69.386 54.415 70.538 54.415C71.1033 54.415 71.6687 54.4897 72.234 54.639C72.81 54.7777 73.3593 54.9697 73.882 55.215L73.098 57.183C72.6713 56.9804 72.2393 56.8044 71.802 56.655C71.3753 56.5057 70.954 56.431 70.538 56.431ZM79.5255 54.575C80.9975 54.575 82.0695 54.895 82.7415 55.535C83.4242 56.1644 83.7655 57.0337 83.7655 58.143C83.7655 58.8044 83.6268 59.4284 83.3495 60.015C83.0722 60.591 82.6082 61.055 81.9575 61.407C81.3175 61.759 80.4428 61.935 79.3335 61.935H78.2935V65.999H75.8775V54.575H79.5255ZM79.3975 56.559H78.2935V59.951H79.0935C79.7762 59.951 80.3148 59.8177 80.7095 59.551C81.1148 59.2737 81.3175 58.831 81.3175 58.223C81.3175 57.1137 80.6775 56.559 79.3975 56.559ZM96.2924 60.271C96.2924 61.455 96.095 62.4897 95.7004 63.375C95.3164 64.2497 94.7244 64.9324 93.9244 65.423C93.1244 65.9137 92.1004 66.159 90.8524 66.159C89.615 66.159 88.591 65.9137 87.7804 65.423C86.9804 64.9324 86.383 64.2444 85.9884 63.359C85.6044 62.4737 85.4124 61.439 85.4124 60.255C85.4124 59.071 85.6044 58.0417 85.9884 57.167C86.383 56.2924 86.9804 55.615 87.7804 55.135C88.591 54.6444 89.6204 54.399 90.8684 54.399C92.1057 54.399 93.1244 54.6444 93.9244 55.135C94.7244 55.615 95.3164 56.2977 95.7004 57.183C96.095 58.0577 96.2924 59.087 96.2924 60.271ZM87.9564 60.271C87.9564 61.4657 88.1857 62.4097 88.6444 63.103C89.103 63.7857 89.839 64.127 90.8524 64.127C91.887 64.127 92.6284 63.7857 93.0764 63.103C93.5244 62.4097 93.7484 61.4657 93.7484 60.271C93.7484 59.0657 93.5244 58.1217 93.0764 57.439C92.6284 56.7564 91.8924 56.415 90.8684 56.415C89.8444 56.415 89.103 56.7564 88.6444 57.439C88.1857 58.1217 87.9564 59.0657 87.9564 60.271Z" fill="#414042"/>
<path d="M110.242 65.999H102.445V64.4521L106.125 60.5303C106.63 59.9782 107.003 59.4964 107.242 59.085C107.487 58.6735 107.609 58.2829 107.609 57.9131C107.609 57.4079 107.482 57.012 107.227 56.7256C106.971 56.4339 106.607 56.2881 106.133 56.2881C105.622 56.2881 105.219 56.4652 104.922 56.8193C104.63 57.1683 104.484 57.6292 104.484 58.2021H102.219C102.219 57.5094 102.383 56.8766 102.711 56.3037C103.044 55.7308 103.513 55.2829 104.117 54.96C104.721 54.6318 105.406 54.4678 106.172 54.4678C107.344 54.4678 108.253 54.749 108.898 55.3115C109.549 55.874 109.875 56.6683 109.875 57.6943C109.875 58.2568 109.729 58.8298 109.438 59.4131C109.146 59.9964 108.646 60.6761 107.938 61.4521L105.352 64.1787H110.242V65.999ZM118.312 61.7178H119.602V63.5381H118.312V65.999H116.055V63.5381H111.391L111.289 62.1162L116.031 54.624H118.312V61.7178ZM113.539 61.7178H116.055V57.7021L115.906 57.96L113.539 61.7178Z" fill="#17529F"/>
</svg>
