<svg width="150" height="66" viewBox="0 0 150 66" fill="none" xmlns="http://www.w3.org/2000/svg">
<path d="M72.2857 5.88998H51.6339V26.7873H72.2857V22.5917H79.9196V25.1736C79.9196 28.1589 79.3571 30.2567 78.2321 31.3056C77.1071 32.4352 74.9375 33 71.8036 33H52.1161C48.9018 33 46.8125 32.4352 45.6875 31.3863C44.5625 30.2567 44 28.2396 44 25.1736V7.82641C44 4.84108 44.5625 2.82396 45.6875 1.69438C46.8125 0.564792 48.9821 0 52.1161 0H71.8036C75.0179 0 77.1875 0.564792 78.3125 1.69438C79.4375 2.82396 80 8.63325 80 8.63325H72.3661V5.88998H72.2857Z" fill="#CB2027"/>
<path d="M5.20277 54.6539V55.6127H3.44184V53.8549H1.6809V60.8064H3.44184V58.8089H5.20277V60.0873C5.20277 60.4868 5.12273 60.8064 4.96265 61.1261C4.80256 61.4457 4.64248 61.6854 4.40235 61.9251C4.16222 62.1648 3.92209 62.3246 3.60192 62.4844C3.28175 62.6442 2.96158 62.6442 2.56137 62.6442C2.16115 62.6442 1.84098 62.5643 1.52081 62.4844C1.20064 62.3246 0.960512 62.1648 0.720384 61.9251C0.480256 61.6854 0.320171 61.4457 0.160085 61.1261C0.0800427 60.8064 0 60.4069 0 60.0074V54.6539C0 54.2544 0.0800427 53.9348 0.160085 53.6152C0.320171 53.2955 0.480256 52.9759 0.720384 52.8161C0.960512 52.5764 1.20064 52.4166 1.52081 52.2568C1.84098 52.097 2.16115 52.0171 2.56137 52.0171C2.96158 52.0171 3.28175 52.097 3.60192 52.2568C3.92209 52.4166 4.16222 52.5764 4.40235 52.8161C4.64248 53.0558 4.80256 53.2955 4.96265 53.6152C5.12273 53.9348 5.20277 54.3343 5.20277 54.6539Z" fill="#CB2027"/>
<path d="M13.8474 66C13.6072 66 13.3671 65.9201 13.207 65.8402C12.9669 65.7603 12.8068 65.6005 12.6467 65.4407C12.4866 65.2809 12.3266 65.1211 12.2465 64.8814C12.1665 64.6416 12.0864 64.4818 12.0864 64.2421V52.1768H14.7278C15.048 52.1768 15.4482 52.2567 15.7684 52.3366C16.0886 52.4964 16.3287 52.6562 16.5688 52.8959C16.8089 53.1356 16.969 53.3753 17.1291 53.6949C17.2892 54.0145 17.3692 54.3341 17.3692 54.7337V59.9274C17.3692 60.3269 17.2892 60.6465 17.1291 60.9661C16.969 61.2857 16.8089 61.5254 16.5688 61.7651C16.3287 62.0048 16.0886 62.1646 15.7684 62.3245C15.4482 62.4843 15.128 62.5642 14.7278 62.5642H13.8474V66ZM13.8474 60.8063H15.6083V53.8547H13.8474V60.8063Z" fill="#CB2027"/>
<path d="M29.3757 60.0072C29.3757 60.4067 29.2956 60.7264 29.1356 61.046C28.9755 61.3656 28.8154 61.6053 28.5753 61.845C28.3351 62.0847 28.095 62.2445 27.7748 62.4043C27.4547 62.5641 27.1345 62.5641 26.7343 62.5641C26.3341 62.5641 26.0139 62.4842 25.6937 62.4043C25.3736 62.2445 25.1334 62.0847 24.8933 61.845C24.6532 61.6053 24.4931 61.3656 24.333 61.046C24.1729 60.7264 24.1729 60.4067 24.1729 60.0072V54.6537C24.1729 54.2542 24.253 53.9346 24.333 53.615C24.4931 53.2954 24.6532 52.9758 24.8933 52.736C25.1334 52.4963 25.3736 52.3365 25.6937 52.1767C26.0139 52.0169 26.3341 51.937 26.7343 51.937C27.1345 51.937 27.4547 52.0169 27.7748 52.1767C28.095 52.3365 28.3351 52.4963 28.5753 52.736C28.8154 52.9758 28.9755 53.2954 29.1356 53.615C29.2956 53.9346 29.3757 54.2542 29.3757 54.6537V60.0072ZM25.8538 53.9346V60.8862H27.6147V53.9346H25.8538Z" fill="#CB2027"/>
<path d="M36.1793 54.6539C36.1793 54.2544 36.2594 53.9348 36.4194 53.6152C36.5795 53.2955 36.7396 52.9759 36.9797 52.8161C37.2199 52.5764 37.46 52.4166 37.7802 52.2568C38.1003 52.097 38.4205 52.0171 38.8207 52.0171C39.2209 52.0171 39.5411 52.097 39.8613 52.2568C40.1815 52.4166 40.4216 52.5764 40.6617 52.8161C40.9018 53.0558 41.0619 53.2955 41.222 53.6152C41.3821 53.9348 41.3821 54.2544 41.3821 54.6539V60.0074C41.3821 60.4069 41.3021 60.7265 41.222 61.0462C41.0619 61.3658 40.9018 61.6055 40.6617 61.8452C40.4216 62.0849 40.1815 62.2447 39.8613 62.4045C39.5411 62.5643 39.2209 62.5643 38.8207 62.5643C38.4205 62.5643 38.1003 62.4844 37.7802 62.4045C37.46 62.2447 37.2199 62.0849 36.9797 61.8452C36.7396 61.6055 36.5795 61.3658 36.4194 61.0462C36.2594 60.7265 36.1793 60.4069 36.1793 60.0074V58.729H37.9403V60.7265H39.7012V57.85H37.9403V56.252H39.7012V53.775H37.9403V55.5328H36.1793V54.6539Z" fill="#414042"/>
<path d="M53.3885 52.1768V55.3729C53.3885 55.7724 53.3885 56.092 53.3084 56.4116C53.2284 56.7312 53.1484 56.9709 53.0683 57.2107C52.9082 57.4504 52.7481 57.6102 52.508 57.77C52.2679 57.9298 52.0278 57.9298 51.6275 57.9298C51.9477 57.9298 52.2679 58.0097 52.508 58.1695C52.7481 58.3293 52.9082 58.4891 53.0683 58.7288C53.2284 58.9685 53.3084 59.2082 53.3084 59.5278C53.3885 59.8475 53.3885 60.1671 53.3885 60.5666V62.5642H51.7076V60.5666C51.7076 60.0872 51.6275 59.6877 51.4675 59.368C51.3074 59.0484 51.0672 58.8886 50.9072 58.8886H50.0267V62.6441H48.2657V52.2567H50.0267V57.1308H50.9072C51.1473 57.1308 51.3074 56.9709 51.4675 56.6513C51.6275 56.3317 51.7076 55.9322 51.7076 55.4528V52.2567H53.3885V52.1768Z" fill="#414042"/>
<path d="M65.4749 54.6536V55.6124H63.714V53.8546H61.9531V60.8061H63.714V58.8085H65.4749V60.087C65.4749 60.4865 65.3949 60.8061 65.2348 61.1257C65.0747 61.4453 64.9146 61.6851 64.6745 61.9248C64.4344 62.1645 64.1943 62.3243 63.8741 62.4841C63.5539 62.6439 63.2337 62.6439 62.8335 62.6439C62.4333 62.6439 62.1131 62.564 61.793 62.4841C61.4728 62.3243 61.2327 62.1645 60.9925 61.9248C60.7524 61.6851 60.5923 61.4453 60.4322 61.1257C60.2722 60.8061 60.2722 60.4865 60.2722 60.087V54.7335C60.2722 54.334 60.3522 54.0144 60.4322 53.6947C60.5923 53.3751 60.7524 53.0555 60.9925 52.8957C61.2327 52.656 61.4728 52.4962 61.793 52.3364C62.1131 52.1766 62.4333 52.0967 62.8335 52.0967C63.2337 52.0967 63.5539 52.1766 63.8741 52.3364C64.1943 52.4962 64.4344 52.656 64.6745 52.8957C64.9146 53.1354 65.0747 53.3751 65.2348 53.6947C65.3949 53.9345 65.4749 54.334 65.4749 54.6536Z" fill="#414042"/>
<path d="M74.92 52.1768C75.2401 52.1768 75.6404 52.2567 75.8805 52.3366C76.2007 52.4964 76.4408 52.6562 76.6809 52.8959C76.921 53.1356 77.0811 53.3753 77.2412 53.6949C77.4013 54.0145 77.4813 54.3341 77.4813 54.7337V62.5642H75.8004V53.9346H74.0395V62.5642H72.2786V52.1768H74.92Z" fill="#414042"/>
<path d="M86.9264 52.0171C87.3266 52.0171 87.6468 52.097 87.967 52.2568C88.2871 52.4166 88.5273 52.5764 88.7674 52.8161C89.0075 53.0558 89.1676 53.2955 89.3277 53.6152C89.4878 53.9348 89.5678 54.2544 89.5678 54.6539V57.2907H86.126V60.7265H87.8869V59.1285H89.6479V60.0873C89.6479 60.4868 89.5678 60.8064 89.4077 61.1261C89.2476 61.4457 89.0876 61.6854 88.8474 61.9251C88.6073 62.1648 88.3672 62.3246 88.047 62.4844C87.7268 62.6442 87.4066 62.6442 87.0064 62.6442C86.6062 62.6442 86.2861 62.5643 85.9659 62.4844C85.6457 62.3246 85.4056 62.1648 85.1655 61.9251C84.9253 61.6854 84.7652 61.4457 84.6052 61.1261C84.4451 60.8064 84.4451 60.4868 84.4451 60.0873V54.7338C84.4451 54.3343 84.5251 54.0147 84.6052 53.6951C84.7652 53.3754 84.9253 53.0558 85.1655 52.8161C85.4056 52.5764 85.6457 52.4166 85.9659 52.2568C86.2861 52.097 86.6062 52.0171 86.9264 52.0171ZM86.126 53.9348V55.6926H87.8869V53.9348H86.126Z" fill="#414042"/>
<path d="M98.2124 66C97.9722 66 97.7321 65.9201 97.572 65.8402C97.3319 65.7603 97.1718 65.6005 97.0117 65.4407C96.8516 65.2809 96.6915 65.1211 96.6115 64.8814C96.5315 64.6416 96.4514 64.4818 96.4514 64.2421V52.1768H99.0928C99.413 52.1768 99.8132 52.2567 100.133 52.3366C100.454 52.4964 100.694 52.6562 100.934 52.8959C101.174 53.1356 101.334 53.3753 101.494 53.6949C101.654 54.0145 101.734 54.3341 101.734 54.7337V59.9274C101.734 60.3269 101.654 60.6465 101.494 60.9661C101.334 61.2857 101.174 61.5254 100.934 61.7651C100.694 62.0048 100.454 62.1646 100.133 62.3245C99.8132 62.4843 99.493 62.5642 99.0928 62.5642H98.2124V66ZM98.2124 60.8063H99.9733V53.8547H98.2124V60.8063Z" fill="#414042"/>
<path d="M110.299 62.5642V53.8547H108.538V52.1768H113.821V53.9346H112.06V62.5642H110.299Z" fill="#414042"/>
<path d="M125.907 62.5642H123.266C122.946 62.5642 122.545 62.4843 122.225 62.3245C121.905 62.1646 121.665 62.0048 121.425 61.7651C121.185 61.5254 121.025 61.2857 120.864 60.9661C120.704 60.6465 120.624 60.3269 120.624 60.0073V52.1768H122.385V60.8063H124.146V52.1768H125.827V62.5642H125.907Z" fill="#414042"/>
<path d="M134.472 53.9348V55.6127H132.791V54.7338C132.791 54.3343 132.871 54.0147 132.951 53.6951C133.111 53.3754 133.271 53.0558 133.511 52.8161C133.751 52.5764 133.991 52.4166 134.312 52.2568C134.632 52.097 134.952 52.0171 135.352 52.0171C135.752 52.0171 136.073 52.097 136.393 52.2568C136.713 52.4166 136.953 52.5764 137.193 52.8161C137.433 53.0558 137.593 53.3754 137.753 53.6951C137.914 54.0147 137.994 54.3343 137.994 54.7338V55.6926C137.914 56.0922 137.834 56.4917 137.593 56.8912C137.353 57.2108 137.113 57.4505 136.793 57.4505C137.113 57.6902 137.433 57.9299 137.593 58.1696C137.834 58.4093 137.914 58.729 137.914 59.2084V60.1672C137.914 60.5667 137.834 60.8863 137.673 61.206C137.513 61.5256 137.353 61.7653 137.113 62.005C136.873 62.2447 136.633 62.4045 136.313 62.5643C135.993 62.7241 135.672 62.7241 135.272 62.7241C134.872 62.7241 134.552 62.6442 134.232 62.5643C133.911 62.4045 133.671 62.2447 133.431 62.005C133.191 61.7653 133.031 61.5256 132.871 61.206C132.711 60.8863 132.711 60.5667 132.711 60.1672V58.8888H134.392V60.9662H136.153V59.1285C136.153 58.8888 136.073 58.6491 135.913 58.4892C135.752 58.3294 135.512 58.2495 135.272 58.2495H134.392V56.4917H135.432C135.592 56.4917 135.752 56.3319 135.913 56.1721C136.073 56.0123 136.153 55.7725 136.153 55.5328V53.9348H134.472Z" fill="#414042"/>
<path d="M147.359 62.564C146.958 62.564 146.638 62.4841 146.318 62.3243C145.998 62.1645 145.758 62.0047 145.518 61.765C145.278 61.5253 145.117 61.2855 144.957 60.9659C144.797 60.6463 144.797 60.3267 144.797 59.9272V57.9296C144.797 57.5301 144.877 57.2105 144.957 56.8909C145.117 56.5713 145.278 56.3315 145.518 56.0918C145.758 55.8521 145.998 55.6923 146.318 55.5325C146.638 55.3727 146.958 55.2928 147.359 55.2928H148.239V53.8546H144.797V52.0967H147.359C147.759 52.0967 148.079 52.1766 148.399 52.2565C148.719 52.4163 148.959 52.5761 149.2 52.8158C149.44 53.0555 149.6 53.2952 149.76 53.6148C149.92 53.9345 150 54.2541 150 54.6536V62.4042H147.359V62.564ZM148.239 60.8061V57.0507H146.478V60.8061H148.239Z" fill="#414042"/>
<path d="M93.8101 13.7434C92.6895 12.6248 90.5283 12.0654 87.4066 12.0654H67.7962C64.5945 12.0654 62.4333 12.6248 61.3127 13.7434C60.1921 14.862 59.6318 20.6151 59.6318 20.6151H67.2359V17.9783H87.8069V25.4892H82.364V31.4819H87.8069V38.6732H67.3159V35.6369H59.7119V37.0751C59.7119 40.0315 60.2722 42.109 61.3928 43.1478C62.5134 44.2664 64.6745 44.8257 67.7962 44.8257H87.4066C90.6084 44.8257 92.6895 44.2664 93.8101 43.2277C94.9307 42.109 95.491 40.1114 95.491 37.0751V19.816C95.491 16.8596 94.9307 14.7821 93.8101 13.7434Z" fill="#414042"/>
</svg>
