<svg width="55" height="55" fill="none" xmlns="http://www.w3.org/2000/svg"><path d="M44.554 5H16.119a6.417 6.417 0 00-6.407 6.407v25.97a6.407 6.407 0 00.72 12.777h23.165a6.417 6.417 0 006.407-6.407V17.814h4.55a6.407 6.407 0 100-12.814zM29.057 48.258H10.433a4.516 4.516 0 010-9.032h18.624a6.398 6.398 0 000 9.032zm9.061-36.851v32.34a4.512 4.512 0 11-4.511-4.512.948.948 0 000-1.896H11.646V11.407a4.521 4.521 0 014.473-4.511h23.857a6.387 6.387 0 00-1.858 4.51zm5.488 4.512h-3.592v-1.555h3.592v1.555zm1.896-.095v-2.407a.948.948 0 00-.948-.948h-4.54v-1.062a4.512 4.512 0 115.488 4.417z" fill="#17529F"/><path d="M31.654 14.402H17.788a.948.948 0 000 1.896h13.866a.948.948 0 000-1.896zm0 6.768H17.788a.948.948 0 100 1.895h13.866a.948.948 0 000-1.895zm0 6.767H17.788a.948.948 0 100 1.896h13.866a.948.948 0 000-1.896z" fill="#17529F"/></svg>