<svg width="55" height="55" fill="none" xmlns="http://www.w3.org/2000/svg"><path d="M43.218 13.9a1.56 1.56 0 01-1.032-.388 21.603 21.603 0 00-14.241-5.378 21.435 21.435 0 00-13.569 4.868 1.568 1.568 0 01-1.989-2.423A24.583 24.583 0 0127.945 5c5.988 0 11.78 2.186 16.308 6.155a1.57 1.57 0 01-1.035 2.746z" fill="#17529F"/><path d="M18.148 13.39h-5.223a1.568 1.568 0 01-1.567-1.566V6.6a1.568 1.568 0 013.134 0v3.657h3.656a1.568 1.568 0 010 3.134zM28.324 51a24.729 24.729 0 01-16.308-6.156 1.568 1.568 0 112.068-2.357 21.59 21.59 0 0014.24 5.379 21.43 21.43 0 0013.568-4.869 1.568 1.568 0 011.99 2.424A24.584 24.584 0 0128.324 51z" fill="#17529F"/><path d="M43.221 51a1.568 1.568 0 01-1.567-1.567v-3.657h-3.656a1.568 1.568 0 010-3.134h5.223c.865 0 1.568.702 1.568 1.567v5.224c0 .865-.703 1.567-1.568 1.567zM13.447 28.016a5.23 5.23 0 01-5.223-5.223 5.23 5.23 0 015.223-5.224 5.23 5.23 0 015.224 5.224 5.23 5.23 0 01-5.224 5.223zm0-7.313c-1.151 0-2.09.938-2.09 2.09 0 1.15.939 2.09 2.09 2.09 1.151 0 2.09-.94 2.09-2.09 0-1.152-.939-2.09-2.09-2.09zm8.88 17.761a1.568 1.568 0 01-1.567-1.567v-1.045a2.615 2.615 0 00-2.612-2.611H8.746a2.615 2.615 0 00-2.612 2.611v1.045a1.568 1.568 0 01-3.134 0v-1.045a5.75 5.75 0 015.746-5.746h9.402a5.75 5.75 0 015.746 5.746v1.045c0 .865-.702 1.567-1.567 1.567zm20.372-10.448a5.23 5.23 0 01-5.224-5.223 5.23 5.23 0 015.224-5.224 5.23 5.23 0 015.224 5.224 5.23 5.23 0 01-5.224 5.223zm0-7.313c-1.151 0-2.09.938-2.09 2.09 0 1.15.939 2.09 2.09 2.09 1.151 0 2.09-.94 2.09-2.09 0-1.152-.939-2.09-2.09-2.09zm8.88 17.761a1.568 1.568 0 01-1.567-1.567v-1.045a2.615 2.615 0 00-2.612-2.611h-9.402a2.615 2.615 0 00-2.612 2.611v1.045a1.568 1.568 0 01-3.134 0v-1.045a5.75 5.75 0 015.746-5.746H47.4a5.75 5.75 0 015.746 5.746v1.045c0 .865-.702 1.567-1.567 1.567z" fill="#17529F"/></svg>