<svg width="55" height="55" fill="none" xmlns="http://www.w3.org/2000/svg"><path d="M50 36.13c0-6.704-4.518-12.562-10.889-14.328C38.711 12.47 30.994 5 21.565 5 11.878 5 4 12.88 4 22.564c0 3.157.84 6.23 2.436 8.928l-2.371 8.572 8.572-2.37a17.5 17.5 0 008.165 2.417C22.567 46.48 28.426 51 35.131 51c2.676 0 5.279-.713 7.566-2.067l7.238 2.002-2.002-7.238A14.816 14.816 0 0050 36.13zm-36.938-1.35L7.93 36.2l1.42-5.132-.324-.506a14.819 14.819 0 01-2.33-7.997c0-8.198 6.67-14.869 14.869-14.869 8.198 0 14.869 6.67 14.869 14.87 0 8.198-6.67 14.869-14.87 14.869a14.82 14.82 0 01-7.996-2.331l-.506-.324zM46.07 47.07l-3.808-1.053-.509.331a12.127 12.127 0 01-6.622 1.958c-5.27 0-9.9-3.408-11.542-8.294 8.07-.93 14.492-7.352 15.423-15.422 4.885 1.641 8.293 6.272 8.293 11.542 0 2.36-.677 4.651-1.958 6.622l-.33.509 1.053 3.808z" fill="#17529F"/><path d="M20 29h3v3h-3v-3zm4-9.834c0 .733-.347 1.41-.977 1.906L19.5 23.849V27h3v-2.014l2.549-2.009c1.24-.976 1.951-2.366 1.951-3.811C27 16.317 24.309 14 21 14s-6 2.317-6 5.166h3c0-1.425 1.346-2.583 3-2.583s3 1.158 3 2.583z" fill="#17529F"/></svg>