<svg width="55" height="55" fill="none" xmlns="http://www.w3.org/2000/svg"><path d="M51.488 28.403l-.041.02-6.969-17.343h3.18a1.032 1.032 0 000-2.064H28.23V6.032a1.032 1.032 0 00-2.065 0v2.973H6.747a1.032 1.032 0 000 2.065h3.314L3.083 28.403c-.052.12-.08.25-.083.382a8.584 8.584 0 0017.167 0 1.033 1.033 0 00-.082-.382L13.117 11.06h13.048v31.919c-4.924.371-8.774 3.365-8.774 6.989 0 .57.462 1.032 1.032 1.032h17.55c.57 0 1.032-.462 1.032-1.032 0-3.624-3.851-6.618-8.775-6.99V11.06h13.183l-6.927 17.343c-.052.12-.08.25-.083.382a8.584 8.584 0 1017.168 0 1.033 1.033 0 00-.083-.382zm-39.91 6.916a6.524 6.524 0 01-6.43-5.482h12.82a6.524 6.524 0 01-6.39 5.482zm6.019-7.546H5.58l6.018-14.979 5.998 14.979zm17.157 21.162H19.631c.764-2.22 3.912-3.933 7.556-3.933s6.803 1.714 7.567 3.933zm8.186-36.13l5.998 14.968H36.922l6.018-14.969zm0 22.514v.01a6.524 6.524 0 01-6.39-5.492h12.822a6.524 6.524 0 01-6.432 5.482z" fill="#17529F"/></svg>