<svg width="55" height="55" fill="none" xmlns="http://www.w3.org/2000/svg"><g clip-path="url(#clip0)" fill="#3049A1"><path d="M21.62 13.247h-8.393a1.406 1.406 0 100 2.813h8.393a1.406 1.406 0 000-2.813zm0 5.626h-8.393a1.406 1.406 0 100 2.812h8.393a1.406 1.406 0 000-2.812zm0 5.625h-8.393a1.406 1.406 0 100 2.813h8.393a1.406 1.406 0 000-2.813zm0 5.625h-8.393a1.406 1.406 0 100 2.813h8.393a1.406 1.406 0 000-2.813zm0 5.72h-8.393a1.406 1.406 0 000 2.812h8.393a1.406 1.406 0 000-2.812zm4.723-19.783h8.393a1.406 1.406 0 100-2.813h-8.393a1.406 1.406 0 000 2.813zm0 5.625h8.393a1.406 1.406 0 100-2.812h-8.393a1.406 1.406 0 000 2.812zm5.448 4.219c0-.776-.63-1.406-1.406-1.406h-4.042a1.406 1.406 0 000 2.813h4.042c.777 0 1.406-.63 1.406-1.407zm13.322 10.532a1.406 1.406 0 00-1.977.217l-3.622 4.516-2.242-1.625a1.406 1.406 0 10-1.65 2.278l3.326 2.41a1.402 1.402 0 001.922-.26l4.46-5.559a1.406 1.406 0 00-.217-1.977z"/><path d="M48.667 32.12a11.598 11.598 0 00-6.735-3.385V9.663A5.67 5.67 0 0036.268 4H11.695a5.67 5.67 0 00-5.664 5.663V42.24a5.67 5.67 0 005.664 5.664h19.764A11.576 11.576 0 0040.34 52c6.44 0 11.679-5.243 11.679-11.687a11.62 11.62 0 00-3.352-8.194zM8.844 42.239V9.663a2.854 2.854 0 012.851-2.85h24.573a2.854 2.854 0 012.851 2.85V28.69c-5.868.613-10.458 5.591-10.458 11.623 0 1.672.349 3.288 1.018 4.777H11.695a2.854 2.854 0 01-2.851-2.851zm31.496 6.949a8.8 8.8 0 01-7.084-3.538 8.802 8.802 0 01-1.783-5.337c0-4.893 3.978-8.874 8.867-8.874l.139.001h.022a8.81 8.81 0 016.16 2.65 8.826 8.826 0 012.545 6.223c0 4.893-3.977 8.874-8.866 8.874z"/></g><defs><clipPath id="clip0"><path fill="#fff" transform="translate(5 4)" d="M0 0h48v48H0z"/></clipPath></defs></svg>