<svg width="55" height="55" fill="none" xmlns="http://www.w3.org/2000/svg"><path d="M53.637 26l-8.989-8.784a1.254 1.254 0 00-.876-.355h-6.45v-4.619c0-1.215-1.075-2.242-2.348-2.242H3.294C2.03 10 1 11.006 1 12.242V37.93c0 1.236 1.03 2.242 2.295 2.242h3.769C7.631 43.474 10.576 46 14.114 46s6.483-2.525 7.05-5.828h16.405C38.136 43.474 41.081 46 44.62 46s6.484-2.526 7.05-5.83l.037.002c1.265 0 2.294-1.006 2.294-2.243V26.857c0-.321-.13-.63-.363-.856zM43.26 19.284l6.757 6.604H37.322v-6.604h5.937zM7.083 37.75H3.478V12.422h31.366V37.75h-13.7c-.61-3.252-3.529-5.725-7.03-5.725-3.502 0-6.421 2.473-7.031 5.725zm7.03 5.828c-2.575 0-4.671-2.048-4.671-4.566 0-2.517 2.096-4.566 4.672-4.566 2.576 0 4.672 2.049 4.672 4.566 0 2.518-2.096 4.566-4.672 4.566zm30.506 0c-2.576 0-4.672-2.048-4.672-4.566 0-2.517 2.096-4.566 4.672-4.566 2.576 0 4.672 2.049 4.672 4.566 0 2.518-2.096 4.566-4.672 4.566zm0-11.553c-3.501 0-6.42 2.473-7.031 5.725h-.266v-9.442h14.2v8.886c-.821-2.974-3.604-5.17-6.903-5.17z" fill="#3049A1"/></svg>