<svg width="430" height="490" fill="none" xmlns="http://www.w3.org/2000/svg"><path d="M30.3 371.331v8.6h83.068v-17.199H30.3v8.599zm0 23.536v8.599h83.068v-17.199H30.3v8.6z" fill="#EEE"/><path d="M7.43 412.429c-.684.906-7.43 17.287-7.43 17.832 0 .18 54.727.36 121.67.36 66.944 0 121.671-.272 121.576-.725 0-.36-1.66-4.526-3.615-9.232l-3.715-8.599-113.951-.273c-66.16-.088-114.242.18-114.536.637z" fill="#17529F"/><path d="M124.607 1.563c-1.566.905-27.07 12.128-56.682 24.985-29.512 12.765-54.433 23.807-55.315 24.44-.783.725-3.321 1.265-5.57 1.265H2.937v26.251h14.559l.977 4.706c.589 2.623 12.022 60.194 25.509 127.903s24.726 124.191 25.02 125.548l.588 2.536H30.3V357.3h83.068v-18.103h-39.58L60.696 213.556C53.56 144.49 47.403 85.833 47.113 83.21l-.489-4.706h71.635V52.253l-36.159-.18-36.258-.272L85.91 28.899c21.988-12.493 40.263-22.81 40.557-22.81.294 0 .588 89.433.588 198.688v198.688h6.841v-9.689l11.727-10.23c6.452-5.523 12.116-9.957 12.605-9.776.489.092 5.963 4.525 12.116 9.776l11.239 9.505.1 5.158.099 5.251h6.841V4.912l3.226.632c4.298.813 176.986 45.892 177.475 46.345.194.18-38.603.36-86.195.36h-86.692v26.25h178.84v56.122h-4.203c-4.398 0-6.547 1.177-6.547 3.62 0 .813 5.281 7.334 11.728 14.483l11.727 13.033v5.251c0 6.789 1.466 9.957 7.719 16.474 5.863 6.336 6.451 9.596 2.443 14.03-4.593 5.071-10.85 2.988-13.193-4.434-1.172-3.62-1.272-3.62-6.059-3.62h-4.886l.683 3.713c1.76 10.137 8.112 15.568 18.175 15.568 9.867 0 16.613-5.523 17.396-14.303.588-6.516-.878-10.137-7.035-16.654-4.887-5.25-5.375-6.063-5.67-10.769l-.294-5.159 11.922-13.398c6.646-7.421 12.021-13.578 12.021-13.85 0-.272-.488-1.265-.977-2.263-.783-1.358-2.149-1.718-5.863-1.718h-4.887l.195-27.881.294-27.788 10.067-.272L430 78.41V52.253h-10.167c-6.646 0-10.361-.36-10.555-.997-.195-.545-49.841-12.313-110.237-25.978L189.097.205l-30.784-.18c-28.526-.092-30.969 0-33.706 1.538zm57.17 9.232v4.798L170.15 25.37c-6.452 5.431-12.022 9.777-12.51 9.685-.389-.093-5.959-4.526-12.216-9.865l-11.433-9.597v-4.798l-.1-4.706h47.886v4.706zM90.402 21.837c-1.076.633-12.51 7.242-25.409 14.576-12.899 7.333-24.137 13.938-25.02 14.663-1.172.905-4.008 1.177-11.139.997l-9.578-.272 35.57-15.569c34.11-14.847 39.78-17.203 35.576-14.395zm61.569 17.744c.389.544-6.547 7.06-14.854 14.03l-3.226 2.623V24.008l8.796 7.422c4.886 4.077 8.989 7.786 9.284 8.15zm29.612 8.054l-.294 8.147-9.185-7.787-9.089-7.874 9.089-7.874 9.185-7.874.294 7.601c.095 4.166.095 11.135 0 15.661zm175.226-5.339c22.183 5.07 40.557 9.324 40.851 9.505.194.272-3.421.452-8.207.452-5.769 0-9.19-.36-10.167-1.177-.877-.726-15.442-4.799-32.349-9.232-27.559-7.062-32.934-8.6-31.079-8.6.294 0 18.768 4.074 40.951 9.052zm-187.347 12.04l10.65 9.324-10.456 8.96c-5.764 4.978-10.849 9.232-11.433 9.324-.488.18-5.764-3.893-11.727-8.96l-10.945-9.412 10.651-9.232c5.864-5.07 11.139-9.232 11.628-9.324.593-.004 5.768 4.157 11.632 9.32zM146.79 82.032c6.547 5.791 7.036 4.434-5.28 14.755l-7.624 6.337V70.897l3.715 3.076c1.959 1.723 6.158 5.344 9.189 8.059zm34.987 5.159v15.933l-9.383-7.967-9.479-8.054 9.185-7.874c5.08-4.346 9.284-7.967 9.478-7.967.1 0 .199 7.15.199 15.929zm-138.09 2.627C48.38 132.634 64.506 289.776 64.31 290.41c-.194.453-9.773-46.709-21.4-104.821C31.278 127.384 21.993 79.497 22.188 79.136c.294-.364 4.886-.545 10.36-.452l9.968.272 1.172 10.862zm361.886 16.746v28.061h-25.409V78.504h25.409v28.06zm-231.713-1.45l6.252 5.524-10.65 9.232c-5.864 5.07-11.044 9.324-11.433 9.324-.489 0-5.669-4.166-11.628-9.324l-10.75-9.232 11.044-9.685 11.139-9.597 4.887 4.166c2.637 2.263 7.718 6.604 11.139 9.592zm-28.147 22.722c3.81 3.261 6.647 6.244 6.353 6.697-.295.452-4.498 4.165-9.384 8.239l-8.796 7.421v-31.954l2.543 1.811c1.371.997 5.574 4.526 9.284 7.786zm36.064 6.424v15.841l-9.383-7.966-9.284-7.967 9.089-7.874c4.986-4.346 9.185-7.967 9.384-7.967.095.005.194 7.154.194 15.933zm-9.284 16.478l7.819 6.701-10.75 9.412c-5.864 5.159-11.045 9.325-11.434 9.412-.294 0-5.474-4.165-11.532-9.324l-10.945-9.232 11.044-9.684 11.044-9.593 3.52 2.808c1.851 1.441 6.936 5.787 11.234 9.5zm-27.852 23.17c4.009 3.349 7.429 6.517 7.624 6.881.099.361-3.909 4.166-9.09 8.507l-9.284 7.967v-16.021c0-18.464-1.271-17.563 10.75-7.334zm36.747 22.089c-.294.181-4.497-2.988-9.383-7.149l-8.895-7.602 9.089-7.966 9.09-7.967.294 15.116c.095 8.327 0 15.296-.195 15.568zm-9.483 1.178l8.407 7.241-10.75 9.413c-5.864 5.158-10.945 9.412-11.239 9.504-.878 0-21.989-18.011-21.989-18.736 0-.453 4.787-4.887 10.75-9.957l10.651-9.145 2.931 2.263c1.666 1.27 6.647 5.524 11.239 9.417zm-27.658 23.262l8.696 7.514-8.795 7.602c-4.787 4.166-9.09 7.602-9.479 7.694-.489 0-.783-6.969-.783-15.48 0-8.512.389-15.296.878-15.116.398.092 4.697 3.621 9.483 7.786zm37.336 15.296l-.294 7.782-8.796-7.514c-4.786-4.165-8.795-7.786-8.795-8.146 0-.273 4.009-3.894 8.795-7.967l8.796-7.514.294 7.694c.095 4.35.095 11.319 0 15.665zm-10.067 7.967l8.796 7.694-8.796 7.694c-4.787 4.253-9.967 8.511-11.338 9.416l-2.443 1.811-10.75-9.052c-5.864-5.071-10.651-9.412-10.651-9.869 0-.453 4.787-4.799 10.651-9.865l10.75-9.052 2.443 1.811c1.371.905 6.551 5.158 11.338 9.412zm-27.364 23.535l8.696 7.601-8.112 7.062c-4.497 3.893-8.795 7.421-9.479 7.782-1.171.632-1.366-1.991-1.366-14.756 0-8.419.294-15.388.783-15.388.389.097 4.592 3.533 9.478 7.699zm37.431 15.48l-.294 7.874-8.796-7.602c-4.786-4.165-8.795-7.874-8.795-8.146 0-.361 4.009-3.981 8.795-8.147l8.796-7.606.294 7.966c.095 4.346.095 11.403 0 15.661zm-11.044 7.149l9.773 8.512-8.407 7.241c-4.592 3.893-9.673 8.147-11.239 9.412l-2.931 2.263-10.651-9.052c-5.963-5.07-10.75-9.504-10.75-9.957 0-.36 4.787-4.798 10.651-9.777 8.406-7.149 10.944-8.779 12.216-8.146.882.545 5.963 4.706 11.338 9.504zm-18.08 31.954c0 .453-14.365 12.945-16.808 14.483-1.66 1.178-1.76.545-1.76-14.755v-16.021l9.284 7.966c5.081 4.342 9.284 8.055 9.284 8.327zm29.318.273v15.48l-3.126-2.443c-1.76-1.358-5.958-4.979-9.379-7.967l-6.257-5.431 8.696-7.514c4.691-4.165 8.895-7.514 9.383-7.602.389-.004.683 6.965.683 15.477zm-12.215 13.845l10.75 9.412-7.33 6.244c-4.009 3.441-9.09 7.787-11.239 9.505l-3.909 3.26-10.944-9.139c-5.959-5.071-10.945-9.505-10.945-9.777-.099-.725 21.206-18.917 22.183-18.917.389.092 5.47 4.254 11.434 9.412zm-17.103 32.679c0 .453-11.727 10.682-15.342 13.578l-3.226 2.443v-32.042l9.284 7.875c5.081 4.345 9.284 8.054 9.284 8.146zm29.124 7.602l-.294 8.239-9.09-7.874-9.184-7.787 9.184-7.874 9.09-7.874.294 7.514c.095 4.161.095 11.222 0 15.656zM24.085 447.562v18.816h3.04v10.688h-4.672v-6.656H8.15v6.656H3.477v-10.688h1.76a56.792 56.792 0 002.273-5.12c.704-1.835 1.333-3.872 1.888-6.112.576-2.24 1.034-4.768 1.376-7.584h13.312zm-4.832 4.032h-4.64a43.758 43.758 0 01-.928 4.8 60.455 60.455 0 01-1.472 5.152 53.011 53.011 0 01-1.887 4.832h8.927v-14.784zm26.87 10.048c0 2.901-.768 5.141-2.304 6.72-1.515 1.579-3.584 2.368-6.208 2.368-1.621 0-3.072-.352-4.352-1.056-1.259-.704-2.25-1.728-2.976-3.072-.725-1.365-1.088-3.019-1.088-4.96 0-2.901.757-5.131 2.272-6.688 1.515-1.557 3.595-2.336 6.24-2.336 1.643 0 3.093.352 4.352 1.056 1.259.704 2.25 1.728 2.976 3.072.725 1.323 1.088 2.955 1.088 4.896zm-12.064 0c0 1.728.277 3.04.832 3.936.576.875 1.504 1.312 2.784 1.312 1.259 0 2.165-.437 2.72-1.312.576-.896.864-2.208.864-3.936 0-1.728-.288-3.019-.864-3.872-.555-.875-1.472-1.312-2.752-1.312-1.259 0-2.176.437-2.752 1.312-.555.853-.832 2.144-.832 3.872zm31.877-8.704v17.472h-4.769v-13.888h-6.336v13.888h-4.768v-17.472h15.873zm2.506 0h5.217l3.295 9.824c.171.469.3.96.385 1.472.085.491.149 1.013.192 1.568h.095c.064-.555.15-1.077.256-1.568.128-.512.267-1.003.416-1.472l3.233-9.824h5.12l-7.392 19.712c-.662 1.813-1.633 3.168-2.912 4.064-1.26.917-2.72 1.376-4.384 1.376a9.124 9.124 0 01-1.408-.096 10.527 10.527 0 01-1.025-.16v-3.776c.235.043.513.085.832.128a8.46 8.46 0 001.056.064c1.003 0 1.792-.309 2.368-.928a5.373 5.373 0 001.313-2.176l.287-.864-6.944-17.344zm27.82 17.792c-2.603 0-4.62-.715-6.049-2.144-1.408-1.451-2.112-3.723-2.112-6.816 0-2.133.363-3.872 1.088-5.216.726-1.344 1.728-2.336 3.008-2.976 1.302-.64 2.795-.96 4.48-.96 1.195 0 2.23.117 3.104.352.896.235 1.675.512 2.336.832l-1.408 3.68a22.805 22.805 0 00-2.112-.736 6.652 6.652 0 00-1.92-.288c-2.474 0-3.712 1.76-3.712 5.28 0 1.749.32 3.04.96 3.872.662.832 1.579 1.248 2.752 1.248 1.003 0 1.888-.128 2.656-.384a10.987 10.987 0 002.24-1.12v4.064c-.725.469-1.493.8-2.304.992-.79.213-1.792.32-3.008.32zm20.789-17.792h5.248l-6.912 8.384 7.52 9.088h-5.408l-7.136-8.864v8.864h-4.768v-17.472h4.768v8.48l6.688-8.48zm27.343-1.664c-1.856 0-3.275.693-4.256 2.08-.982 1.387-1.472 3.285-1.472 5.696 0 2.432.448 4.32 1.344 5.664.917 1.323 2.378 1.984 4.384 1.984.938 0 1.866-.107 2.784-.32a27.496 27.496 0 003.04-.896v4.064a16.324 16.324 0 01-2.976.896c-.982.192-2.08.288-3.296.288-2.347 0-4.288-.48-5.824-1.44-1.515-.981-2.635-2.347-3.36-4.096-.726-1.771-1.088-3.829-1.088-6.176 0-2.304.416-4.341 1.248-6.112.832-1.771 2.037-3.157 3.616-4.16 1.6-1.003 3.552-1.504 5.856-1.504 1.13 0 2.261.149 3.392.448a17.19 17.19 0 013.296 1.152l-1.568 3.936a24.72 24.72 0 00-2.592-1.056 7.612 7.612 0 00-2.528-.448zm17.975-3.712c2.944 0 5.088.64 6.432 1.92 1.365 1.259 2.048 2.997 2.048 5.216a8.66 8.66 0 01-.832 3.744c-.555 1.152-1.483 2.08-2.784 2.784-1.28.704-3.03 1.056-5.248 1.056h-2.08v8.128h-4.832v-22.848h7.296zm-.256 3.968h-2.208v6.784h1.6c1.365 0 2.442-.267 3.232-.8.81-.555 1.216-1.44 1.216-2.656 0-2.219-1.28-3.328-3.84-3.328zm33.789 7.424c0 2.368-.394 4.437-1.184 6.208-.768 1.749-1.952 3.115-3.552 4.096-1.6.981-3.648 1.472-6.144 1.472-2.474 0-4.522-.491-6.144-1.472-1.6-.981-2.794-2.357-3.584-4.128-.768-1.771-1.152-3.84-1.152-6.208 0-2.368.384-4.427 1.152-6.176.79-1.749 1.984-3.104 3.584-4.064 1.622-.981 3.68-1.472 6.176-1.472 2.475 0 4.512.491 6.112 1.472 1.6.96 2.784 2.325 3.552 4.096.79 1.749 1.184 3.808 1.184 6.176zm-16.672 0c0 2.389.459 4.277 1.376 5.664.918 1.365 2.39 2.048 4.416 2.048 2.07 0 3.552-.683 4.448-2.048.896-1.387 1.344-3.275 1.344-5.664 0-2.411-.448-4.299-1.344-5.664-.896-1.365-2.368-2.048-4.416-2.048-2.048 0-3.53.683-4.448 2.048-.917 1.365-1.376 3.253-1.376 5.664z" fill="#EEE"/><path d="M223.802 470.41h-15.594v-3.094l7.36-7.843c1.01-1.105 1.755-2.068 2.234-2.891.489-.823.734-1.604.734-2.344 0-1.01-.255-1.802-.765-2.375-.511-.583-1.24-.875-2.188-.875-1.021 0-1.828.354-2.422 1.063-.583.698-.875 1.62-.875 2.765h-4.531c0-1.385.328-2.651.984-3.796.667-1.146 1.605-2.042 2.813-2.688 1.208-.656 2.578-.984 4.109-.984 2.344 0 4.162.562 5.453 1.687 1.302 1.125 1.954 2.714 1.954 4.766 0 1.125-.292 2.271-.875 3.437-.584 1.167-1.584 2.526-3 4.078l-5.172 5.454h9.781v3.64zm16.141-8.562h2.578v3.64h-2.578v4.922h-4.516v-4.922h-9.328l-.203-2.843 9.484-14.985h4.563v14.188zm-9.547 0h5.031v-8.032l-.297.516-4.734 7.516z" fill="#17529F"/></svg>