<svg width="90" height="40" fill="none" xmlns="http://www.w3.org/2000/svg"><path d="M43.371 3.57h-12.39v12.665h12.39v-2.543h4.58v1.565c0 1.809-.337 3.08-1.012 3.716-.675.685-1.977 1.027-3.857 1.027H31.27c-1.929 0-3.183-.342-3.857-.978-.675-.685-1.013-1.907-1.013-3.765V4.743c0-1.809.338-3.032 1.013-3.716C28.087.342 29.389 0 31.27 0h11.812c1.929 0 3.23.342 3.905 1.027C47.662 1.71 48 5.232 48 5.232h-4.58V3.57h-.049zM3.122 33.123v.582H2.065v-1.066H1.01v4.213h1.056v-1.21h1.057v.774c0 .243-.048.436-.144.63a1.738 1.738 0 01-.337.484 1.723 1.723 0 01-.48.34c-.192.096-.384.096-.624.096s-.432-.048-.625-.097a1.723 1.723 0 01-.48-.339 1.738 1.738 0 01-.336-.484A2.88 2.88 0 010 36.368v-3.245c0-.242.048-.435.096-.63.096-.193.192-.387.336-.483.144-.146.288-.242.48-.34a1.32 1.32 0 01.625-.145c.24 0 .432.049.624.146a1.692 1.692 0 01.817.823c.096.194.144.436.144.63zM8.308 40a.898.898 0 01-.384-.097c-.144-.048-.24-.145-.336-.242-.096-.097-.192-.193-.24-.339-.048-.145-.096-.242-.096-.387v-7.312h1.585c.192 0 .432.048.624.096a1.715 1.715 0 01.816.824c.097.193.145.387.145.63v3.147c0 .242-.049.436-.145.63a1.74 1.74 0 01-.336.484 1.726 1.726 0 01-.48.339 1.321 1.321 0 01-.624.145h-.529V40zm0-3.147h1.057v-4.214H8.308v4.214zm9.317-.485c0 .242-.048.436-.144.63a1.74 1.74 0 01-.336.484 1.726 1.726 0 01-.48.339c-.192.097-.384.097-.624.097s-.433-.049-.625-.097a1.726 1.726 0 01-.48-.34 1.74 1.74 0 01-.336-.483c-.096-.194-.096-.388-.096-.63v-3.245c0-.242.048-.435.096-.629.096-.194.192-.387.336-.533.144-.145.288-.242.48-.339a1.32 1.32 0 01.625-.145c.24 0 .432.049.624.145.192.097.336.194.48.34.144.145.24.338.336.532.096.194.144.387.144.63v3.244zm-2.113-3.68V36.9h1.057v-4.213h-1.057z" fill="#CB2027"/><path d="M21.707 33.123c0-.242.049-.435.145-.63.096-.193.192-.387.336-.483.144-.146.288-.242.48-.34a1.32 1.32 0 01.624-.145c.24 0 .433.049.625.146a1.692 1.692 0 01.816.823c.096.194.096.387.096.63v3.244c0 .242-.048.436-.096.63a1.74 1.74 0 01-.336.484 1.726 1.726 0 01-.48.339c-.192.097-.385.097-.625.097s-.432-.049-.624-.097a1.726 1.726 0 01-.48-.34 1.738 1.738 0 01-.336-.483 1.35 1.35 0 01-.145-.63v-.775h1.057v1.21h1.057v-1.742h-1.057v-.969h1.057v-1.501h-1.057v1.065h-1.056v-.532zm10.326-1.5v1.937c0 .242 0 .435-.048.63-.048.193-.096.338-.144.483a1.126 1.126 0 01-.336.34c-.144.096-.288.096-.528.096.192 0 .384.049.528.145.144.097.24.194.336.34.096.145.144.29.144.484.048.194.048.387.048.63v1.21h-1.008v-1.21c0-.291-.048-.533-.144-.727-.097-.194-.24-.29-.337-.29h-.528v2.275H28.96v-6.295h1.056v2.954h.528c.144 0 .24-.097.337-.29.096-.194.144-.436.144-.727v-1.937h1.008v-.048zm7.252 1.5v.582h-1.057v-1.066h-1.056v4.213h1.056v-1.21h1.057v.774c0 .242-.048.436-.144.63a1.737 1.737 0 01-.336.484 1.722 1.722 0 01-.48.34c-.193.096-.385.096-.625.096s-.432-.048-.624-.097a1.722 1.722 0 01-.48-.339 1.737 1.737 0 01-.337-.484c-.096-.194-.096-.388-.096-.63v-3.244c0-.242.048-.436.096-.63.096-.194.193-.387.337-.484.144-.145.288-.242.48-.339.192-.097.384-.145.624-.145s.432.048.624.145a1.704 1.704 0 01.817.823c.096.145.144.388.144.581zm5.667-1.5c.192 0 .432.048.576.096a1.7 1.7 0 01.817.824c.096.193.144.387.144.63v4.745H45.48v-5.23h-1.056v5.23h-1.057v-6.295h1.585zm7.204-.098c.24 0 .432.049.624.146a1.692 1.692 0 01.817.823c.096.194.144.387.144.63v1.597h-2.066v2.083h1.057v-.969h1.057v.581c0 .243-.048.436-.144.63a1.739 1.739 0 01-.337.484 1.724 1.724 0 01-.48.34c-.192.096-.384.096-.624.096s-.432-.048-.624-.097a1.724 1.724 0 01-.48-.339 1.739 1.739 0 01-.337-.484c-.096-.194-.096-.387-.096-.63v-3.244c0-.242.048-.436.096-.63.096-.193.192-.387.336-.532.144-.146.288-.242.48-.34a1.27 1.27 0 01.577-.145zm-.48 1.163v1.065h1.056v-1.065h-1.056zM58.927 40a.898.898 0 01-.384-.097c-.144-.048-.24-.145-.336-.242-.096-.097-.192-.193-.24-.339-.048-.145-.096-.242-.096-.387v-7.312h1.585c.192 0 .432.048.624.096a1.715 1.715 0 01.817.824c.096.193.144.387.144.63v3.147c0 .242-.048.436-.144.63a1.74 1.74 0 01-.337.484 1.726 1.726 0 01-.48.339 1.321 1.321 0 01-.624.145h-.529V40zm0-3.147h1.057v-4.214h-1.057v4.214zm7.253 1.065v-5.279h-1.057v-1.016h3.17v1.065h-1.057v5.23h-1.057zm9.364 0H73.96a1.47 1.47 0 01-.625-.145 1.726 1.726 0 01-.48-.34 1.74 1.74 0 01-.336-.484 1.299 1.299 0 01-.144-.58v-4.746h1.056v5.23h1.057v-5.23h1.008v6.295h.048zm5.139-5.23v1.017h-1.009v-.533c0-.242.048-.436.096-.63.097-.193.193-.387.337-.532.144-.146.288-.242.48-.34a1.32 1.32 0 01.624-.145c.24 0 .433.049.625.146.192.096.336.193.48.339.144.145.24.339.336.532.096.194.144.388.144.63v.581c-.048.242-.096.484-.24.726-.144.194-.288.34-.48.34.192.145.384.29.48.435.144.146.192.34.192.63v.58c0 .243-.048.437-.144.63a1.74 1.74 0 01-.336.485 1.726 1.726 0 01-.48.339c-.192.096-.385.096-.625.096s-.432-.048-.624-.096a1.725 1.725 0 01-.48-.34 1.74 1.74 0 01-.337-.484c-.096-.193-.096-.387-.096-.63v-.774h1.009v1.26h1.057v-1.115a.553.553 0 00-.144-.387.543.543 0 00-.385-.145h-.528v-1.066h.624c.096 0 .192-.097.288-.193a.553.553 0 00.145-.388v-.968h-1.009zm7.732 5.23c-.24 0-.432-.049-.624-.146a1.726 1.726 0 01-.48-.339 1.74 1.74 0 01-.337-.484c-.096-.194-.096-.387-.096-.63v-1.21c0-.242.048-.436.096-.63a1.74 1.74 0 01.337-.484c.144-.145.288-.242.48-.339a1.32 1.32 0 01.624-.145h.528v-.872h-2.065v-1.065h1.537c.24 0 .432.048.624.097.193.096.337.193.48.339.145.145.24.29.337.484.096.194.144.387.144.63v4.697h-1.585v.097zm.528-1.066v-2.276h-1.056v2.276h1.056zM56.286 8.33c-.672-.679-1.97-1.018-3.842-1.018H40.678c-1.921 0-3.218.34-3.89 1.017-.673.678-1.009 4.165-1.009 4.165h4.563v-1.598h12.342v4.552h-3.266v3.632h3.266v4.358H40.39v-1.84h-4.563v.872c0 1.792.336 3.05 1.009 3.68.672.678 1.969 1.017 3.842 1.017h11.766c1.921 0 3.17-.339 3.842-.968.672-.678 1.008-1.889 1.008-3.73V12.01c0-1.79-.336-3.05-1.008-3.68z" fill="#414042"/></svg>