<svg width="77" height="46" fill="none" xmlns="http://www.w3.org/2000/svg"><path d="M2.317 29.237v.677H8.67V28.56H2.317v.677zm0 1.853v.677H8.67v-1.355H2.317v.678z" fill="#414042"/><path d="M.568 32.47C.516 32.543 0 33.833 0 33.876c0 .014 4.185.028 9.305.028s9.305-.021 9.298-.057c0-.028-.127-.356-.277-.727l-.284-.677-8.714-.021c-5.06-.007-8.737.014-8.76.05z" fill="#17529F"/><path d="M9.53.123c-.12.072-2.07.955-4.335 1.968C2.938 3.096 1.032 3.965.965 4.015c-.06.057-.255.1-.427.1H.225V6.18h1.113l.075.371c.045.207.92 4.74 1.95 10.071 1.032 5.331 1.892 9.779 1.914 9.886l.045.2H2.317v1.425H8.67v-1.426H5.643l-1.001-9.893A5127.014 5127.014 0 003.603 6.552l-.037-.37h5.478V4.114L6.28 4.1l-2.774-.02L6.57 2.276C8.252 1.292 9.65.48 9.672.48c.022 0 .045 7.041.045 15.644V31.77h.523v-.763l.897-.806c.493-.435.927-.784.964-.77.037.008.456.357.927.77l.86.749.007.406.007.413h.523V.387l.247.05C15.001.5 28.208 4.05 28.245 4.086c.015.014-2.952.028-6.592.028h-6.63v2.067h13.678v4.42h-.322c-.336 0-.5.092-.5.284 0 .064.403.578.896 1.14l.897 1.027v.413c0 .535.112.784.59 1.297.449.5.494.756.187 1.105-.35.4-.83.235-1.009-.35-.09-.284-.097-.284-.463-.284h-.374l.052.292c.135.798.62 1.226 1.39 1.226.755 0 1.271-.435 1.33-1.126.046-.513-.066-.798-.537-1.312-.374-.413-.411-.477-.434-.848l-.022-.406.912-1.055c.508-.584.919-1.069.919-1.09 0-.022-.038-.1-.075-.178-.06-.107-.164-.136-.448-.136h-.374l.015-2.195.022-2.188.77-.021.763-.022V4.115h-.778c-.508 0-.792-.029-.807-.079-.015-.043-3.812-.97-8.43-2.045L14.46.016 12.108.002C9.927-.005 9.74.002 9.53.123zm4.372.727v.378l-.89.77c-.493.427-.919.77-.956.762-.03-.007-.456-.356-.934-.776l-.875-.756V.85L10.24.48h3.662v.37zm-6.988.87c-.083.05-.957.57-1.943 1.147-.987.578-1.846 1.098-1.914 1.155-.09.071-.306.093-.852.078l-.732-.021 2.72-1.226C6.802 1.684 7.235 1.5 6.913 1.72zm4.708 1.397c.03.043-.5.556-1.136 1.104l-.246.207V1.891l.672.584c.374.321.688.613.71.642zm2.265.634l-.022.641-.703-.613-.695-.62.695-.62.703-.62.022.599c.007.328.007.877 0 1.233zm13.401-.42c1.697.399 3.102.734 3.124.748.015.021-.261.036-.627.036-.442 0-.703-.029-.778-.093-.067-.057-1.18-.378-2.474-.727-2.108-.556-2.519-.677-2.377-.677.023 0 1.436.32 3.132.713zm-14.328.948l.815.734-.8.705c-.44.392-.83.727-.874.734-.038.015-.441-.306-.897-.705l-.837-.741.814-.727c.449-.4.852-.727.89-.734.045 0 .44.327.89.734zm-1.734 2.18c.5.456.538.35-.404 1.162l-.583.5V5.582l.284.242c.15.135.471.42.703.634zm2.676.407V8.12l-.718-.627-.725-.634.703-.62c.388-.343.71-.628.725-.628.007 0 .015.563.015 1.255zm-10.56.206c.358 3.372 1.591 15.745 1.576 15.795-.015.035-.747-3.678-1.636-8.254-.89-4.583-1.6-8.353-1.585-8.382.022-.028.374-.043.792-.035l.763.021.09.855zm27.675 1.319v2.21h-1.943V6.18h1.943v2.21zm-17.72-.114l.478.435-.815.727c-.448.399-.845.734-.874.734-.038 0-.434-.328-.89-.734l-.822-.727.845-.763.852-.755.374.327c.201.179.59.52.851.756zm-2.153 1.789c.291.257.508.491.486.527-.023.036-.344.328-.718.649l-.673.584V9.31l.195.143c.105.078.426.356.71.613zm2.758.506v1.247l-.718-.627-.71-.628.695-.62c.382-.342.703-.627.718-.627.007 0 .015.563.015 1.255zm-.71 1.297l.598.528-.822.74c-.449.407-.845.735-.875.742-.022 0-.418-.328-.882-.734l-.837-.727.845-.763.845-.755.269.221c.141.114.53.456.859.748zm-2.13 1.825c.306.263.568.513.583.541.008.029-.299.328-.695.67l-.71.628V14.27c0-1.454-.098-1.383.822-.578zm2.81 1.739c-.022.014-.344-.236-.717-.563l-.68-.599.694-.627.696-.627.022 1.19c.007.656 0 1.204-.015 1.226zm-.725.092l.643.57-.822.742c-.449.406-.837.74-.86.748-.067 0-1.681-1.418-1.681-1.475 0-.036.366-.385.822-.784l.814-.72.224.178c.128.1.509.435.86.741zm-2.115 1.832l.665.592-.673.598c-.366.328-.695.599-.725.606-.037 0-.06-.548-.06-1.219 0-.67.03-1.204.067-1.19.031.007.36.285.726.613zm2.855 1.205l-.022.612-.673-.591c-.366-.328-.673-.613-.673-.642 0-.021.307-.306.673-.627l.673-.592.022.606c.007.343.007.891 0 1.234zm-.77.627l.673.606-.673.605c-.366.335-.762.67-.867.742l-.187.143-.822-.713c-.448-.4-.814-.741-.814-.777 0-.036.366-.378.814-.777l.822-.713.187.143c.105.071.501.406.867.74zm-2.093 1.853l.666.598-.62.556c-.345.307-.674.585-.726.613-.09.05-.104-.157-.104-1.162 0-.662.022-1.211.06-1.211.03.007.35.278.724.606zm2.863 1.219l-.022.62-.673-.599c-.366-.328-.673-.62-.673-.641 0-.028.307-.314.673-.642l.673-.598.022.627a36.2 36.2 0 010 1.233zm-.845.563l.748.67-.643.57c-.351.307-.74.642-.86.741l-.224.178-.814-.712c-.456-.4-.822-.749-.822-.784 0-.029.366-.378.814-.77.643-.563.837-.691.934-.642.068.043.456.371.867.749zM11.66 25.34c0 .035-1.099 1.02-1.286 1.14-.127.093-.134.043-.134-1.162v-1.261l.71.627c.388.342.71.634.71.656zm2.242.021v1.22l-.24-.193a22.732 22.732 0 01-.716-.628l-.479-.427.665-.592c.359-.328.68-.591.718-.598.03 0 .052.548.052 1.218zm-.934 1.09l.822.741-.56.492c-.307.271-.696.613-.86.749l-.3.256-.836-.72c-.456-.399-.837-.748-.837-.77-.008-.056 1.622-1.489 1.696-1.489.03.008.419.335.875.741zm-1.308 2.573c0 .036-.897.842-1.174 1.07l-.246.192v-2.522l.71.62c.388.341.71.633.71.64zm2.227.6l-.022.648-.696-.62-.702-.613.702-.62.696-.62.022.591c.007.328.007.884 0 1.233zM6.49 36.087v5.88h.95v3.34H5.98v-2.08H1.51v2.08H.05v-3.34H.6c.253-.5.49-1.034.71-1.6.22-.574.417-1.21.59-1.91.18-.7.323-1.49.43-2.37h4.16zm-1.51 1.26H3.53c-.06.46-.157.96-.29 1.5-.127.533-.28 1.07-.46 1.61-.18.533-.377 1.036-.59 1.51h2.79v-4.62zm8.397 3.14c0 .906-.24 1.606-.72 2.1-.474.493-1.12.74-1.94.74-.507 0-.96-.11-1.36-.33a2.348 2.348 0 01-.93-.96c-.227-.427-.34-.944-.34-1.55 0-.907.236-1.604.71-2.09.473-.487 1.123-.73 1.95-.73.513 0 .966.11 1.36.33.393.22.703.54.93.96.226.413.34.923.34 1.53zm-3.77 0c0 .54.086.95.26 1.23.18.273.47.41.87.41.393 0 .676-.137.85-.41.18-.28.27-.69.27-1.23s-.09-.944-.27-1.21c-.174-.274-.46-.41-.86-.41-.394 0-.68.136-.86.41-.174.266-.26.67-.26 1.21zm9.961-2.72v5.46h-1.49v-4.34h-1.98v4.34h-1.49v-5.46h4.96zm.784 0h1.63l1.03 3.07c.053.146.093.3.12.46.026.153.046.316.06.49h.03a4.99 4.99 0 01.08-.49c.04-.16.083-.314.13-.46l1.01-3.07h1.6l-2.31 6.16c-.207.566-.51.99-.91 1.27a2.27 2.27 0 01-1.37.43 2.85 2.85 0 01-.44-.03 3.276 3.276 0 01-.32-.05v-1.18c.073.013.16.026.26.04.106.013.216.02.33.02.313 0 .56-.097.74-.29a1.68 1.68 0 00.41-.68l.09-.27-2.17-5.42zm8.693 5.56c-.813 0-1.443-.224-1.89-.67-.44-.454-.66-1.164-.66-2.13 0-.667.113-1.21.34-1.63.227-.42.54-.73.94-.93.407-.2.873-.3 1.4-.3.373 0 .697.036.97.11.28.073.523.16.73.26l-.44 1.15a7.14 7.14 0 00-.66-.23c-.2-.06-.4-.09-.6-.09-.773 0-1.16.55-1.16 1.65 0 .546.1.95.3 1.21.207.26.493.39.86.39.313 0 .59-.04.83-.12.24-.087.473-.204.7-.35v1.27a2.29 2.29 0 01-.72.31c-.247.066-.56.1-.94.1zm6.497-5.56h1.64l-2.16 2.62 2.35 2.84h-1.69l-2.23-2.77v2.77h-1.49v-5.46h1.49v2.65l2.09-2.65zm8.544-.52c-.58 0-1.023.216-1.33.65-.306.433-.46 1.026-.46 1.78 0 .76.14 1.35.42 1.77.287.413.744.62 1.37.62.294 0 .584-.034.87-.1.294-.067.61-.16.95-.28v1.27c-.313.126-.623.22-.93.28-.306.06-.65.09-1.03.09-.733 0-1.34-.15-1.82-.45a2.728 2.728 0 01-1.05-1.28c-.226-.554-.34-1.197-.34-1.93 0-.72.13-1.357.39-1.91.26-.554.637-.987 1.13-1.3.5-.314 1.11-.47 1.83-.47a4.1 4.1 0 011.06.14c.36.086.704.206 1.03.36l-.49 1.23a7.636 7.636 0 00-.81-.33 2.38 2.38 0 00-.79-.14zm5.617-1.16c.92 0 1.59.2 2.01.6.427.393.64.936.64 1.63 0 .413-.086.803-.26 1.17-.173.36-.463.65-.87.87-.4.22-.946.33-1.64.33h-.65v2.54h-1.51v-7.14h2.28zm-.08 1.24h-.69v2.12h.5c.427 0 .764-.084 1.01-.25.254-.174.38-.45.38-.83 0-.694-.4-1.04-1.2-1.04zm10.56 2.32c0 .74-.124 1.386-.37 1.94-.24.546-.61.973-1.11 1.28-.5.306-1.14.46-1.92.46-.774 0-1.414-.154-1.92-.46a2.822 2.822 0 01-1.12-1.29c-.24-.554-.36-1.2-.36-1.94s.12-1.384.36-1.93c.246-.547.62-.97 1.12-1.27.506-.307 1.15-.46 1.93-.46.773 0 1.41.153 1.91.46.5.3.87.726 1.11 1.28.246.546.37 1.19.37 1.93zm-5.21 0c0 .746.143 1.336.43 1.77.286.426.746.64 1.38.64.646 0 1.11-.214 1.39-.64.28-.434.42-1.024.42-1.77 0-.754-.14-1.344-.42-1.77-.28-.427-.74-.64-1.38-.64-.64 0-1.104.213-1.39.64-.287.426-.43 1.016-.43 1.77z" fill="#414042"/><path d="M68.901 43.227h-4.873v-.967l2.3-2.451c.316-.345.549-.647.698-.904.153-.257.23-.501.23-.732 0-.316-.08-.563-.24-.742-.159-.183-.387-.274-.683-.274-.319 0-.571.11-.757.332-.182.218-.273.506-.273.864h-1.416c0-.432.102-.828.307-1.186.209-.358.502-.638.88-.84a2.648 2.648 0 011.283-.307c.733 0 1.3.175 1.704.527.407.351.61.848.61 1.49 0 .35-.09.709-.273 1.073-.182.365-.494.79-.937 1.275l-1.616 1.704H68.9v1.138zm5.044-2.676h.806v1.137h-.806v1.539h-1.41v-1.538h-2.916l-.063-.89 2.963-4.682h1.426v4.434zm-2.983 0h1.572v-2.51l-.093.161-1.48 2.349z" fill="#17529F"/></svg>