<svg width="393" height="198" fill="none" xmlns="http://www.w3.org/2000/svg"><path d="M189.389 17.67h-54.108v62.692h54.108V67.775h20v7.746c0 8.956-1.473 15.25-4.421 18.396-2.947 3.389-8.632 5.083-16.843 5.083h-51.581c-8.421 0-13.895-1.694-16.843-4.84-2.947-3.39-4.421-9.44-4.421-18.639V23.479c0-8.956 1.474-15.007 4.421-18.396C122.649 1.694 128.333 0 136.544 0h51.581c8.422 0 14.106 1.694 17.054 5.083C208.126 8.472 209.6 25.9 209.6 25.9h-20.001v-8.23h-.21zM13.631 163.962v2.876H9.018v-5.273H4.404v20.854h4.614v-5.992h4.613v3.835c0 1.199-.21 2.157-.629 3.116-.42.959-.839 1.678-1.468 2.397-.629.719-1.258 1.199-2.097 1.678-.839.48-1.678.48-2.726.48-1.049 0-1.888-.24-2.726-.48-.84-.479-1.468-.959-2.098-1.678-.629-.719-1.048-1.438-1.468-2.397-.21-.959-.419-2.157-.419-3.356v-16.06c0-1.199.21-2.158.42-3.117.419-.958.838-1.917 1.467-2.397.63-.719 1.259-1.198 2.098-1.678a5.224 5.224 0 012.726-.719c1.048 0 1.887.24 2.726.719.839.48 1.468.959 2.097 1.678.63.72 1.049 1.439 1.468 2.397.42.959.63 2.158.63 3.117zM36.28 198c-.629 0-1.258-.24-1.678-.479-.629-.24-1.048-.719-1.467-1.199-.42-.479-.84-.959-1.05-1.678-.209-.719-.419-1.198-.419-1.918V156.53h6.921c.839 0 1.887.24 2.726.48.84.479 1.468.959 2.097 1.678.63.719 1.049 1.438 1.468 2.397.42.959.63 1.917.63 3.116v15.581c0 1.199-.21 2.158-.63 3.116-.42.959-.839 1.678-1.468 2.397-.629.72-1.258 1.199-2.097 1.678-.839.48-1.677.72-2.726.72H36.28V198zm0-15.581h4.614v-20.855H36.28v20.855zm40.684-2.397c0 1.199-.21 2.158-.629 3.116-.42.959-.839 1.678-1.468 2.398-.63.719-1.258 1.198-2.097 1.678-.839.479-1.678.479-2.726.479-1.049 0-1.888-.24-2.727-.479-.838-.48-1.468-.959-2.097-1.678-.629-.72-1.048-1.439-1.468-2.398-.42-.958-.42-1.917-.42-3.116v-16.06c0-1.199.21-2.158.42-3.117.42-.958.84-1.917 1.468-2.636.63-.72 1.259-1.199 2.097-1.678.84-.48 1.678-.719 2.727-.719 1.048 0 1.887.239 2.726.719.839.479 1.468.958 2.097 1.678.63.719 1.049 1.678 1.468 2.636.42.959.63 1.918.63 3.117v16.06zm-9.227-18.218v20.855h4.614v-20.855h-4.614z" fill="#CB2027"/><path d="M94.79 163.962c0-1.199.21-2.158.629-3.117.42-.958.839-1.917 1.468-2.397.629-.719 1.258-1.198 2.097-1.678a5.224 5.224 0 012.726-.719c1.049 0 1.888.24 2.727.719.838.48 1.468.959 2.097 1.678.629.72 1.048 1.439 1.468 2.397.419.959.419 1.918.419 3.117v16.06c0 1.199-.21 2.158-.419 3.117-.42.958-.839 1.678-1.468 2.397-.629.719-1.259 1.198-2.097 1.678-.839.479-1.678.479-2.727.479-1.048 0-1.887-.24-2.726-.479-.839-.48-1.468-.959-2.097-1.678-.63-.719-1.049-1.439-1.468-2.397-.42-.959-.63-1.918-.63-3.117v-3.835h4.614v5.993h4.614v-8.63h-4.614v-4.794h4.614v-7.431h-4.614v5.274H94.79v-2.637zm45.088-7.432v9.589c0 1.198 0 2.157-.21 3.116a33.45 33.45 0 01-.629 2.397c-.419.719-.839 1.199-1.468 1.678-.629.479-1.258.479-2.307.479.839 0 1.678.24 2.307.72.629.479 1.049.958 1.468 1.677.419.72.629 1.439.629 2.398.21.958.21 1.917.21 3.116v5.993h-4.404V181.7c0-1.438-.21-2.637-.629-3.596-.42-.959-1.049-1.438-1.468-1.438h-2.307v11.266h-4.614V156.77h4.614v14.622h2.307c.629 0 1.048-.479 1.468-1.438.419-.959.629-2.157.629-3.596v-9.588h4.404v-.24zm31.666 7.431v2.877h-4.613v-5.274h-4.614v20.855h4.614v-5.993h4.613v3.836c0 1.198-.209 2.157-.629 3.116-.419.959-.839 1.678-1.468 2.397-.629.719-1.258 1.198-2.097 1.678-.839.479-1.678.479-2.726.479-1.049 0-1.888-.239-2.727-.479-.838-.48-1.468-.959-2.097-1.678s-1.048-1.438-1.468-2.397c-.419-.959-.419-1.918-.419-3.116v-16.061c0-1.199.21-2.157.419-3.116.42-.959.839-1.918 1.468-2.397.629-.72 1.259-1.199 2.097-1.678.839-.48 1.678-.719 2.727-.719 1.048 0 1.887.239 2.726.719.839.479 1.468.958 2.097 1.678.629.719 1.049 1.438 1.468 2.397.42.719.629 1.917.629 2.876zm24.746-7.431c.839 0 1.888.24 2.517.48.839.479 1.468.959 2.097 1.678s1.049 1.438 1.468 2.397c.419.959.629 1.917.629 3.116v23.492h-4.404v-25.889h-4.613v25.889h-4.614V156.53h6.92zm31.457-.479c1.049 0 1.888.24 2.726.719.839.48 1.468.959 2.098 1.678.629.72 1.048 1.439 1.468 2.397.419.959.629 1.918.629 3.117v7.91h-9.018v10.308h4.614v-4.795h4.613v2.877c0 1.199-.209 2.157-.629 3.116-.419.959-.839 1.678-1.468 2.397-.629.719-1.258 1.199-2.097 1.678-.839.48-1.678.48-2.726.48-1.049 0-1.888-.24-2.726-.48-.839-.479-1.468-.959-2.097-1.678-.63-.719-1.049-1.438-1.468-2.397-.42-.959-.42-1.917-.42-3.116v-16.061c0-1.198.21-2.157.42-3.116.419-.959.838-1.917 1.468-2.637.629-.719 1.258-1.198 2.097-1.678.838-.479 1.677-.719 2.516-.719zm-2.097 5.753v5.274h4.614v-5.274h-4.614zM257.316 198c-.629 0-1.258-.24-1.677-.479-.629-.24-1.049-.719-1.468-1.199-.42-.479-.839-.959-1.049-1.678-.21-.719-.419-1.198-.419-1.918V156.53h6.92c.839 0 1.888.24 2.727.48.838.479 1.468.959 2.097 1.678s1.048 1.438 1.468 2.397c.419.959.629 1.917.629 3.116v15.581c0 1.199-.21 2.158-.629 3.116-.42.959-.839 1.678-1.468 2.397-.629.72-1.259 1.199-2.097 1.678-.839.48-1.678.72-2.727.72h-2.307V198zm0-15.581h4.614v-20.855h-4.614v20.855zm31.667 5.274v-26.129h-4.614v-5.034h13.841v5.274h-4.613v25.889h-4.614zm40.894 0h-6.921a5.79 5.79 0 01-2.726-.72c-.839-.479-1.468-.958-2.097-1.678-.629-.719-1.049-1.438-1.468-2.397-.42-.958-.629-1.917-.629-2.876V156.53h4.613v25.889h4.614V156.53h4.404v31.163h.21zm22.439-25.889v5.034h-4.404v-2.637c0-1.198.21-2.157.419-3.116.42-.959.839-1.917 1.468-2.637.63-.719 1.259-1.198 2.097-1.678a5.225 5.225 0 012.727-.719c1.048 0 1.887.24 2.726.719.839.48 1.468.959 2.097 1.678.629.72 1.049 1.678 1.468 2.637.419.959.629 1.918.629 3.116v2.877c-.21 1.198-.419 2.397-1.048 3.596-.63.958-1.259 1.678-2.098 1.678.839.719 1.678 1.438 2.098 2.157.629.719.838 1.678.838 3.116v2.877c0 1.198-.209 2.157-.629 3.116-.419.959-.839 1.678-1.468 2.397-.629.719-1.258 1.199-2.097 1.678-.839.479-1.677.479-2.726.479s-1.887-.239-2.726-.479c-.839-.479-1.468-.959-2.097-1.678s-1.049-1.438-1.468-2.397c-.42-.959-.42-1.918-.42-3.116v-3.836h4.404v6.233h4.614v-5.514c0-.719-.21-1.438-.629-1.917-.42-.48-1.049-.719-1.678-.719h-2.307v-5.274h2.726c.42 0 .839-.479 1.259-.959.419-.479.629-1.198.629-1.917v-4.795h-4.404zm33.764 25.889c-1.049 0-1.888-.24-2.727-.72-.839-.479-1.468-.958-2.097-1.678-.629-.719-1.048-1.438-1.468-2.397-.419-.958-.419-1.917-.419-3.116v-5.993c0-1.198.209-2.157.419-3.116.42-.959.839-1.678 1.468-2.397.629-.719 1.258-1.199 2.097-1.678a5.225 5.225 0 012.727-.719h2.306v-4.315h-9.017v-5.273h6.711c1.048 0 1.887.239 2.726.479.839.479 1.468.959 2.097 1.678s1.048 1.438 1.468 2.397c.419.959.629 1.918.629 3.116v23.252h-6.92v.48zm2.306-5.274v-11.266h-4.613v11.266h4.613zM245.782 41.23c-2.936-3.356-8.598-5.034-16.777-5.034h-51.379c-8.389 0-14.051 1.678-16.987 5.034-2.936 3.356-4.404 20.615-4.404 20.615h19.923v-7.91h53.896v22.533h-14.26v17.978h14.26v21.574h-53.686v-9.109h-19.923v4.315c0 8.869 1.468 15.101 4.404 18.218 2.936 3.355 8.598 5.033 16.777 5.033h51.379c8.389 0 13.841-1.678 16.777-4.794 2.936-3.356 4.404-9.348 4.404-18.457V59.448c0-8.87-1.468-15.102-4.404-18.218z" fill="#fff"/></svg>