<svg width="30" height="40" fill="none" xmlns="http://www.w3.org/2000/svg"><path d="M17.114 16.98a2.806 2.806 0 00-.966-.526 5.67 5.67 0 00-1.249-.122h-1.852c-.322 0-.524.081-.685.203-.12.121-.2.364-.2.689v5.228c0 .243 0 .405.08.567a.5.5 0 00.241.324c.121.081.322.122.604.122h1.853c.322 0 .604-.04.886-.081.241-.04.483-.122.724-.203.242-.122.443-.243.604-.405a3.63 3.63 0 00.604-.77c.162-.284.282-.608.363-.973.08-.365.12-.73.12-1.175 0-1.256-.362-2.23-1.127-2.878zm-1.047 5.026c-.12.08-.242.162-.362.202-.161.041-.282.082-.403.082h-1.651v-4.864h.966c.443 0 .806.04 1.128.162.322.081.564.325.765.69.201.364.322.89.322 1.58-.04 1.054-.282 1.742-.765 2.148z" fill="#666"/><path d="M29.92 7.984l-.04-.04v-.041l-7.652-7.7-.04-.04s-.04 0-.04-.041c0 0-.04 0-.04-.04C21.986 0 21.865 0 21.704 0H2.738A2.67 2.67 0 00.846.77l-.04.04A2.84 2.84 0 000 2.757v34.488c0 .77.322 1.46.805 1.946.484.486 1.208.81 1.933.81h24.524a2.73 2.73 0 001.933-.81A2.84 2.84 0 0030 37.244V8.39c0-.162-.04-.284-.08-.405zm-7.45-5.066l4.55 4.58h-3.342c-.322 0-.644-.122-.846-.365a1.268 1.268 0 01-.362-.851V2.918zm5.799 34.326c0 .284-.121.527-.323.73-.201.202-.443.324-.725.324H2.738c-.282 0-.523-.122-.725-.284-.2-.202-.281-.446-.281-.73V2.716c0-.283.12-.527.322-.73l.04-.04c.201-.162.443-.283.685-.283h18.04v4.58c0 .81.322 1.54.886 2.107a2.976 2.976 0 002.094.85h4.47v28.045z" fill="#666"/><path d="M10.309 16.9c-.202-.203-.443-.324-.765-.405-.282-.081-.725-.122-1.249-.122H6.443c-.322 0-.564.081-.685.203-.16.121-.2.364-.2.689v5.511c0 .284.08.487.2.649.121.162.323.202.524.202s.362-.08.523-.243c.121-.162.202-.365.202-.648v-2.027h1.329c.886 0 1.53-.202 1.973-.567.443-.365.684-.932.684-1.662 0-.324-.04-.648-.16-.932-.162-.243-.323-.486-.524-.648zm-.967 2.27c-.12.161-.282.283-.523.364a2.66 2.66 0 01-.846.122h-.966v-2.189h.966c.644 0 1.047.122 1.289.325.201.202.282.445.282.77-.04.243-.08.445-.202.607zm11.034-2.878c-.242.04-.403.081-.524.162a.488.488 0 00-.282.284c-.08.121-.08.284-.08.527v5.47c0 .285.08.528.201.65.121.161.322.202.524.202.201 0 .362-.081.523-.203.121-.162.202-.364.202-.648v-2.35h2.375c.202 0 .363-.041.484-.163.12-.081.16-.243.16-.405a.522.522 0 00-.16-.405.86.86 0 00-.484-.163H20.94v-1.823h2.818c.242 0 .403-.04.524-.162a.522.522 0 00.161-.406.522.522 0 00-.161-.405c-.12-.122-.282-.162-.524-.162h-3.382z" fill="#666"/></svg>