<svg width="19" height="22" fill="none" xmlns="http://www.w3.org/2000/svg"><path d="M18.857 19.393c.53-1.076-.53-2.332-1.235-3.05-.53-.717-1.588-1.794-2.294-1.973-.529 0-1.058.359-1.587.717l4.234 5.383c.53-.36.705-.718.882-1.077zM7.742 4.503c.176-.898-.706-1.974-1.235-2.692C5.977 1.094 5.095-.162 3.86.017c-.529 0-.882.18-1.411.539l4.234 5.382c.53-.538 1.059-.897 1.059-1.436zm5.293 10.943c-.177 0-.177.18-.353.18-.53.18-1.764.18-2.47-.36-.706-.537-1.764-1.793-2.647-2.87-.882-1.076-1.587-2.332-2.117-3.229-.529-.897-.176-1.973.177-2.332 0-.18.176-.18.176-.359L1.567.914l-.177.18C.508 1.81-.55 3.426.332 6.655c.706 2.333 2.117 5.024 4.234 7.715l.353.359.353.358c2.117 2.692 4.41 4.665 6.351 5.92 2.823 1.615 4.764.898 5.646.36.177 0 .177-.18.353-.18l-4.587-5.74z" fill="#17529F"/></svg>