<svg width="150" height="66" fill="none" xmlns="http://www.w3.org/2000/svg"><path d="M72.286 5.89H51.634v20.897h20.652v-4.195h7.634v2.582c0 2.985-.563 5.083-1.688 6.132C77.107 32.436 74.938 33 71.804 33H52.116c-3.214 0-5.303-.565-6.428-1.614C44.562 30.256 44 28.24 44 25.174V7.826c0-2.985.563-5.002 1.688-6.132C46.812.564 48.981 0 52.115 0h19.688c3.214 0 5.383.565 6.508 1.694C79.439 2.824 80 8.634 80 8.634h-7.634V5.89h-.08zM5.203 54.654v.959H3.442v-1.758H1.68v6.951h1.76V58.81h1.762v1.278c0 .4-.08.72-.24 1.04-.16.319-.32.558-.56.798-.24.24-.48.4-.801.56-.32.16-.64.16-1.04.16s-.721-.08-1.041-.16c-.32-.16-.56-.32-.8-.56-.24-.24-.4-.48-.56-.799a4.71 4.71 0 01-.16-1.12v-5.353c0-.4.08-.72.16-1.039.16-.32.32-.64.56-.799.24-.24.48-.4.8-.56a2.233 2.233 0 011.041-.239c.4 0 .72.08 1.04.24.321.16.561.32.801.56.24.239.4.478.56.798.16.32.24.72.24 1.039zM13.847 66c-.24 0-.48-.08-.64-.16-.24-.08-.4-.24-.56-.4-.16-.16-.32-.319-.4-.559-.08-.24-.16-.4-.16-.639V52.177h2.64c.321 0 .721.08 1.041.16.32.16.56.32.8.559.24.24.401.48.561.799.16.32.24.64.24 1.039v5.193c0 .4-.08.72-.24 1.04-.16.319-.32.558-.56.798-.24.24-.48.4-.8.56-.32.16-.641.24-1.041.24h-.88V66zm0-5.194h1.761v-6.951h-1.76v6.951zm15.529-.799c0 .4-.08.72-.24 1.039-.16.32-.32.56-.56.799-.24.24-.481.4-.801.56-.32.16-.64.16-1.04.16s-.721-.08-1.041-.16c-.32-.16-.56-.32-.8-.56-.24-.24-.4-.48-.561-.799-.16-.32-.16-.64-.16-1.039v-5.353c0-.4.08-.72.16-1.039.16-.32.32-.64.56-.879.24-.24.48-.4.8-.56.32-.16.641-.239 1.041-.239.4 0 .72.08 1.04.24.321.16.561.32.801.559.24.24.4.56.56.879.16.32.24.64.24 1.039v5.353zm-3.522-6.072v6.951h1.76v-6.951h-1.76z" fill="#CB2027"/><path d="M36.18 54.654c0-.4.08-.72.24-1.039.16-.32.32-.64.56-.799.24-.24.48-.4.8-.56.32-.159.64-.239 1.04-.239s.721.08 1.041.24c.32.16.56.32.8.56.24.239.4.478.561.798.16.32.16.64.16 1.039v5.353c0 .4-.08.72-.16 1.04-.16.319-.32.559-.56.798-.24.24-.48.4-.8.56-.32.16-.641.16-1.041.16-.4 0-.72-.08-1.04-.16a2.864 2.864 0 01-.801-.56c-.24-.24-.4-.48-.56-.799a2.21 2.21 0 01-.24-1.039V58.73h1.76v1.998h1.761V57.85h-1.76v-1.598h1.76v-2.477h-1.76v1.758h-1.762v-.88zm17.209-2.477v3.196c0 .4 0 .719-.08 1.039-.08.32-.16.559-.24.799-.16.24-.32.4-.561.559-.24.16-.48.16-.88.16.32 0 .64.08.88.24.24.16.4.32.56.559.16.24.24.48.24.799.08.32.08.64.08 1.039v1.997h-1.68v-1.997c0-.48-.08-.88-.24-1.199-.16-.32-.4-.48-.56-.48h-.881v3.756h-1.761V52.257h1.76v4.874h.881c.24 0 .4-.16.56-.48.16-.32.24-.719.24-1.198v-3.196h1.681v-.08zm12.086 2.477v.958h-1.761v-1.757h-1.76v6.951h1.76V58.81h1.76v1.278c0 .4-.08.72-.24 1.039-.16.32-.32.56-.56.799-.24.24-.48.4-.8.56-.32.159-.64.159-1.04.159s-.72-.08-1.041-.16c-.32-.16-.56-.32-.8-.56-.24-.239-.4-.479-.56-.798-.16-.32-.16-.64-.16-1.039v-5.354c0-.399.08-.719.16-1.038.16-.32.32-.64.56-.8.24-.239.48-.399.8-.559.32-.16.64-.24 1.04-.24s.72.08 1.041.24c.32.16.56.32.8.56.24.24.4.48.56.799.16.24.24.639.24.959zm9.445-2.477c.32 0 .72.08.96.16.32.16.56.32.8.559.241.24.401.48.561.799.16.32.24.64.24 1.039v7.83h-1.68v-8.63H74.04v8.63h-1.761V52.177h2.641zm12.006-.16c.4 0 .72.08 1.041.24.32.16.56.32.8.56.24.239.4.478.56.798.16.32.24.64.24 1.039v2.637h-3.441v3.436h1.76v-1.598h1.762v.958c0 .4-.08.72-.24 1.04-.16.319-.32.558-.56.798-.24.24-.48.4-.801.56-.32.16-.64.16-1.04.16s-.72-.08-1.041-.16c-.32-.16-.56-.32-.8-.56-.24-.24-.4-.48-.56-.799-.16-.32-.16-.64-.16-1.039v-5.353c0-.4.08-.72.16-1.039.16-.32.32-.64.56-.879.24-.24.48-.4.8-.56.32-.159.64-.239.96-.239zm-.8 1.918v1.758h1.76v-1.758h-1.76zM98.212 66c-.24 0-.48-.08-.64-.16-.24-.08-.4-.24-.56-.4-.16-.16-.32-.319-.4-.559-.08-.24-.16-.4-.16-.639V52.177h2.64c.321 0 .721.08 1.041.16.321.16.561.32.801.559.24.24.4.48.56.799.16.32.24.64.24 1.039v5.193c0 .4-.08.72-.24 1.04-.16.319-.32.558-.56.798-.24.24-.48.4-.801.56-.32.16-.64.24-1.04.24h-.88V66zm0-5.194h1.761v-6.951h-1.76v6.951zm12.087 1.758v-8.71h-1.761v-1.677h5.283v1.758h-1.761v8.63h-1.761zm15.608 0h-2.641c-.32 0-.721-.08-1.041-.24-.32-.16-.56-.32-.8-.559-.24-.24-.4-.48-.561-.799a2.13 2.13 0 01-.24-.959v-7.83h1.761v8.63h1.761v-8.63h1.681v10.387h.08zm8.565-8.629v1.678h-1.681v-.88c0-.399.08-.718.16-1.038.16-.32.32-.64.56-.879.24-.24.48-.4.801-.56.32-.159.64-.239 1.04-.239s.721.08 1.041.24c.32.16.56.32.8.56.24.239.4.558.56.878.161.32.241.64.241 1.039v.959c-.08.4-.16.799-.401 1.198-.24.32-.48.56-.8.56.32.24.64.479.8.719.241.24.321.559.321 1.038v.96c0 .399-.08.718-.241 1.038-.16.32-.32.56-.56.799-.24.24-.48.4-.8.56-.32.16-.641.16-1.041.16-.4 0-.72-.08-1.04-.16a2.864 2.864 0 01-.801-.56c-.24-.24-.4-.48-.56-.799-.16-.32-.16-.64-.16-1.039V58.89h1.681v2.077h1.761V59.13c0-.24-.08-.48-.24-.64a.913.913 0 00-.641-.24h-.88v-1.757h1.04c.16 0 .32-.16.481-.32.16-.16.24-.4.24-.64v-1.597h-1.681zm12.887 8.629c-.401 0-.721-.08-1.041-.24-.32-.16-.56-.32-.8-.559-.24-.24-.401-.48-.561-.8-.16-.319-.16-.638-.16-1.038V57.93c0-.4.08-.72.16-1.04.16-.319.321-.559.561-.798.24-.24.48-.4.8-.56.32-.16.64-.24 1.041-.24h.88v-1.437h-3.442v-1.758h2.562c.4 0 .72.08 1.04.16.32.16.56.32.801.559.24.24.4.48.56.799.16.32.24.64.24 1.039v7.75h-2.641v.16zm.88-1.758v-3.755h-1.761v3.755h1.761zM93.81 13.743c-1.12-1.118-3.282-1.678-6.403-1.678h-19.61c-3.203 0-5.364.56-6.484 1.678-1.12 1.119-1.681 6.872-1.681 6.872h7.604v-2.637h20.57v7.511h-5.442v5.993h5.443v7.191H67.316v-3.036h-7.604v1.438c0 2.956.56 5.034 1.68 6.073 1.121 1.118 3.282 1.678 6.404 1.678h19.61c3.202 0 5.283-.56 6.404-1.598 1.12-1.119 1.681-3.117 1.681-6.153V19.816c0-2.956-.56-5.034-1.68-6.073z" fill="#414042"/></svg>