<svg width="121" height="70" fill="none" xmlns="http://www.w3.org/2000/svg"><path d="M3.641 44.874v1.04h9.984v-2.08H3.64v1.04zm0 2.844v1.039h9.984v-2.079H3.64v1.04z" fill="#414042"/><path d="M.893 49.839C.81 49.948 0 51.928 0 51.994c0 .021 6.577.043 14.622.043 8.046 0 14.623-.033 14.611-.087 0-.044-.2-.547-.434-1.116l-.447-1.04-13.694-.032c-7.951-.011-13.73.021-13.765.077z" fill="#17529F"/><path d="M14.975.189c-.188.11-3.253 1.466-6.812 3.02C4.616 4.75 1.621 6.085 1.515 6.161c-.094.088-.399.153-.669.153H.353v3.172h1.749l.118.569c.07.317 1.445 7.275 3.066 15.457 1.62 8.183 2.971 15.009 3.007 15.173l.07.306H3.641v2.188h9.984v-2.188H8.868L7.294 25.808a7683.235 7683.235 0 00-1.632-15.752l-.059-.569h8.61V6.315l-4.346-.022-4.358-.033 4.816-2.767c2.642-1.51 4.838-2.757 4.874-2.757.035 0 .07 10.808.07 24.011V48.76h.822v-1.172l1.41-1.236c.775-.668 1.456-1.204 1.515-1.182.059.011.717.547 1.456 1.182l1.35 1.148.013.624.012.634h.822V.594l.387.076c.517.098 21.27 5.546 21.33 5.6.023.023-4.64.044-10.36.044H23.608v3.173H45.1v6.782h-.505c-.529 0-.787.142-.787.438 0 .098.634.886 1.41 1.75l1.409 1.575v.634c0 .82.176 1.204.927 1.991.705.766.776 1.16.294 1.696-.552.613-1.304.36-1.586-.536-.14-.438-.152-.438-.728-.438h-.587l.082.45c.212 1.224.975 1.88 2.184 1.88 1.186 0 1.997-.667 2.091-1.728.07-.787-.105-1.225-.846-2.013-.587-.634-.646-.732-.68-1.301l-.036-.623 1.433-1.62c.798-.896 1.444-1.64 1.444-1.673 0-.033-.058-.153-.117-.274-.094-.164-.258-.207-.705-.207h-.587l.023-3.37.036-3.358 1.21-.033 1.197-.033V6.315h-1.221c-.8 0-1.246-.044-1.269-.12-.023-.066-5.99-1.489-13.248-3.14L22.726.025l-3.7-.022c-3.428-.011-3.722 0-4.05.186zm6.871 1.116v.58l-1.397 1.181c-.776.657-1.445 1.182-1.504 1.17-.047-.01-.716-.546-1.468-1.192l-1.374-1.16v-.58l-.012-.568h5.755v.569zM10.864 2.639c-.129.077-1.503.875-3.053 1.762-1.55.886-2.901 1.684-3.007 1.772-.14.109-.482.142-1.339.12l-1.15-.033 4.273-1.88c4.1-1.794 4.78-2.08 4.275-1.74zm7.4 2.144c.047.066-.787.854-1.785 1.696l-.388.317V2.902l1.057.896c.587.493 1.08.941 1.116.985zm3.559.974l-.036.984-1.104-.94-1.092-.952 1.092-.952 1.104-.951.036.918c.011.504.011 1.346 0 1.893zm21.058-.645c2.666.612 4.874 1.126 4.91 1.148.023.033-.411.055-.987.055-.693 0-1.104-.044-1.221-.142-.106-.088-1.856-.58-3.888-1.116-3.312-.853-3.958-1.04-3.735-1.04.035 0 2.255.493 4.921 1.095zM20.366 6.567l1.28 1.127-1.257 1.082c-.692.602-1.304 1.116-1.374 1.127-.059.022-.692-.47-1.41-1.083l-1.314-1.137 1.28-1.116c.704-.613 1.338-1.115 1.397-1.127.071 0 .693.503 1.398 1.127zM17.64 9.914c.787.7.846.536-.634 1.783l-.917.766V8.568l.447.372c.235.208.74.646 1.104.974zm4.205.623v1.926l-1.128-.963-1.139-.973 1.104-.952c.61-.525 1.116-.963 1.139-.963.012 0 .024.864.024 1.925zm-16.596.318c.564 5.174 2.502 24.165 2.479 24.241-.024.055-1.175-5.645-2.572-12.668-1.398-7.034-2.514-12.82-2.49-12.864.035-.044.587-.066 1.245-.055l1.198.033.14 1.313zm43.492 2.023v3.392h-3.054V9.488h3.054v3.39zm-27.848-.175l.752.668-1.28 1.115c-.705.613-1.327 1.127-1.374 1.127-.059 0-.681-.503-1.398-1.127l-1.292-1.115 1.328-1.17 1.338-1.16.588.503c.317.273.927.798 1.338 1.16zm-3.382 2.746c.458.394.799.755.763.81-.035.054-.54.503-1.127.995l-1.058.897v-3.862l.306.22c.165.12.67.546 1.116.94zm4.334.777v1.914l-1.128-.963-1.116-.963 1.093-.951c.6-.525 1.104-.963 1.128-.963.011 0 .023.864.023 1.925zm-1.116 1.99l.94.81-1.292 1.138c-.705.623-1.327 1.127-1.374 1.138-.036 0-.658-.504-1.386-1.127l-1.316-1.116 1.328-1.17 1.327-1.16.423.34c.223.174.834.7 1.35 1.148zm-3.347 2.8c.482.406.893.788.916.833.012.043-.47.503-1.092 1.028l-1.116.962v-1.936c0-2.231-.153-2.122 1.292-.886zm4.416 2.67c-.035.022-.54-.36-1.127-.864l-1.07-.918 1.093-.963 1.092-.963.036 1.827c.011 1.006 0 1.849-.024 1.881zm-1.14.143l1.01.875-1.291 1.137c-.705.624-1.315 1.138-1.35 1.149-.106 0-2.643-2.177-2.643-2.264 0-.055.575-.59 1.292-1.204l1.28-1.105.352.274c.2.153.799.667 1.35 1.138zm-3.323 2.811l1.045.908-1.057.919c-.576.503-1.093.918-1.14.93-.058 0-.094-.843-.094-1.871 0-1.029.047-1.849.106-1.827.048.011.564.438 1.14.941zm4.487 1.848l-.036.94-1.057-.907c-.575-.504-1.057-.941-1.057-.985 0-.033.482-.47 1.057-.962l1.057-.909.036.93a52.4 52.4 0 010 1.893zm-1.21.963l1.057.93-1.057.93c-.575.514-1.198 1.029-1.363 1.138l-.294.219-1.291-1.094c-.705-.613-1.28-1.138-1.28-1.193 0-.055.575-.58 1.28-1.192l1.291-1.094.294.219c.165.11.788.623 1.363 1.137zm-3.289 2.844l1.045.92-.975.852c-.54.47-1.057.897-1.139.94-.14.077-.164-.24-.164-1.782 0-1.018.035-1.86.094-1.86.047.012.552.427 1.14.93zm4.499 1.871l-.036.952-1.057-.919c-.575-.503-1.057-.951-1.057-.984 0-.044.482-.482 1.057-.985l1.057-.92.036.964a52.37 52.37 0 010 1.892zm-1.328.864l1.175 1.029-1.01.875a122.1 122.1 0 01-1.351 1.137l-.353.274-1.28-1.094c-.716-.613-1.291-1.149-1.291-1.203 0-.044.575-.58 1.28-1.182 1.01-.864 1.315-1.06 1.468-.984.106.065.716.568 1.362 1.148zm-2.172 3.862c0 .054-1.727 1.564-2.02 1.75-.2.142-.212.066-.212-1.783v-1.936l1.116.962c.61.525 1.116.974 1.116 1.007zm3.523.033v1.87l-.376-.295a35.5 35.5 0 01-1.127-.962l-.752-.657 1.045-.908c.564-.503 1.07-.908 1.128-.919.047 0 .082.842.082 1.87zm-1.468 1.673l1.292 1.137-.881.755a77.96 77.96 0 01-1.35 1.149l-.47.394-1.316-1.105c-.716-.613-1.315-1.148-1.315-1.181-.012-.088 2.548-2.286 2.666-2.286.047.01.657.514 1.374 1.137zm-2.055 3.95c0 .054-1.41 1.29-1.844 1.64l-.388.295v-3.872l1.116.952c.61.525 1.116.973 1.116.984zm3.5.918l-.036.996-1.092-.952-1.104-.941 1.104-.952 1.092-.951.036.908a52.33 52.33 0 010 1.892zm-11.438 9.109v9.408h1.52v5.344H9.568v-3.328H2.416v3.328H.08v-5.344h.88c.405-.8.784-1.653 1.136-2.56a25.98 25.98 0 00.944-3.056c.288-1.12.517-2.384.688-3.792h6.656zm-2.416 2.016h-2.32c-.096.736-.25 1.536-.464 2.4a30.245 30.245 0 01-.736 2.576 26.5 26.5 0 01-.944 2.416h4.464v-7.392zm13.435 5.024c0 1.45-.384 2.57-1.152 3.36-.758.79-1.792 1.184-3.104 1.184-.81 0-1.536-.176-2.176-.528a3.757 3.757 0 01-1.488-1.536c-.363-.683-.544-1.51-.544-2.48 0-1.45.378-2.565 1.136-3.344.757-.779 1.797-1.168 3.12-1.168.821 0 1.546.176 2.176.528.63.352 1.125.864 1.488 1.536.362.661.544 1.477.544 2.448zm-6.032 0c0 .864.138 1.52.416 1.968.288.437.752.656 1.392.656.63 0 1.082-.219 1.36-.656.288-.448.432-1.104.432-1.968 0-.864-.144-1.51-.432-1.936-.278-.437-.736-.656-1.376-.656-.63 0-1.088.219-1.376.656-.278.427-.416 1.072-.416 1.936zm15.938-4.352v8.736h-2.384v-6.944h-3.168v6.944h-2.384v-8.736h7.936zm1.253 0h2.608l1.648 4.912c.086.235.15.48.193.736.042.245.074.507.095.784h.048a8.04 8.04 0 01.128-.784c.065-.256.134-.501.209-.736l1.615-4.912h2.56l-3.695 9.856c-.331.907-.816 1.584-1.456 2.032-.63.459-1.36.688-2.193.688-.266 0-.5-.016-.704-.048a5.2 5.2 0 01-.512-.08v-1.888c.118.021.256.043.416.064.171.021.347.032.529.032.5 0 .895-.155 1.183-.464.3-.299.518-.661.657-1.088l.144-.432-3.472-8.672zm13.91 8.896c-1.302 0-2.31-.357-3.024-1.072-.704-.725-1.056-1.861-1.056-3.408 0-1.067.181-1.936.544-2.608.362-.672.864-1.168 1.504-1.488.65-.32 1.397-.48 2.24-.48.597 0 1.114.059 1.552.176a6.44 6.44 0 011.168.416l-.704 1.84a11.49 11.49 0 00-1.056-.368 3.326 3.326 0 00-.96-.144c-1.237 0-1.856.88-1.856 2.64 0 .875.16 1.52.48 1.936.33.416.79.624 1.376.624a4.2 4.2 0 001.328-.192 5.49 5.49 0 001.12-.56v2.032c-.363.235-.747.4-1.152.496-.395.107-.896.16-1.504.16zm10.395-8.896h2.624l-3.456 4.192 3.76 4.544H57.09l-3.568-4.432v4.432h-2.384v-8.736h2.384v4.24l3.344-4.24zm13.671-.832c-.928 0-1.637.347-2.128 1.04-.49.693-.736 1.643-.736 2.848 0 1.216.224 2.16.672 2.832.459.661 1.19.992 2.192.992.47 0 .933-.053 1.392-.16.47-.107.976-.256 1.52-.448v2.032a8.137 8.137 0 01-1.488.448c-.49.096-1.04.144-1.648.144-1.173 0-2.144-.24-2.912-.72-.757-.49-1.317-1.173-1.68-2.048-.363-.885-.544-1.915-.544-3.088 0-1.152.208-2.17.624-3.056.416-.885 1.019-1.579 1.808-2.08.8-.501 1.776-.752 2.928-.752.565 0 1.13.075 1.696.224.576.139 1.125.33 1.648.576l-.784 1.968a12.265 12.265 0 00-1.296-.528 3.81 3.81 0 00-1.264-.224zm8.987-1.856c1.472 0 2.544.32 3.216.96.683.63 1.025 1.499 1.025 2.608 0 .661-.14 1.285-.416 1.872-.278.576-.742 1.04-1.392 1.392-.64.352-1.515.528-2.624.528h-1.04v4.064h-2.416V54.575h3.647zm-.128 1.984h-1.104v3.392h.8c.683 0 1.222-.133 1.617-.4.405-.277.608-.72.608-1.328 0-1.11-.64-1.664-1.92-1.664zm16.895 3.712c0 1.184-.197 2.219-.592 3.104a4.434 4.434 0 01-1.776 2.048c-.8.49-1.824.736-3.072.736-1.237 0-2.261-.245-3.072-.736a4.514 4.514 0 01-1.792-2.064c-.384-.885-.576-1.92-.576-3.104 0-1.184.192-2.213.576-3.088a4.436 4.436 0 011.792-2.032c.811-.49 1.84-.736 3.088-.736 1.238 0 2.256.245 3.056.736.8.48 1.392 1.163 1.776 2.048.395.875.592 1.904.592 3.088zm-8.336 0c0 1.195.23 2.139.688 2.832.459.683 1.195 1.024 2.208 1.024 1.035 0 1.776-.341 2.224-1.024.448-.693.672-1.637.672-2.832 0-1.205-.224-2.15-.672-2.832-.448-.683-1.184-1.024-2.208-1.024-1.024 0-1.765.341-2.224 1.024-.458.683-.688 1.627-.688 2.832z" fill="#414042"/><path d="M110.242 65.999h-7.797v-1.547l3.68-3.922c.505-.552.878-1.034 1.117-1.445.245-.412.367-.802.367-1.172 0-.505-.127-.901-.382-1.187-.256-.292-.62-.438-1.094-.438-.511 0-.914.177-1.211.531-.292.35-.438.81-.438 1.383h-2.265c0-.693.164-1.325.492-1.898a3.495 3.495 0 011.406-1.344c.604-.328 1.289-.492 2.055-.492 1.172 0 2.081.281 2.726.843.651.563.977 1.357.977 2.383 0 .563-.146 1.136-.437 1.72-.292.582-.792 1.262-1.5 2.038l-2.586 2.727h4.89v1.82zm8.07-4.281h1.29v1.82h-1.29V66h-2.257v-2.46h-4.664l-.102-1.423 4.742-7.492h2.281v7.094zm-4.773 0h2.516v-4.016l-.149.258-2.367 3.758z" fill="#17529F"/></svg>